<?xml version="1.0" encoding="utf-8"?>
<!-- Generator: Adobe Illustrator 24.0.1, SVG Export Plug-In . SVG Version: 6.00 Build 0)  -->
<svg version="1.1" id="Layer_1" xmlns="http://www.w3.org/2000/svg" xmlns:xlink="http://www.w3.org/1999/xlink" x="0px" y="0px"
	 viewBox="0 0 376 244" style="enable-background:new 0 0 376 244;" xml:space="preserve">
<style type="text/css">
	.st0{fill:none;stroke:#573240;stroke-width:4;stroke-linecap:round;stroke-miterlimit:10;}
	.st1{fill:#FF6E00;}
	.st2{fill:#FFFFFF;}
	.st3{fill:none;stroke:#F1B104;stroke-width:4;stroke-linecap:round;stroke-miterlimit:10;}
	.st4{fill:#F1B104;}
	.st5{fill:#EFAF00;}
</style>
<g id="JUICE">
	<path class="st0" d="M211.29,27.05c0,12.73-10.32,23.05-23.05,23.05c-12.73,0-23.05-10.32-23.05-23.05
		C165.19,14.32,175.51,4,188.24,4C200.97,4,211.29,14.32,211.29,27.05z"/>
	<path class="st1" d="M156.4,138.32c3.8-8.91,16.61-15.47,31.84-15.47c15.26,0,28.1,6.58,31.87,15.53l21.73,65.76
		c5.97,18.07-7.49,36.69-26.52,36.69h-54.13c-19.03,0-32.49-18.62-26.52-36.69L156.4,138.32z"/>
	<path class="st0" d="M215.31,240.84h-54.13c-19.03,0-32.49-18.62-26.52-36.69l30.54-92.45V27.05c0,12.73,10.32,23.05,23.05,23.05
		c12.73,0,23.05-10.32,23.05-23.05v84.65l30.54,92.45C247.8,222.22,234.34,240.84,215.31,240.84z"/>
	<g>
		<path class="st2" d="M196.63,212.5c-7.29,12.77-21.12,14.11-33.27,7.17c-12.15-6.94-18.02-19.54-10.73-32.3L196.63,212.5z"/>
		<path class="st3" d="M196.57,213.71c-5.66,10.2-21.59,13.4-33.83,6.56c-12.21-6.83-17.37-21.45-11.31-32.31"/>
		<path class="st4" d="M170.86,216.01c-0.13,0.71-0.86,1.13-1.49,0.88c-1.16-0.47-2.32-1.03-3.46-1.68
			c-1.14-0.65-2.21-1.36-3.21-2.13c-0.54-0.42-0.55-1.26,0-1.73l10.63-9.14L170.86,216.01z"/>
		<g>
			<path class="st4" d="M191.85,211.2c-1.06,1.49-2.24,2.74-3.53,3.76c-0.5,0.4-1.22,0.29-1.55-0.24l-7.69-12.24l12.46,7.12
				C192.1,209.91,192.24,210.66,191.85,211.2z"/>
			<path class="st4" d="M170.14,197.37l-14.43-0.39c-0.62-0.02-1.09-0.58-0.99-1.21c0.23-1.63,0.71-3.28,1.45-4.95
				c0.27-0.61,0.99-0.87,1.54-0.55L170.14,197.37z"/>
		</g>
		<g>
			<path class="st4" d="M183.42,217.66c-2.8,0.96-5.85,1.16-8.94,0.66c-0.57-0.09-0.96-0.63-0.86-1.23l2.31-14.27l8.09,13.18
				C184.39,216.6,184.1,217.43,183.42,217.66z"/>
			<path class="st4" d="M171.06,200.04l-10.98,9.13c-0.47,0.39-1.14,0.33-1.51-0.13c-1.89-2.39-3.19-5.07-3.73-7.92
				c-0.13-0.69,0.43-1.36,1.13-1.34L171.06,200.04z"/>
		</g>
	</g>
	<g>
		<circle class="st2" cx="190.39" cy="158.16" r="21.63"/>
		<circle class="st3" cx="190.39" cy="158.16" r="21.88"/>
		<g>
			<g>
				<path class="st5" d="M195.39,142.36l-4.1,12.29c-0.2,0.6-1.34,0.62-1.57,0.03l-4.93-12.21c-0.33-0.7,0.21-1.44,1.17-1.66
					c1.3-0.29,2.64-0.44,4.02-0.44c1.47,0,2.91,0.17,4.29,0.5C195.1,141.07,195.58,141.72,195.39,142.36z"/>
			</g>
			<g>
				<path class="st5" d="M195.39,174.75l-4.1-12.29c-0.2-0.6-1.34-0.62-1.57-0.03l-4.93,12.21c-0.33,0.7,0.21,1.44,1.17,1.66
					c1.3,0.29,2.64,0.44,4.02,0.44c1.47,0,2.91-0.17,4.29-0.5C195.1,176.04,195.58,175.39,195.39,174.75z"/>
			</g>
			<path class="st5" d="M208.97,158.43c0,1.11-0.09,2.21-0.26,3.27c-0.14,0.84-1.28,1.36-2.35,1.06l-12.33-3.76
				c-0.7-0.21-0.66-0.96,0.07-1.13l12.39-2.89c1.09-0.31,2.25,0.24,2.35,1.1C208.92,156.84,208.97,157.63,208.97,158.43z"/>
			<g>
				<path class="st5" d="M206,166.65c-1.02,2.11-2.4,4-4.05,5.59c-0.77,0.75-2.35,0.63-2.92-0.21l-6.61-10.07
					c-0.33-0.51,0.38-1.04,1.07-0.81l11.52,3.88C205.88,165.28,206.31,166,206,166.65z"/>
				<path class="st5" d="M206.16,151.7l-11.82,3.97c-0.68,0.23-1.38-0.28-1.09-0.79l6.36-10.84c0.53-0.86,2.11-1.03,2.91-0.3
					c1.94,1.76,3.53,3.92,4.63,6.36C207.45,150.75,207.01,151.45,206.16,151.7z"/>
			</g>
			<path class="st5" d="M172.53,158.43c0,1.11,0.09,2.21,0.26,3.27c0.14,0.84,1.28,1.36,2.35,1.06l12.33-3.76
				c0.7-0.21,0.66-0.96-0.07-1.13l-12.39-2.89c-1.09-0.31-2.25,0.24-2.35,1.1C172.58,156.84,172.53,157.63,172.53,158.43z"/>
			<g>
				<path class="st5" d="M175.01,166.65c1.02,2.11,2.4,4,4.05,5.59c0.77,0.75,2.35,0.63,2.92-0.21l6.61-10.07
					c0.33-0.51-0.38-1.04-1.07-0.81L176,165.02C175.13,165.28,174.7,166,175.01,166.65z"/>
				<path class="st5" d="M175.34,151.7l11.82,3.97c0.68,0.23,1.38-0.28,1.09-0.79l-6.36-10.84c-0.53-0.86-2.11-1.03-2.91-0.3
					c-1.94,1.76-3.53,3.92-4.63,6.36C174.05,150.75,174.49,151.45,175.34,151.7z"/>
			</g>
		</g>
	</g>
</g>
</svg>
