<?xml version="1.0" encoding="utf-8"?>
<!-- Generator: Adobe Illustrator 24.0.1, SVG Export Plug-In . SVG Version: 6.00 Build 0)  -->
<svg version="1.1" id="Layer_1" xmlns="http://www.w3.org/2000/svg" xmlns:xlink="http://www.w3.org/1999/xlink" x="0px" y="0px"
	 viewBox="0 0 376 244" style="enable-background:new 0 0 376 244;" xml:space="preserve">
<style type="text/css">
	.st0{fill:#FFFFFF;stroke:#B2DDDA;stroke-width:4;stroke-miterlimit:10;}
	.st1{fill:none;stroke:#B2DDDA;stroke-width:4;stroke-miterlimit:10;}
	.st2{fill:#573240;}
	.st3{fill:#F1B104;}
</style>
<g id="COFFEE">
	<g>
		<ellipse class="st0" cx="106.17" cy="143.83" rx="99.89" ry="96.23"/>
		<path class="st0" d="M53.55,48.55v74.55c0,25.97,21.05,47.02,47.02,47.02h11.2c25.97,0,47.02-21.05,47.02-47.02V48.55H53.55z"/>
		<ellipse class="st0" cx="106.17" cy="48.55" rx="52.62" ry="43.2"/>
		<circle class="st1" cx="177.16" cy="75" r="18.49"/>
		<path class="st2" d="M154.6,59.61c-6.1,17.24-25.49,29.83-48.44,29.83c-23.21,0-42.75-12.86-48.63-30.38
			c12.58-11.88,29.56-19.17,48.24-19.17C124.76,39.89,141.96,47.4,154.6,59.61z"/>
	</g>
	<path class="st3" d="M371.27,184.3c0.16,1.62-1.09,2.98-2.68,2.98h-152.6c-7.49,0-14.52,3.45-19.25,9.25
		c-4.97,6.1-13.65,10.14-23.52,10.14c-15.44,0-27.95-9.89-27.95-22.09c0-12.2,12.51-22.09,27.95-22.09
		c9.87,0,18.54,4.04,23.52,10.14c4.73,5.81,11.76,9.25,19.25,9.25h152.45C369.85,181.89,371.13,182.9,371.27,184.3z"/>
</g>
</svg>
