<?xml version="1.0" encoding="utf-8"?>
<!-- Generator: Adobe Illustrator 24.0.1, SVG Export Plug-In . SVG Version: 6.00 Build 0)  -->
<svg version="1.1" id="Layer_1" xmlns="http://www.w3.org/2000/svg" xmlns:xlink="http://www.w3.org/1999/xlink" x="0px" y="0px"
	 viewBox="0 0 376 244" style="enable-background:new 0 0 376 244;" xml:space="preserve">
<style type="text/css">
	.st0{fill:#B2DDDA;}
	.st1{fill:#F1B104;}
	.st2{fill:none;stroke:#B2DDDA;stroke-width:4;stroke-miterlimit:10;}
	.st3{fill:#FFFFFF;stroke:#B2DDDA;stroke-width:4;stroke-miterlimit:10;}
	.st4{fill:#FCD4D0;}
	.st5{fill:#573240;}
</style>
<g id="ICE_CREAM">
	<circle class="st0" cx="148.58" cy="142.98" r="33.47"/>
	<circle class="st1" cx="223.56" cy="156.2" r="31.53"/>
	<path class="st2" d="M273.84,121.89c0,23.39-38.6,42.36-86.22,42.36c-47.62,0-86.21-18.97-86.21-42.36c0-0.14,0-0.27,0.01-0.41
		c0.45-23.21,38.87-41.94,86.2-41.94c47.34,0,85.76,18.74,86.21,41.94C273.84,121.62,273.84,121.75,273.84,121.89z"/>
	<path class="st3" d="M224.99,229.67c-6.58,5.5-20.83,9.33-37.37,9.33c-16.54,0-30.8-3.82-37.37-9.33l7.46-17.98l0.37-0.89
		c9.22,3.36,19.16,5.19,29.54,5.19c10.38,0,20.32-1.83,29.54-5.19l0.37,0.89L224.99,229.67z"/>
	<circle class="st4" cx="195.42" cy="96.27" r="30.75"/>
	<path class="st5" d="M116.65,4.35c1.2-0.73,2.73-0.27,3.33,0.97l57.21,118.93c2.81,5.84,8.13,10.02,14.43,11.54
		c6.62,1.59,13.02,6.83,16.72,14.53c5.79,12.04,2.77,25.49-6.73,30.07c-9.51,4.57-21.9-1.47-27.69-13.51
		c-3.7-7.69-3.8-15.97-0.91-22.13c2.75-5.87,2.8-12.64-0.01-18.47L115.83,7.46C115.3,6.36,115.61,4.99,116.65,4.35z"/>
	<path class="st3" d="M273.84,121.89v7.89c0,37.24-23.61,68.97-56.69,81.02c-9.22,3.36-19.16,5.19-29.54,5.19
		c-10.38,0-20.32-1.83-29.54-5.19c-33.07-12.05-56.68-43.78-56.68-81.02v-7.89c0,23.39,38.59,42.37,86.21,42.37
		C235.24,164.26,273.84,145.28,273.84,121.89z"/>
</g>
</svg>
