<?xml version="1.0" encoding="utf-8"?>
<!-- Generator: Adobe Illustrator 24.0.1, SVG Export Plug-In . SVG Version: 6.00 Build 0)  -->
<svg version="1.1" id="Layer_1" xmlns="http://www.w3.org/2000/svg" xmlns:xlink="http://www.w3.org/1999/xlink" x="0px" y="0px"
	 viewBox="0 0 376 244" style="enable-background:new 0 0 376 244;" xml:space="preserve">
<style type="text/css">
	.st0{fill:#B2DDDA;}
	.st1{fill:#FFFFFF;}
	.st2{fill:#FF6E00;}
	.st3{fill:#FCD4D0;}
	.st4{fill:#F1B104;}
	.st5{fill:#573240;}
</style>
<g id="CHEESECAKE">
	<ellipse class="st0" cx="187.86" cy="126.7" rx="137.05" ry="107.53"/>
	<g>
		<path class="st1" d="M297.29,167.18H98.95c-4.17,0-7.54-3.38-7.54-7.54V121.8h205.88V167.18z"/>
		<path class="st2" d="M297.29,121.8H91.41c0,0,24.34-52.36,99.23-66.54L297.29,121.8z"/>
		<g>
			<circle class="st3" cx="172.77" cy="60.88" r="8.73"/>
			<path class="st4" d="M102.69,71.7c9.13-5.73,21.34-4.21,28.82,4.11c1.16,1.3,2.15,2.66,2.95,4.14c-9.12,5.75-21.33,4.23-28.8-4.1
				C104.49,74.56,103.51,73.16,102.69,71.7z"/>
			<circle class="st5" cx="136.83" cy="65.4" r="15.02"/>
			<path class="st4" d="M167.44,46.59c1.7,10.65-4.48,21.29-15.07,24.91c-1.65,0.56-3.29,0.93-4.96,1.09
				c-1.72-10.64,4.46-21.28,15.05-24.9C164.11,47.12,165.78,46.77,167.44,46.59z"/>
			<circle class="st5" cx="112.31" cy="91.88" r="13.14"/>
			<circle class="st5" cx="156.1" cy="73.95" r="9.43"/>
			<circle class="st3" cx="142.42" cy="80.42" r="9.43"/>
			<circle class="st3" cx="134.46" cy="100.89" r="7.57"/>
			<circle class="st5" cx="177.02" cy="88.87" r="8.54"/>
		</g>
	</g>
</g>
</svg>
