<svg width="688" height="288" viewBox="0 0 688 288" fill="none" xmlns="http://www.w3.org/2000/svg">
<path d="M634.203 204.226H625.384L611.121 80.0774H619.939L634.203 204.226Z" fill="#FF6E00"/>
<path d="M620.957 88.9247L613.152 97.7423L612.651 93.3835L620.457 84.5659L620.957 88.9247Z" fill="white"/>
<path d="M622.219 99.9045L614.413 108.722L613.912 104.363L621.718 95.5457L622.219 99.9045Z" fill="white"/>
<path d="M623.479 110.884L615.675 119.702L615.174 115.343L622.98 106.525L623.479 110.884Z" fill="white"/>
<path d="M624.742 121.864L616.936 130.682L616.435 126.323L624.24 117.505L624.742 121.864Z" fill="white"/>
<path d="M626.002 132.844L618.198 141.66L617.697 137.303L625.503 128.485L626.002 132.844Z" fill="white"/>
<path d="M627.264 143.824L619.458 152.64L618.957 148.282L626.763 139.465L627.264 143.824Z" fill="white"/>
<path d="M628.526 154.803L620.721 163.619L620.22 159.262L628.025 150.445L628.526 154.803Z" fill="white"/>
<path d="M629.787 165.782L621.981 174.599L621.482 170.242L629.286 161.425L629.787 165.782Z" fill="white"/>
<path d="M631.049 176.761L623.243 185.579L622.742 181.22L630.548 172.404L631.049 176.761Z" fill="white"/>
<path d="M632.31 187.741L624.504 196.558L624.005 192.2L631.809 183.384L632.31 187.741Z" fill="white"/>
<path d="M678.295 204.227L663.723 332.063C662.912 339.121 656.94 344.448 649.839 344.448H602.267C595.165 344.448 589.193 339.121 588.382 332.063L573.724 204.227H678.295Z" fill="#A9D8D5"/>
<path d="M633.573 198.72L628.698 204.227H625.386L625.266 203.179L633.072 194.363L633.573 198.72Z" fill="white"/>
<path d="M680.78 183.591L663.723 332.062C662.912 339.121 656.94 344.449 649.839 344.449H602.265C595.164 344.449 589.192 339.121 588.381 332.062L571.324 183.591H680.78Z" stroke="#A9D8D5" stroke-miterlimit="10"/>
<path d="M613.623 260.995L659.042 228.393C664.867 241.104 661.537 256.192 650.342 264.228C639.146 272.265 623.791 270.587 613.623 260.995Z" fill="#F1B104"/>
<path d="M642.561 264.136L638.518 247.676L652.793 256.767C651.491 258.416 649.943 259.909 648.161 261.188C646.4 262.452 644.516 263.432 642.561 264.136Z" fill="#FF6E00"/>
<path d="M640.268 245.364L657.889 241.45C657.945 245.903 656.837 250.275 654.63 254.066L640.268 245.364Z" fill="#FF6E00"/>
<path d="M626.399 264.099L635.8 248.57L639.448 265.015C635.135 265.917 630.619 265.579 626.399 264.099Z" fill="#FF6E00"/>
<path d="M622.596 262.408C620.658 261.351 618.825 260.028 617.157 258.456L632.864 247.183L622.596 262.408Z" fill="#FF6E00"/>
<path d="M639.638 242.32L655.506 230.93C656.471 233.034 657.139 235.217 657.515 237.417L639.638 242.32Z" fill="#FF6E00"/>
<path d="M678.134 175.105H573.97C569.286 175.105 565.489 178.904 565.489 183.591H686.615C686.615 178.904 682.818 175.105 678.134 175.105Z" stroke="#573240" stroke-miterlimit="10" stroke-linecap="round"/>
<path d="M678.379 175.105C673.335 153.595 654.156 138.387 632.073 138.387H620.031C597.948 138.387 578.769 153.595 573.725 175.105H678.379V175.105Z" stroke="#573240" stroke-miterlimit="10" stroke-linecap="round"/>
<path d="M656.301 302.793H642.022C639.754 302.793 637.917 300.954 637.917 298.685V284.4C637.917 282.131 639.754 280.292 642.022 280.292H656.301C658.568 280.292 660.406 282.131 660.406 284.4V298.685C660.406 300.954 658.568 302.793 656.301 302.793Z" fill="#E0F1F0"/>
<path d="M617.441 247.339C618.785 247.339 619.874 246.248 619.874 244.904C619.874 243.559 618.785 242.469 617.441 242.469C616.097 242.469 615.007 243.559 615.007 244.904C615.007 246.248 616.097 247.339 617.441 247.339Z" stroke="white" stroke-miterlimit="10"/>
<path d="M604.639 282.964C605.983 282.964 607.073 281.874 607.073 280.529C607.073 279.185 605.983 278.095 604.639 278.095C603.295 278.095 602.206 279.185 602.206 280.529C602.206 281.874 603.295 282.964 604.639 282.964Z" stroke="white" stroke-miterlimit="10"/>
<path d="M598.762 227.297C600.664 227.297 602.206 225.755 602.206 223.851C602.206 221.948 600.664 220.406 598.762 220.406C596.859 220.406 595.318 221.948 595.318 223.851C595.318 225.755 596.859 227.297 598.762 227.297Z" stroke="white" stroke-miterlimit="10"/>
<path d="M657.343 262.797C659.245 262.797 660.787 261.254 660.787 259.351C660.787 257.448 659.245 255.906 657.343 255.906C655.441 255.906 653.899 257.448 653.899 259.351C653.899 261.254 655.441 262.797 657.343 262.797Z" stroke="white" stroke-miterlimit="10"/>
<path d="M629.38 284.492C630.474 284.492 631.36 283.605 631.36 282.511C631.36 281.417 630.474 280.53 629.38 280.53C628.286 280.53 627.4 281.417 627.4 282.511C627.4 283.605 628.286 284.492 629.38 284.492Z" stroke="white" stroke-miterlimit="10"/>
<path d="M662.123 267.58C662.836 267.58 663.414 267.001 663.414 266.288C663.414 265.574 662.836 264.995 662.123 264.995C661.41 264.995 660.831 265.574 660.831 266.288C660.831 267.001 661.41 267.58 662.123 267.58Z" stroke="white" stroke-miterlimit="10"/>
<path d="M648.811 225.073C650 225.073 650.964 224.108 650.964 222.919C650.964 221.73 650 220.765 648.811 220.765C647.622 220.765 646.659 221.73 646.659 222.919C646.659 224.108 647.622 225.073 648.811 225.073Z" stroke="white" stroke-miterlimit="10"/>
<path d="M592.254 232.316C592.968 232.316 593.546 231.738 593.546 231.024C593.546 230.31 592.968 229.732 592.254 229.732C591.541 229.732 590.963 230.31 590.963 231.024C590.963 231.738 591.541 232.316 592.254 232.316Z" stroke="white" stroke-miterlimit="10"/>
<path d="M593.546 272.572C594.259 272.572 594.837 271.993 594.837 271.28C594.837 270.566 594.259 269.988 593.546 269.988C592.833 269.988 592.254 270.566 592.254 271.28C592.254 271.993 592.833 272.572 593.546 272.572Z" stroke="white" stroke-miterlimit="10"/>
<path d="M428.267 14.3647V44.6818H414.993V13.9393H350.088V44.6818H336.815V14.3647L350.62 0.551025H414.459L428.267 14.3647Z" fill="#573240"/>
<path d="M422.929 44.683V14.3642L409.122 0.550293H345.282L331.477 14.3642V44.683H278.374L243.934 344.45H475.491V44.683H422.929ZM409.656 44.683H344.75V13.9386H409.656V44.683Z" fill="#F1B104"/>
<path d="M516.991 344.449H475.491V44.6816H482.551L516.991 344.449Z" fill="#573240"/>
<path d="M415.404 143.854C415.404 166.458 401.452 185.632 382.118 192.356V155.604C382.118 152.265 383.767 149.133 386.545 147.022C389.464 144.805 391.396 140.939 391.396 136.541C391.396 129.656 386.664 124.081 380.828 124.081C374.992 124.081 370.26 129.656 370.26 136.541C370.26 140.939 372.192 144.805 375.111 147.022C377.888 149.133 379.538 152.265 379.538 155.604V193.171C375.502 194.317 371.259 194.927 366.88 194.927C362.532 194.927 358.318 194.325 354.307 193.195V160.485C354.307 157.146 355.957 154.014 358.735 151.903C360.357 150.671 361.676 148.926 362.526 146.866C363.205 145.222 363.585 143.375 363.585 141.423V125.371C363.585 124.658 363.009 124.081 362.296 124.081H362.294C361.583 124.081 361.004 124.658 361.004 125.371V142.774C361.004 143.699 360.631 144.536 360.024 145.143C359.418 145.749 358.581 146.125 357.657 146.125C355.807 146.125 354.307 144.624 354.307 142.774V125.371C354.307 125.015 354.163 124.693 353.93 124.458C353.696 124.226 353.374 124.081 353.018 124.081C352.305 124.081 351.728 124.658 351.728 125.371V142.774C351.728 144.624 350.23 146.125 348.38 146.125H348.379C346.529 146.125 345.029 144.624 345.029 142.774V125.371C345.029 125.015 344.885 124.693 344.652 124.458C344.418 124.226 344.096 124.081 343.739 124.081C343.027 124.081 342.45 124.658 342.45 125.371V141.423C342.45 143.375 342.83 145.222 343.509 146.866C344.359 148.926 345.677 150.671 347.299 151.903C350.078 154.014 351.728 157.146 351.728 160.485V192.387C332.348 185.689 318.355 166.491 318.355 143.854C318.355 115.648 340.08 92.78 366.88 92.78C393.679 92.78 415.404 115.648 415.404 143.854Z" fill="white"/>
<path d="M331.476 14.1924H422.928" stroke="#573240" stroke-miterlimit="10" stroke-linecap="round"/>
<path d="M538.953 292.372L520.255 254.8C515.885 246.019 506.925 240.468 497.12 240.468H375.6C365.795 240.468 356.836 246.019 352.465 254.8L333.768 292.372H538.953Z" fill="#F1B104" stroke="#573240" stroke-miterlimit="10" stroke-linecap="round"/>
<path d="M503.287 304.172C493.603 314.514 481.088 318.526 471.939 309.951C462.79 301.375 465.976 288.62 475.66 278.277C485.344 267.935 501.067 263.545 508.696 270.695C516.325 277.846 512.971 293.83 503.287 304.172Z" fill="white"/>
<path d="M498.378 296C499.637 289.568 495.446 283.333 489.018 282.073C482.589 280.814 476.357 285.006 475.098 291.438C473.839 297.87 478.03 304.105 484.458 305.365C490.887 306.624 497.119 302.432 498.378 296Z" fill="#F1B104"/>
<path d="M611.538 283.653C614.978 294.607 612.826 305.04 603.135 308.087C593.445 311.133 585.716 303.806 582.275 292.851C578.835 281.897 581.997 269.047 590.078 266.507C598.158 263.967 608.097 272.698 611.538 283.653Z" fill="white"/>
<path d="M604.38 297.941C608.133 294.186 608.133 288.098 604.38 284.343C600.627 280.588 594.542 280.588 590.788 284.343C587.035 288.098 587.035 294.186 590.788 297.941C594.542 301.696 600.627 301.696 604.38 297.941Z" fill="#F1B104"/>
<path d="M425.169 305.76L383.316 282.674C390.323 274.694 402.694 272.613 413.011 278.303C423.327 283.994 428.173 295.572 425.169 305.76Z" fill="#FF6E00"/>
<path d="M409.583 288.532C408.853 289.857 405.564 291.82 405.564 291.82C405.564 291.82 405.467 287.989 406.198 286.664C406.928 285.339 408.277 284.683 409.212 285.199C410.147 285.714 410.313 287.206 409.583 288.532Z" stroke="#573240" stroke-miterlimit="10" stroke-linecap="round" stroke-linejoin="round"/>
<path d="M398.22 286.674C398.859 288.045 402.008 290.226 402.008 290.226C402.008 290.226 402.363 286.411 401.724 285.04C401.085 283.668 399.783 282.923 398.815 283.374C397.848 283.825 397.581 285.303 398.22 286.674Z" stroke="#573240" stroke-miterlimit="10" stroke-linecap="round" stroke-linejoin="round"/>
<path d="M539.383 297.773L574.077 268.094C578.796 277.159 576.457 289.011 567.905 296.327C559.353 303.643 547.421 303.999 539.383 297.773Z" fill="#FF6E00"/>
<path d="M559.975 289.705C559.044 288.59 558.413 284.951 558.413 284.951C558.413 284.951 561.851 286.189 562.781 287.304C563.712 288.419 563.838 289.861 563.063 290.524C562.288 291.187 560.905 290.82 559.975 289.705Z" stroke="#573240" stroke-miterlimit="10" stroke-linecap="round" stroke-linejoin="round"/>
<path d="M552.532 291.194C552.87 289.778 555.397 287.125 555.397 287.125C555.397 287.125 556.446 290.664 556.108 292.08C555.77 293.496 554.696 294.446 553.708 294.201C552.721 293.956 552.194 292.61 552.532 291.194Z" stroke="#573240" stroke-miterlimit="10" stroke-linecap="round" stroke-linejoin="round"/>
<path d="M565.474 280.123C564.039 280.223 561.034 282.303 561.034 282.303C561.034 282.303 564.305 283.941 565.74 283.841C567.175 283.74 568.279 282.826 568.206 281.799C568.133 280.773 566.909 280.022 565.474 280.123Z" stroke="#573240" stroke-miterlimit="10" stroke-linecap="round" stroke-linejoin="round"/>
<path d="M478.882 298.422C478.882 298.422 465.569 292.316 466.176 274.244C466.783 256.171 482.923 250.4 485.94 256.051C487.923 259.765 485.597 264.382 479.134 266.771C471.814 269.477 467.46 271.735 468.518 280.349C469.474 288.133 473.075 294.018 478.882 298.422Z" fill="#A9D8D5"/>
<path d="M478.881 298.422C478.881 298.422 463.55 288.057 469.241 271.167C473.977 257.11 483.386 258.343 483.386 258.343" stroke="#573240" stroke-miterlimit="10" stroke-linecap="round" stroke-linejoin="round"/>
<path d="M471.68 265.79C472.667 264.394 473.549 262.072 473.085 259.327" stroke="#573240" stroke-miterlimit="10" stroke-linecap="round" stroke-linejoin="round"/>
<path d="M447.882 304.108C455.674 304.108 461.991 297.788 461.991 289.992C461.991 282.196 455.674 275.876 447.882 275.876C440.09 275.876 433.773 282.196 433.773 289.992C433.773 297.788 440.09 304.108 447.882 304.108Z" fill="#A9D8D5"/>
<path d="M449.995 284.576C449.858 285.621 448.224 287.73 448.224 287.73C448.224 287.73 447.188 285.271 447.325 284.226C447.462 283.181 448.171 282.413 448.908 282.509C449.645 282.606 450.131 283.532 449.995 284.576Z" stroke="#573240" stroke-miterlimit="10" stroke-linecap="round" stroke-linejoin="round"/>
<path d="M442.409 288.005C443.453 288.142 445.561 289.777 445.561 289.777C445.561 289.777 443.103 290.813 442.059 290.676C441.014 290.539 440.246 289.83 440.343 289.093C440.439 288.355 441.364 287.868 442.409 288.005Z" stroke="#573240" stroke-miterlimit="10" stroke-linecap="round" stroke-linejoin="round"/>
<path d="M353.12 301.651C357.749 301.651 361.501 297.896 361.501 293.266C361.501 288.635 357.749 284.88 353.12 284.88C348.491 284.88 344.739 288.635 344.739 293.266C344.739 297.896 348.491 301.651 353.12 301.651Z" fill="white"/>
<path d="M383.614 292.397C380.176 292.282 376.352 291.264 372.07 289.768C354.999 283.8 355.104 268.301 360.56 266.994C364.831 265.969 368.04 270.017 368.392 276.906C368.794 284.707 370.226 290.227 378.764 291.785C380.388 292.08 382.011 292.29 383.614 292.397Z" fill="#A9D8D5"/>
<path d="M386.025 292.433C381.175 292.701 375.586 291.714 370.115 287.873C361.123 281.559 361.493 269.964 361.493 269.964" stroke="#573240" stroke-miterlimit="10" stroke-linecap="round" stroke-linejoin="round"/>
<path d="M384.848 292.222C385.48 292.325 375.25 291.392 372.456 282.479C370.376 275.846 375.526 274.309 377.592 276.396C379.894 278.722 378.103 285.103 381.025 289.335C381.873 290.562 381.757 291.714 384.848 292.222Z" fill="#A9D8D5"/>
<path d="M375.723 278.359C375.723 278.359 374.219 289.62 386.025 292.433" stroke="#573240" stroke-miterlimit="10" stroke-linecap="round" stroke-linejoin="round"/>
<path d="M530.603 292.655C529.855 292.809 529.197 292.775 528.609 292.6C534.134 290.1 535.985 284.671 537.303 277.583C538.849 269.262 543.546 264.836 548.774 266.74C555.453 269.171 553.107 288.032 530.603 292.655Z" fill="#A9D8D5"/>
<path d="M510.053 295.152C516.202 295.752 527.068 294.857 534.246 290.46C546.041 283.233 546.059 270.266 546.059 270.266" stroke="#573240" stroke-miterlimit="10" stroke-linecap="round" stroke-linejoin="round"/>
<path d="M511.562 294.96C510.752 295.051 523.81 294.481 527.879 283.725C530.908 275.72 524.45 273.55 521.704 275.99C518.642 278.71 520.549 286.621 516.588 291.639C515.44 293.094 515.52 294.511 511.562 294.96Z" fill="#A9D8D5"/>
<path d="M523.966 278.499C523.966 278.499 525.224 292.369 510.053 295.152" stroke="#573240" stroke-miterlimit="10" stroke-linecap="round" stroke-linejoin="round"/>
<path d="M621.781 292.372L603.083 254.8C598.713 246.019 589.753 240.468 579.948 240.468H497.12C506.925 240.468 515.885 246.019 520.255 254.8L538.953 292.372H621.781Z" stroke="#573240" stroke-miterlimit="10" stroke-linecap="round"/>
<path d="M538.953 292.372L520.255 254.8C515.885 246.019 506.925 240.468 497.12 240.468H375.6C365.795 240.468 356.836 246.019 352.465 254.8L333.768 292.372H538.953Z" stroke="#573240" stroke-miterlimit="10" stroke-linecap="round"/>
<path d="M459.5 240.468H399.95V269.057H459.5V240.468Z" fill="#573240"/>
<path d="M434.988 258.975H429.863V253.848C429.863 248.525 434.176 244.21 439.496 244.21H444.621V249.338C444.621 254.66 440.308 258.975 434.988 258.975Z" stroke="#A9D8D5" stroke-miterlimit="10"/>
<path d="M444.621 244.21L426.473 262.367" stroke="#A9D8D5" stroke-miterlimit="10"/>
<path d="M439.123 244.383V249.711H444.449" stroke="#A9D8D5" stroke-miterlimit="10"/>
<path d="M434.072 245.967V254.765H442.865" stroke="#A9D8D5" stroke-miterlimit="10"/>
<path d="M425.528 259.346H426.873V258C426.873 252.678 422.561 248.363 417.241 248.363H415.896V249.709C415.896 255.031 420.209 259.346 425.528 259.346Z" stroke="#A9D8D5" stroke-miterlimit="10"/>
<path d="M415.896 248.364L428.183 260.657" stroke="#A9D8D5" stroke-miterlimit="10"/>
<path d="M422.882 250.187V255.353H417.718" stroke="#A9D8D5" stroke-miterlimit="10"/>
<path d="M560.322 201.686L547.097 228.262C543.512 235.465 536.164 240.017 528.122 240.017H493.064C501.105 240.017 508.454 235.464 512.038 228.262L525.263 201.686H560.322Z" fill="#573240"/>
<path d="M525.264 201.686L523.857 204.512L512.039 228.262C508.454 235.465 501.106 240.017 493.064 240.017H442.829C434.788 240.017 427.439 235.464 423.855 228.262L412.036 204.512L410.63 201.686H525.264Z" fill="#FF6E00"/>
<path d="M525.263 201.686L523.196 205.884H412.753L410.629 201.686H525.263Z" fill="#573240"/>
<path d="M565.277 201.686L549.381 169.744C545.665 162.279 538.049 157.56 529.713 157.56H493.31C501.645 157.56 509.262 162.279 512.978 169.744L528.874 201.686H565.277Z" fill="#FCD4D0"/>
<path d="M528.873 201.686L512.978 169.744C509.262 162.279 501.645 157.56 493.31 157.56H441.238C432.902 157.56 425.285 162.279 421.57 169.744L405.674 201.686H528.873Z" fill="white"/>
<path d="M255.766 169.262L244.047 271.279H84.4175L96.4405 166.619H253.411C254.828 166.619 255.928 167.854 255.766 169.262Z" fill="#F6ACC1"/>
<path d="M231.669 166.619C229.775 166.619 228.183 168.04 227.966 169.922L226.755 180.465C225.81 188.691 218.849 194.901 210.572 194.901H83.7358C74.0026 194.901 66.4416 186.417 67.5532 176.743L68.4259 169.147C68.5913 167.706 69.8107 166.619 71.2603 166.619H231.669Z" fill="#FCD4D0"/>
<path d="M182.258 341.999C209.71 341.999 231.964 319.294 231.964 291.286C231.964 263.279 209.71 240.574 182.258 240.574C154.807 240.574 132.552 263.279 132.552 291.286C132.552 319.294 154.807 341.999 182.258 341.999Z" fill="#573240"/>
<path d="M173.477 240.573C146.024 240.573 123.769 263.279 123.769 291.286C123.769 319.294 146.024 341.998 173.477 341.998C200.929 341.998 223.182 319.294 223.182 291.286C223.182 263.279 200.929 240.573 173.477 240.573ZM173.477 308.737C164.235 308.737 156.744 301.092 156.744 291.665C156.744 282.237 164.235 274.593 173.477 274.593C182.717 274.593 190.209 282.237 190.209 291.665C190.209 301.092 182.717 308.737 173.477 308.737Z" fill="#A9D8D5"/>
<path d="M180.816 249.531H176.573C176.099 249.531 175.716 249.147 175.716 248.674V248.615C175.716 248.141 176.099 247.758 176.573 247.758H180.816C181.289 247.758 181.673 248.141 181.673 248.615V248.674C181.673 249.147 181.289 249.531 180.816 249.531Z" fill="white"/>
<path d="M187.655 267.675H183.412C182.938 267.675 182.554 267.291 182.554 266.817V266.759C182.554 266.285 182.938 265.901 183.412 265.901H187.655C188.128 265.901 188.512 266.285 188.512 266.759V266.817C188.512 267.291 188.128 267.675 187.655 267.675Z" fill="#573240"/>
<path d="M152.25 256.855L148.663 259.122C148.262 259.375 147.733 259.255 147.48 258.855L147.449 258.805C147.196 258.405 147.316 257.875 147.716 257.622L151.304 255.356C151.704 255.103 152.233 255.223 152.486 255.623L152.517 255.673C152.77 256.073 152.65 256.603 152.25 256.855Z" fill="white"/>
<path d="M207.508 265.493L205.193 269.05C204.934 269.447 204.404 269.559 204.007 269.301L203.958 269.269C203.561 269.01 203.449 268.479 203.707 268.082L206.023 264.525C206.281 264.128 206.812 264.016 207.209 264.274L207.258 264.307C207.654 264.565 207.766 265.096 207.508 265.493Z" fill="white"/>
<path d="M172.031 264.985L168.444 267.252C168.044 267.505 167.514 267.385 167.262 266.985L167.23 266.935C166.977 266.535 167.097 266.005 167.497 265.752L171.085 263.486C171.485 263.233 172.014 263.353 172.267 263.753L172.298 263.803C172.551 264.203 172.432 264.733 172.031 264.985Z" fill="white"/>
<path d="M162.985 253.204L160.512 249.755C160.236 249.37 160.324 248.834 160.709 248.558L160.756 248.524C161.141 248.248 161.676 248.336 161.952 248.721L164.426 252.17C164.702 252.555 164.614 253.091 164.229 253.367L164.181 253.401C163.797 253.677 163.261 253.589 162.985 253.204Z" fill="#573240"/>
<path d="M197.332 266.43L194.858 262.981C194.582 262.596 194.67 262.06 195.055 261.784L195.103 261.75C195.487 261.474 196.023 261.562 196.299 261.947L198.772 265.396C199.048 265.781 198.96 266.317 198.575 266.593L198.528 266.627C198.143 266.903 197.608 266.815 197.332 266.43Z" fill="#FF6E00"/>
<path d="M144.03 267.772L140.731 265.102C140.363 264.804 140.306 264.265 140.603 263.896L140.64 263.851C140.938 263.482 141.477 263.425 141.845 263.723L145.144 266.393C145.512 266.691 145.57 267.23 145.272 267.599L145.235 267.644C144.937 268.012 144.398 268.07 144.03 267.772Z" fill="#FF6E00"/>
<path d="M195.211 255.702L191.912 253.032C191.544 252.735 191.487 252.195 191.785 251.827L191.822 251.781C192.12 251.413 192.659 251.356 193.027 251.653L196.326 254.323C196.694 254.621 196.751 255.161 196.454 255.529L196.417 255.575C196.119 255.943 195.579 256 195.211 255.702Z" fill="white"/>
<path d="M156.422 266.74L157.145 262.557C157.225 262.091 157.669 261.777 158.135 261.858L158.193 261.868C158.66 261.949 158.972 262.392 158.892 262.859L158.169 267.042C158.089 267.509 157.645 267.822 157.179 267.741L157.121 267.731C156.655 267.651 156.342 267.207 156.422 266.74Z" fill="#F1B104"/>
<path d="M151.273 281.532L151.995 277.349C152.075 276.882 152.519 276.569 152.985 276.65L153.043 276.66C153.51 276.74 153.822 277.184 153.742 277.651L153.019 281.834C152.939 282.3 152.495 282.613 152.029 282.533L151.971 282.523C151.505 282.442 151.192 281.998 151.273 281.532Z" fill="#F1B104"/>
<path d="M170.333 256.61L173.666 253.983C174.038 253.69 174.576 253.754 174.87 254.126L174.906 254.172C175.199 254.544 175.135 255.083 174.763 255.376L171.43 258.003C171.059 258.296 170.52 258.233 170.227 257.861L170.19 257.815C169.897 257.442 169.961 256.903 170.333 256.61Z" fill="#FF6E00"/>
<path d="M183.648 258.549L184.371 254.365C184.451 253.899 184.895 253.586 185.361 253.666L185.419 253.676C185.885 253.757 186.198 254.201 186.117 254.667L185.395 258.851C185.314 259.317 184.871 259.63 184.404 259.55L184.347 259.54C183.88 259.459 183.568 259.015 183.648 258.549Z" fill="#F1B104"/>
<path d="M214.575 291.08L214.888 286.846C214.923 286.374 215.334 286.02 215.806 286.055L215.865 286.059C216.337 286.094 216.691 286.505 216.656 286.977L216.343 291.211C216.308 291.683 215.897 292.038 215.425 292.003L215.367 291.999C214.895 291.963 214.54 291.552 214.575 291.08Z" fill="white"/>
<path d="M191.181 277.752L191.494 273.518C191.529 273.046 191.94 272.692 192.412 272.727L192.47 272.731C192.942 272.766 193.297 273.177 193.262 273.649L192.948 277.883C192.914 278.355 192.503 278.71 192.03 278.675L191.972 278.67C191.5 278.635 191.146 278.224 191.181 277.752Z" fill="white"/>
<path d="M210.695 277.975L214.802 276.91C215.261 276.791 215.728 277.066 215.847 277.525L215.862 277.582C215.981 278.04 215.705 278.508 215.247 278.627L211.14 279.692C210.682 279.811 210.214 279.535 210.095 279.077L210.081 279.02C209.962 278.562 210.237 278.094 210.695 277.975Z" fill="#FF6E00"/>
<path d="M196.293 282.838L200.401 281.773C200.859 281.654 201.327 281.93 201.446 282.388L201.46 282.445C201.579 282.903 201.304 283.371 200.846 283.49L196.738 284.555C196.28 284.674 195.812 284.399 195.694 283.94L195.679 283.883C195.56 283.425 195.835 282.957 196.293 282.838Z" fill="#FF6E00"/>
<path d="M135.99 273.608L140.202 274.122C140.672 274.179 141.006 274.607 140.949 275.077L140.942 275.135C140.884 275.605 140.457 275.939 139.988 275.882L135.776 275.369C135.306 275.311 134.971 274.884 135.029 274.414L135.036 274.356C135.093 273.886 135.52 273.551 135.99 273.608Z" fill="white"/>
<path d="M143.525 281.713L141.518 285.454C141.295 285.871 140.775 286.028 140.358 285.804L140.306 285.776C139.889 285.552 139.732 285.033 139.956 284.615L141.963 280.875C142.187 280.458 142.706 280.301 143.123 280.525L143.175 280.552C143.592 280.776 143.749 281.296 143.525 281.713Z" fill="#FF6E00"/>
<path d="M133.65 287.156L132.707 291.295C132.602 291.757 132.143 292.046 131.681 291.94L131.624 291.927C131.162 291.822 130.874 291.362 130.979 290.901L131.922 286.762C132.027 286.3 132.487 286.011 132.948 286.116L133.005 286.129C133.467 286.235 133.756 286.694 133.65 287.156Z" fill="white"/>
<path d="M70.4693 217.202C41.6913 217.202 18.3616 241.005 18.3616 270.364C18.3616 299.725 41.6913 323.528 70.4693 323.528C99.2474 323.528 122.577 299.725 122.577 270.364C122.577 241.005 99.2474 217.202 70.4693 217.202ZM70.4693 286.87C61.7505 286.87 54.681 279.659 54.681 270.762C54.681 261.865 61.7507 254.653 70.4693 254.653C79.1897 254.653 86.2592 261.865 86.2592 270.762C86.2592 279.659 79.1897 286.87 70.4693 286.87Z" fill="#573240"/>
<path d="M63.4092 217.202C34.6311 217.202 11.3014 241.005 11.3014 270.364C11.3014 299.725 34.6311 323.528 63.4092 323.528C92.1872 323.528 115.517 299.725 115.517 270.364C115.517 241.005 92.1872 217.202 63.4092 217.202ZM63.4092 288.658C53.7229 288.658 45.8689 280.646 45.8689 270.762C45.8689 260.878 53.7229 252.865 63.4092 252.865C73.0971 252.865 80.9512 260.878 80.9512 270.762C80.9512 280.646 73.0971 288.658 63.4092 288.658Z" fill="#FF6E00"/>
<path d="M70.3342 228.154H65.6829C65.2096 228.154 64.8259 227.77 64.8259 227.296V227.116C64.8259 226.643 65.2096 226.259 65.6829 226.259H70.3344C70.8078 226.259 71.1914 226.643 71.1914 227.116V227.296C71.1913 227.77 70.8076 228.154 70.3342 228.154Z" fill="white"/>
<path d="M97.813 267.442H93.1617C92.6883 267.442 92.3047 267.058 92.3047 266.585V266.404C92.3047 265.931 92.6883 265.547 93.1617 265.547H97.813C98.2864 265.547 98.6701 265.931 98.6701 266.404V266.585C98.6701 267.058 98.2864 267.442 97.813 267.442Z" fill="#A9D8D5"/>
<path d="M108.307 261.704L103.842 263.01C103.388 263.142 102.912 262.881 102.779 262.427L102.729 262.254C102.596 261.799 102.857 261.323 103.311 261.19L107.776 259.885C108.23 259.752 108.706 260.013 108.839 260.468L108.889 260.641C109.022 261.095 108.761 261.572 108.307 261.704Z" fill="#573240"/>
<path d="M39.7277 265.748H35.0763C34.6029 265.748 34.2192 265.364 34.2192 264.89V264.71C34.2192 264.236 34.6029 263.853 35.0763 263.853H39.7277C40.2011 263.853 40.5848 264.236 40.5848 264.71V264.89C40.5848 265.364 40.2011 265.748 39.7277 265.748Z" fill="white"/>
<path d="M90.1631 260.014L85.6891 258.741C85.2338 258.611 84.9698 258.137 85.0993 257.681L85.1486 257.508C85.2781 257.053 85.7522 256.788 86.2074 256.918L90.6814 258.191C91.1367 258.321 91.4007 258.795 91.2712 259.25L91.2219 259.424C91.0923 259.879 90.6182 260.144 90.1631 260.014Z" fill="#F1B104"/>
<path d="M25.6723 252.865H21.0208C20.5474 252.865 20.1638 252.481 20.1638 252.008V251.828C20.1638 251.354 20.5474 250.97 21.0208 250.97H25.6723C26.1457 250.97 26.5293 251.354 26.5293 251.828V252.008C26.5291 252.481 26.1455 252.865 25.6723 252.865Z" fill="#F1B104"/>
<path d="M75.375 246.225H70.7236C70.2502 246.225 69.8666 245.842 69.8666 245.368V245.188C69.8666 244.714 70.2502 244.33 70.7236 244.33H75.375C75.8484 244.33 76.2321 244.714 76.2321 245.188V245.368C76.2321 245.842 75.8483 246.225 75.375 246.225Z" fill="#573240"/>
<path d="M97.6576 241.404L93.6293 239.078C93.2194 238.841 93.0789 238.316 93.3155 237.906L93.4056 237.75C93.6422 237.34 94.1664 237.2 94.5764 237.436L98.6047 239.763C99.0145 240 99.155 240.524 98.9184 240.935L98.8283 241.091C98.5917 241.501 98.0676 241.641 97.6576 241.404Z" fill="#F6ACC1"/>
<path d="M42.2653 236.459L38.3324 238.944C37.9322 239.196 37.4029 239.077 37.1502 238.676L37.054 238.524C36.8012 238.123 36.9209 237.594 37.3211 237.341L41.2539 234.856C41.6541 234.604 42.1835 234.723 42.4361 235.124L42.5323 235.276C42.7851 235.677 42.6655 236.206 42.2653 236.459Z" fill="white"/>
<path d="M101.009 248.576L98.4709 252.475C98.2126 252.872 97.6817 252.985 97.2851 252.726L97.1341 252.628C96.7375 252.369 96.6252 251.838 96.8835 251.441L99.4217 247.542C99.68 247.145 100.211 247.032 100.608 247.291L100.759 247.389C101.155 247.648 101.267 248.179 101.009 248.576Z" fill="white"/>
<path d="M62.7788 246.477L58.8459 248.962C58.4457 249.215 57.9164 249.095 57.6638 248.695L57.5675 248.542C57.3147 248.142 57.4344 247.612 57.8346 247.359L61.7674 244.875C62.1676 244.622 62.697 244.742 62.9496 245.142L63.0459 245.294C63.2985 245.695 63.179 246.224 62.7788 246.477Z" fill="white"/>
<path d="M49.7732 245.699L48.1652 241.332C48.0016 240.888 48.2289 240.395 48.673 240.231L48.8421 240.169C49.2862 240.005 49.7789 240.233 49.9426 240.677L51.5506 245.044C51.7142 245.488 51.4869 245.981 51.0428 246.145L50.8737 246.207C50.4296 246.371 49.937 246.143 49.7732 245.699Z" fill="#F1B104"/>
<path d="M51.2571 232.126L48.5456 228.345C48.2697 227.96 48.3577 227.424 48.7424 227.148L48.8888 227.043C49.2733 226.767 49.8089 226.855 50.0847 227.24L52.7962 231.022C53.072 231.406 52.984 231.942 52.5994 232.218L52.453 232.323C52.0683 232.599 51.5329 232.511 51.2571 232.126Z" fill="#573240"/>
<path d="M90.7108 248.668L87.9994 244.887C87.7235 244.502 87.8115 243.966 88.1962 243.69L88.3426 243.585C88.7271 243.309 89.2626 243.397 89.5385 243.782L92.2499 247.564C92.5258 247.948 92.4378 248.484 92.0531 248.76L91.9067 248.865C91.522 249.141 90.9867 249.053 90.7108 248.668Z" fill="#573240"/>
<path d="M31.0137 246.182L27.3972 243.256C27.0292 242.958 26.9722 242.418 27.2697 242.05L27.383 241.91C27.6808 241.542 28.2203 241.484 28.5883 241.782L32.2048 244.709C32.5728 245.007 32.6298 245.546 32.3323 245.915L32.219 246.055C31.9214 246.423 31.3817 246.48 31.0137 246.182Z" fill="#A9D8D5"/>
<path d="M85.7038 234.785L82.0872 231.858C81.7192 231.561 81.6622 231.021 81.9598 230.652L82.0731 230.512C82.3708 230.144 82.9103 230.087 83.2785 230.385L86.895 233.311C87.263 233.609 87.32 234.149 87.0225 234.517L86.9092 234.657C86.6114 235.026 86.0718 235.083 85.7038 234.785Z" fill="#F1B104"/>
<path d="M23.0686 266.154L20.1898 262.499C19.8968 262.127 19.9607 261.588 20.3325 261.294L20.4741 261.183C20.8458 260.89 21.3847 260.954 21.6777 261.326L24.5566 264.981C24.8495 265.353 24.7856 265.892 24.4139 266.185L24.2723 266.297C23.9003 266.59 23.3615 266.526 23.0686 266.154Z" fill="#A9D8D5"/>
<path d="M39.2337 251.614L40.0256 247.028C40.1062 246.562 40.5496 246.249 41.0161 246.329L41.1937 246.36C41.6601 246.441 41.9728 246.884 41.8923 247.351L41.1003 251.937C41.0197 252.403 40.5763 252.716 40.1098 252.636L39.9323 252.605C39.4658 252.524 39.1531 252.081 39.2337 251.614Z" fill="#F6ACC1"/>
<path d="M57.1883 237.596L60.8417 234.715C61.2135 234.422 61.7523 234.486 62.0454 234.858L62.1568 235C62.4497 235.372 62.3858 235.911 62.014 236.204L58.3606 239.085C57.9888 239.378 57.45 239.314 57.1569 238.942L57.0455 238.8C56.7526 238.428 56.8165 237.889 57.1883 237.596Z" fill="#A9D8D5"/>
<path d="M28.7674 258.796L32.4208 255.916C32.7925 255.623 33.3314 255.687 33.6244 256.059L33.7359 256.2C34.0288 256.572 33.9649 257.111 33.5931 257.405L29.9397 260.285C29.5679 260.578 29.0291 260.514 28.736 260.142L28.6246 260C28.3317 259.628 28.3956 259.089 28.7674 258.796Z" fill="#573240"/>
<path d="M73.2921 237.848L74.084 233.262C74.1646 232.795 74.608 232.482 75.0745 232.563L75.2521 232.594C75.7186 232.674 76.0313 233.118 75.9507 233.585L75.1587 238.17C75.0781 238.637 74.6347 238.95 74.1682 238.869L73.9907 238.839C73.5242 238.758 73.2115 238.314 73.2921 237.848Z" fill="#F6ACC1"/>
<path d="M78.7772 252.066L81.8735 248.593C82.1887 248.239 82.7304 248.209 83.0836 248.524L83.2181 248.644C83.5712 248.959 83.6022 249.501 83.2871 249.854L80.1908 253.327C79.8757 253.681 79.3339 253.712 78.9808 253.396L78.8463 253.276C78.4931 252.961 78.4621 252.419 78.7772 252.066Z" fill="#A9D8D5"/>
<path d="M30.3349 273.72L34.9856 273.791C35.4588 273.798 35.8366 274.187 35.8294 274.661L35.8266 274.841C35.8194 275.315 35.4299 275.693 34.9567 275.685L30.3059 275.615C29.8327 275.607 29.4549 275.218 29.4621 274.744L29.4649 274.564C29.472 274.09 29.8615 273.712 30.3349 273.72Z" fill="#A9D8D5"/>
<path d="M19.7547 279.296L24.2388 278.059C24.6951 277.933 25.167 278.202 25.2928 278.658L25.3407 278.832C25.4666 279.288 25.1986 279.761 24.7423 279.886L20.2583 281.123C19.8019 281.249 19.3301 280.981 19.2042 280.525L19.1564 280.351C19.0306 279.894 19.2986 279.422 19.7547 279.296Z" fill="#573240"/>
<path d="M88.3876 276.3L93.0384 276.371C93.5116 276.378 93.8894 276.768 93.8822 277.241L93.8794 277.422C93.8722 277.895 93.4827 278.273 93.0095 278.266L88.3587 278.195C87.8855 278.188 87.5077 277.798 87.5149 277.325L87.5177 277.144C87.5247 276.671 87.9142 276.293 88.3876 276.3Z" fill="white"/>
<path d="M37.8709 281.263L42.3249 282.605C42.7781 282.741 43.035 283.219 42.8985 283.673L42.8465 283.845C42.7101 284.299 42.2321 284.556 41.7788 284.419L37.3249 283.078C36.8716 282.942 36.6147 282.463 36.7513 282.01L36.8033 281.837C36.9396 281.384 37.4177 281.127 37.8709 281.263Z" fill="#F1B104"/>
<path d="M105.051 276.148L107.874 279.847C108.161 280.223 108.089 280.761 107.713 281.049L107.57 281.158C107.194 281.446 106.656 281.373 106.369 280.997L103.546 277.298C103.258 276.922 103.331 276.384 103.707 276.096L103.85 275.987C104.226 275.699 104.764 275.772 105.051 276.148Z" fill="#A9D8D5"/>
<path d="M99.2407 283.418L95.5437 286.242C95.1675 286.529 94.6297 286.457 94.3425 286.081L94.2331 285.938C93.9459 285.561 94.018 285.023 94.3941 284.736L98.0911 281.912C98.4674 281.624 99.0051 281.696 99.2924 282.073L99.4017 282.216C99.6891 282.592 99.617 283.13 99.2407 283.418Z" fill="#573240"/>
<path d="M49.1341 289.385L45.9853 292.81C45.6648 293.158 45.1227 293.181 44.7744 292.86L44.6418 292.738C44.2934 292.418 44.2707 291.875 44.5911 291.527L47.74 288.102C48.0605 287.753 48.6025 287.73 48.9509 288.051L49.0835 288.173C49.4319 288.494 49.4546 289.036 49.1341 289.385Z" fill="#A9D8D5"/>
<path d="M227.773 171.609L227.634 172.815H68.0042L68.1436 171.609H227.773Z" fill="#FDE5E3"/>
<path d="M224.963 186.243C224.746 186.657 224.508 187.058 224.257 187.449H70.0533C69.8002 187.058 69.5626 186.655 69.3439 186.243H224.963Z" fill="#FDE5E3"/>
<path d="M226.933 178.926L226.793 180.132H67.5151C67.4772 179.734 67.4548 179.333 67.4479 178.926H226.933Z" fill="#FDE5E3"/>
<path d="M243.934 271.279H178.615V344.449H243.934V271.279Z" fill="#F6ACC1"/>
<path d="M178.615 271.279H0.384644V344.449H178.615V271.279Z" fill="#FCD4D0"/>
<path d="M178.694 277.993H0.384644V279.199H178.694V277.993Z" fill="#FDE5E3"/>
<path d="M178.615 285.311H0.384644V286.517H178.615V285.311Z" fill="#FDE5E3"/>
<path d="M243.933 277.993H178.694V279.199H243.933V277.993Z" fill="#FABFD6"/>
<path d="M243.933 285.311H178.615V286.517H243.933V285.311Z" fill="#FABFD6"/>
<path d="M311.224 209.315L295.701 344.449H218.593L203.069 209.315H311.224Z" fill="white"/>
<path d="M311.224 209.314L295.7 344.449H278.902L293.832 214.483H203.663L203.069 209.314H311.224Z" fill="#E0F1F0"/>
<path d="M319.596 209.315H194.698L195.688 203.789C196.112 201.429 198.164 199.71 200.561 199.71H202.703L204.276 193.712C205.378 189.5 209.183 186.562 213.537 186.562H300.758C305.111 186.562 308.915 189.5 310.019 193.712L311.589 199.71H313.733C316.13 199.71 318.183 201.429 318.604 203.789L319.596 209.315Z" fill="#573240"/>
<path d="M254.201 293.6C267.563 293.6 278.395 282.03 278.395 267.757C278.395 253.484 267.563 241.914 254.201 241.914C240.839 241.914 230.007 253.484 230.007 267.757C230.007 282.03 240.839 293.6 254.201 293.6Z" fill="#A9D8D5"/>
<path d="M257.978 260.413L249.326 273.707C248.869 274.409 247.857 274.454 247.34 273.795C245.164 271.025 245.108 266.643 247.462 263.026C249.816 259.41 253.844 257.69 257.255 258.56C258.067 258.767 258.435 259.711 257.978 260.413Z" fill="#573240"/>
<path d="M261.149 271.943C258.818 275.524 254.846 277.245 251.457 276.436C250.637 276.24 250.262 275.286 250.722 274.58L259.341 261.337C259.801 260.63 260.824 260.588 261.335 261.259C263.445 264.032 263.479 268.362 261.149 271.943Z" fill="#573240"/>
</svg>
