<svg id="edvcw1xn7is1" xmlns="http://www.w3.org/2000/svg" xmlns:xlink="http://www.w3.org/1999/xlink" viewBox="0 0 731 442" shape-rendering="geometricPrecision" text-rendering="geometricPrecision"><style><![CDATA[#edvcw1xn7is80_to {animation: edvcw1xn7is80_to__to 3000ms linear 1 normal forwards}@keyframes edvcw1xn7is80_to__to { 0% {transform: translate(335.578111px,20.128953px)} 42.666667% {transform: translate(335.578111px,21.128953px)} 100% {transform: translate(335.578111px,20.128953px)} }#edvcw1xn7is113_to {animation: edvcw1xn7is113_to__to 3000ms linear 1 normal forwards}@keyframes edvcw1xn7is113_to__to { 0% {transform: translate(395.129272px,157.805992px)} 56.666667% {transform: translate(392.129272px,153.805992px)} 100% {transform: translate(395.129272px,157.805992px)} }#edvcw1xn7is117_to {animation: edvcw1xn7is117_to__to 3000ms linear 1 normal forwards}@keyframes edvcw1xn7is117_to__to { 0% {transform: translate(397.744000px,176.307809px)} 100% {transform: translate(400.212658px,177.090000px)} }#edvcw1xn7is128_tr {animation: edvcw1xn7is128_tr__tr 3000ms linear 1 normal forwards}@keyframes edvcw1xn7is128_tr__tr { 0% {transform: translate(358.474304px,116.853577px) rotate(-10deg)} 46.666667% {transform: translate(358.474304px,116.853577px) rotate(0deg)} 100% {transform: translate(358.474304px,116.853577px) rotate(-20deg)} }#edvcw1xn7is146_to {animation: edvcw1xn7is146_to__to 3000ms linear 1 normal forwards}@keyframes edvcw1xn7is146_to__to { 0% {transform: translate(316.546967px,188.984001px)} 46.666667% {transform: translate(316.546967px,188.984001px)} 100% {transform: translate(316.546967px,188.984001px)} }#edvcw1xn7is168_to {animation: edvcw1xn7is168_to__to 3000ms linear 1 normal forwards}@keyframes edvcw1xn7is168_to__to { 0% {transform: translate(262.582993px,209.357002px)} 46.666667% {transform: translate(260.855493px,208.673002px)} 96.666667% {transform: translate(264.727723px,215.811002px)} 100% {transform: translate(264.727723px,215.811002px)} }#edvcw1xn7is177_to {animation: edvcw1xn7is177_to__to 3000ms linear 1 normal forwards}@keyframes edvcw1xn7is177_to__to { 0% {transform: translate(212.565506px,221.839005px)} 43.333333% {transform: translate(212.565506px,222.145005px);animation-timing-function: cubic-bezier(0,0,0.580000,1)} 100% {transform: translate(212.565506px,221.839005px)} }]]></style><path id="edvcw1xn7is2" d="M730.329000,190.981000L730.329000,393.490000C730.329000,419.122000,709.542000,439.901000,683.898000,439.901000L553.584000,439.901000C531.138000,439.901000,512.412000,423.981000,508.091000,402.821000C508.029000,401.516000,507.820000,400.226000,507.470000,398.948000C503.937000,386.094000,486.051000,374.680000,459.397000,366.635000C434.312000,359.062000,401.460000,354.471000,365.500000,354.471000C329.540000,354.471000,296.688000,359.062000,271.603000,366.635000C244.952000,374.678000,227.067000,386.092000,223.532000,398.944000C223.180000,400.224000,222.969000,401.516000,222.909000,402.823000C218.588000,423.983000,199.862000,439.902000,177.416000,439.902000L47.103800,439.902000C21.460100,439.902000,0.671112,419.124000,0.671112,393.492000L0.671112,190.981000C0.671112,155.939000,29.092800,127.530000,64.152700,127.530000L83.917700,127.530000C92.146300,116.156000,102.791000,107.019000,114.888000,100.628000C127.711000,93.852400,142.164000,90.161700,157.100000,90.161700L194.024000,90.161700C213.514000,69.466900,247.971000,55.717300,287.226000,55.717300C316.959000,55.717300,343.939000,63.605200,363.748000,76.422500C383.964000,63.603300,411.498000,55.717300,441.842000,55.717300C481.903000,55.717300,517.070000,69.464800,536.962000,90.159800L573.902000,90.159800C588.837000,90.159800,603.292000,93.850500,616.112000,100.626000C628.211000,107.019000,638.858000,116.156000,647.084000,127.530000L666.849000,127.530000C701.909000,127.530000,730.329000,155.937000,730.329000,190.981000Z" fill="rgb(252,212,208)" stroke="none" stroke-width="1"/><path id="edvcw1xn7is3" d="M478.721000,361.626000C472.553000,358.851000,465.629000,356.302000,458.158000,354.023000C433.334000,346.449000,400.823000,341.859000,365.237000,341.859000C329.652000,341.859000,297.141000,346.449000,272.316000,354.023000C262.262000,357.089000,253.258000,360.645000,245.771000,364.583000" fill="none" stroke="rgb(255,255,255)" stroke-width="1" stroke-linecap="round" stroke-linejoin="round" stroke-miterlimit="10"/><path id="edvcw1xn7is4" d="M81.682900,126.909000C96.618400,126.909000,110.539000,134.466000,118.670000,146.989000" fill="none" stroke="rgb(255,255,255)" stroke-width="1" stroke-linecap="round" stroke-linejoin="round" stroke-miterlimit="10"/><path id="edvcw1xn7is5" d="M186.357000,89.321200C201.292000,89.321200,215.212000,96.878200,223.344000,109.401000" fill="none" stroke="rgb(255,255,255)" stroke-width="1" stroke-linecap="round" stroke-linejoin="round" stroke-miterlimit="10"/><path id="edvcw1xn7is6" d="M657.309000,126.909000C642.374000,126.909000,628.453000,134.466000,620.322000,146.989000" fill="none" stroke="rgb(255,255,255)" stroke-width="1" stroke-linecap="round" stroke-linejoin="round" stroke-miterlimit="10"/><path id="edvcw1xn7is7" d="M681.547000,275.406000L579.419000,275.406000C555.919000,275.406000,536.868000,294.448000,536.868000,317.938000" fill="none" stroke="rgb(255,255,255)" stroke-width="1" stroke-linecap="round" stroke-linejoin="round" stroke-miterlimit="10"/><path id="edvcw1xn7is8" d="M541.916000,89.321200C526.980000,89.321200,513.060000,96.878200,504.929000,109.401000" fill="none" stroke="rgb(255,255,255)" stroke-width="1" stroke-linecap="round" stroke-linejoin="round" stroke-miterlimit="10"/><path id="edvcw1xn7is9" d="M44.921900,283.263000L154.290000,283.263000C177.790000,283.263000,196.841000,302.305000,196.841000,325.795000" fill="none" stroke="rgb(255,255,255)" stroke-width="1" stroke-linecap="round" stroke-linejoin="round" stroke-miterlimit="10"/><path id="edvcw1xn7is10" d="M626.306000,107.011000L602.177000,186.983000C602.177000,186.983000,612.210000,195.877000,617.333000,207.993000C630.660000,239.524000,607.502000,274.432000,573.260000,274.432000L510.512000,274.432000C514.082000,224.488000,491.219000,190.886000,491.219000,190.886000L527.082000,190.886000L527.082000,163.285000L523.256000,154.486000C518.831000,144.306000,519.822000,132.584000,525.897000,123.292000L546.914000,91.137500C548.669000,88.451600,551.663000,86.831600,554.874000,86.831600L610.137000,86.831600C620.747000,86.831600,628.625000,96.662700,626.306000,107.011000Z" fill="rgb(255,110,0)" stroke="none" stroke-width="1"/><path id="edvcw1xn7is11" d="M455.617000,423.261000L466.451000,411.120000C466.451000,411.120000,492.257000,324.376000,495.826000,274.433000C499.395000,224.490000,476.570000,190.955000,476.570000,190.955000L454.749000,190.955000C431.596000,190.955000,413.282000,210.547000,414.855000,233.637000C418.723000,290.412000,445.922000,403.520000,445.722000,410.572000C445.311000,425.115000,439.134000,431.427000,439.134000,431.427000C439.134000,431.427000,448.889000,430.802000,455.617000,423.261000Z" fill="rgb(241,177,4)" stroke="none" stroke-width="1"/><path id="edvcw1xn7is12" d="M439.134000,431.426000C439.134000,431.426000,445.311000,425.115000,445.722000,410.571000C445.922000,403.519000,439.616000,290.411000,435.747000,233.636000C434.174000,210.547000,452.488000,190.954000,475.641000,190.954000L491.257000,190.954000C491.257000,190.954000,514.081000,224.489000,510.512000,274.432000C506.944000,324.375000,481.137000,411.119000,481.137000,411.119000L470.304000,423.261000C465.669000,428.455000,459.036000,431.426000,452.072000,431.426000L439.134000,431.426000L439.134000,431.426000Z" fill="rgb(241,177,4)" stroke="none" stroke-width="1"/><path id="edvcw1xn7is13" d="M444.895000,410.571000C445.095000,403.519000,439.616000,290.411000,435.747000,233.636000C434.174000,210.547000,452.488000,190.954000,475.641000,190.954000" fill="none" stroke="rgb(255,255,255)" stroke-width="1" stroke-linecap="round" stroke-linejoin="round" stroke-miterlimit="10"/><path id="edvcw1xn7is14" d="M471.316000,440.207000L479.673000,428.530000C480.530000,427.334000,481.912000,426.624000,483.383000,426.624000C485.903000,426.624000,487.945000,428.665000,487.945000,431.183000L487.945000,440.207000L489.108000,440.207000L489.108000,422.212000C489.108000,417.188000,485.900000,412.724000,481.137000,411.119000L470.264000,423.305000C465.654000,428.471000,459.057000,431.426000,452.131000,431.426000L439.133000,431.426000L429.533000,437.663000C428.672000,438.223000,428.152000,439.180000,428.152000,440.207000L471.316000,440.207000Z" fill="rgb(255,110,0)" stroke="none" stroke-width="1"/><path id="edvcw1xn7is15" d="M672.272000,274.579000L625.627000,274.579000L625.627000,249.337000L670.957000,249.337000L677.065000,267.968000C678.133000,271.228000,675.704000,274.579000,672.272000,274.579000Z" fill="rgb(241,177,4)" stroke="none" stroke-width="1"/><path id="edvcw1xn7is16" d="M626.943000,274.579000L624.313000,274.579000C620.881000,274.579000,618.452000,271.228000,619.520000,267.968000L625.628000,249.337000L631.735000,267.968000C632.803000,271.228000,630.374000,274.579000,626.943000,274.579000Z" fill="rgb(87,50,64)" stroke="none" stroke-width="1"/><path id="edvcw1xn7is17" d="M625.627000,249.337000L648.784000,249.337000L644.855000,243.168000C644.366000,242.438000,643.545000,242,642.666000,242L640.236000,242" fill="none" stroke="rgb(87,50,64)" stroke-width="1" stroke-linecap="round" stroke-miterlimit="10"/><path id="edvcw1xn7is18" d="M640.338000,245.512000C641.309000,245.512000,642.095000,244.726000,642.095000,243.756000C642.095000,242.786000,641.309000,242,640.338000,242C639.368000,242,638.582000,242.786000,638.582000,243.756000C638.582000,244.726000,639.368000,245.512000,640.338000,245.512000Z" fill="none" stroke="rgb(87,50,64)" stroke-width="1" stroke-linecap="round" stroke-miterlimit="10"/><path id="edvcw1xn7is19" d="M670.918000,249.337000L647.761000,249.337000L651.690000,243.168000C652.180000,242.438000,653.001000,242,653.880000,242L656.309000,242" fill="none" stroke="rgb(87,50,64)" stroke-width="1" stroke-linecap="round" stroke-miterlimit="10"/><path id="edvcw1xn7is20" d="M656.207000,245.512000C657.177000,245.512000,657.963000,244.726000,657.963000,243.756000C657.963000,242.786000,657.177000,242,656.207000,242C655.236000,242,654.450000,242.786000,654.450000,243.756000C654.450000,244.726000,655.236000,245.512000,656.207000,245.512000Z" fill="none" stroke="rgb(87,50,64)" stroke-width="1" stroke-linecap="round" stroke-miterlimit="10"/><path id="edvcw1xn7is21" d="M630.859000,254.144000C631.515000,254.144000,632.047000,253.612000,632.047000,252.956000C632.047000,252.300000,631.515000,251.768000,630.859000,251.768000C630.202000,251.768000,629.670000,252.300000,629.670000,252.956000C629.670000,253.612000,630.202000,254.144000,630.859000,254.144000Z" fill="rgb(255,255,255)" stroke="none" stroke-width="1"/><path id="edvcw1xn7is22" d="M636.150000,254.144000C636.806000,254.144000,637.338000,253.612000,637.338000,252.956000C637.338000,252.300000,636.806000,251.768000,636.150000,251.768000C635.493000,251.768000,634.961000,252.300000,634.961000,252.956000C634.961000,253.612000,635.493000,254.144000,636.150000,254.144000Z" fill="rgb(255,255,255)" stroke="none" stroke-width="1"/><path id="edvcw1xn7is23" d="M641.441000,254.144000C642.097000,254.144000,642.629000,253.612000,642.629000,252.956000C642.629000,252.300000,642.097000,251.768000,641.441000,251.768000C640.785000,251.768000,640.253000,252.300000,640.253000,252.956000C640.253000,253.612000,640.785000,254.144000,641.441000,254.144000Z" fill="rgb(255,255,255)" stroke="none" stroke-width="1"/><path id="edvcw1xn7is24" d="M646.732000,254.144000C647.389000,254.144000,647.921000,253.612000,647.921000,252.956000C647.921000,252.300000,647.389000,251.768000,646.732000,251.768000C646.076000,251.768000,645.544000,252.300000,645.544000,252.956000C645.544000,253.612000,646.076000,254.144000,646.732000,254.144000Z" fill="rgb(255,255,255)" stroke="none" stroke-width="1"/><path id="edvcw1xn7is25" d="M652.023000,254.144000C652.680000,254.144000,653.212000,253.612000,653.212000,252.956000C653.212000,252.300000,652.680000,251.768000,652.023000,251.768000C651.367000,251.768000,650.835000,252.300000,650.835000,252.956000C650.835000,253.612000,651.367000,254.144000,652.023000,254.144000Z" fill="rgb(255,255,255)" stroke="none" stroke-width="1"/><path id="edvcw1xn7is26" d="M657.315000,254.144000C657.971000,254.144000,658.503000,253.612000,658.503000,252.956000C658.503000,252.300000,657.971000,251.768000,657.315000,251.768000C656.658000,251.768000,656.126000,252.300000,656.126000,252.956000C656.126000,253.612000,656.658000,254.144000,657.315000,254.144000Z" fill="rgb(255,255,255)" stroke="none" stroke-width="1"/><path id="edvcw1xn7is27" d="M662.606000,254.144000C663.262000,254.144000,663.794000,253.612000,663.794000,252.956000C663.794000,252.300000,663.262000,251.768000,662.606000,251.768000C661.950000,251.768000,661.417000,252.300000,661.417000,252.956000C661.417000,253.612000,661.950000,254.144000,662.606000,254.144000Z" fill="rgb(255,255,255)" stroke="none" stroke-width="1"/><path id="edvcw1xn7is28" d="M667.897000,254.144000C668.553000,254.144000,669.085000,253.612000,669.085000,252.956000C669.085000,252.300000,668.553000,251.768000,667.897000,251.768000C667.241000,251.768000,666.709000,252.300000,666.709000,252.956000C666.709000,253.612000,667.241000,254.144000,667.897000,254.144000Z" fill="rgb(255,255,255)" stroke="none" stroke-width="1"/><path id="edvcw1xn7is29" d="M632.218000,258.221000C632.875000,258.221000,633.407000,257.689000,633.407000,257.033000C633.407000,256.377000,632.875000,255.845000,632.218000,255.845000C631.562000,255.845000,631.030000,256.377000,631.030000,257.033000C631.030000,257.689000,631.562000,258.221000,632.218000,258.221000Z" fill="rgb(255,255,255)" stroke="none" stroke-width="1"/><path id="edvcw1xn7is30" d="M637.509000,258.221000C638.166000,258.221000,638.698000,257.689000,638.698000,257.033000C638.698000,256.377000,638.166000,255.845000,637.509000,255.845000C636.853000,255.845000,636.321000,256.377000,636.321000,257.033000C636.321000,257.689000,636.853000,258.221000,637.509000,258.221000Z" fill="rgb(255,255,255)" stroke="none" stroke-width="1"/><path id="edvcw1xn7is31" d="M642.801000,258.221000C643.457000,258.221000,643.989000,257.689000,643.989000,257.033000C643.989000,256.377000,643.457000,255.845000,642.801000,255.845000C642.144000,255.845000,641.612000,256.377000,641.612000,257.033000C641.612000,257.689000,642.144000,258.221000,642.801000,258.221000Z" fill="rgb(255,255,255)" stroke="none" stroke-width="1"/><path id="edvcw1xn7is32" d="M648.092000,258.221000C648.748000,258.221000,649.280000,257.689000,649.280000,257.033000C649.280000,256.377000,648.748000,255.845000,648.092000,255.845000C647.435000,255.845000,646.903000,256.377000,646.903000,257.033000C646.903000,257.689000,647.435000,258.221000,648.092000,258.221000Z" fill="rgb(255,255,255)" stroke="none" stroke-width="1"/><path id="edvcw1xn7is33" d="M653.383000,258.221000C654.039000,258.221000,654.571000,257.689000,654.571000,257.033000C654.571000,256.377000,654.039000,255.845000,653.383000,255.845000C652.727000,255.845000,652.195000,256.377000,652.195000,257.033000C652.195000,257.689000,652.727000,258.221000,653.383000,258.221000Z" fill="rgb(255,255,255)" stroke="none" stroke-width="1"/><path id="edvcw1xn7is34" d="M658.674000,258.221000C659.331000,258.221000,659.863000,257.689000,659.863000,257.033000C659.863000,256.377000,659.331000,255.845000,658.674000,255.845000C658.018000,255.845000,657.486000,256.377000,657.486000,257.033000C657.486000,257.689000,658.018000,258.221000,658.674000,258.221000Z" fill="rgb(255,255,255)" stroke="none" stroke-width="1"/><path id="edvcw1xn7is35" d="M663.966000,258.221000C664.622000,258.221000,665.154000,257.689000,665.154000,257.033000C665.154000,256.377000,664.622000,255.845000,663.966000,255.845000C663.309000,255.845000,662.777000,256.377000,662.777000,257.033000C662.777000,257.689000,663.309000,258.221000,663.966000,258.221000Z" fill="rgb(255,255,255)" stroke="none" stroke-width="1"/><path id="edvcw1xn7is36" d="M669.257000,258.221000C669.913000,258.221000,670.445000,257.689000,670.445000,257.033000C670.445000,256.377000,669.913000,255.845000,669.257000,255.845000C668.600000,255.845000,668.068000,256.377000,668.068000,257.033000C668.068000,257.689000,668.600000,258.221000,669.257000,258.221000Z" fill="rgb(255,255,255)" stroke="none" stroke-width="1"/><path id="edvcw1xn7is37" d="M633.772000,262.492000C634.428000,262.492000,634.961000,261.960000,634.961000,261.304000C634.961000,260.648000,634.428000,260.116000,633.772000,260.116000C633.116000,260.116000,632.583000,260.648000,632.583000,261.304000C632.583000,261.960000,633.116000,262.492000,633.772000,262.492000Z" fill="rgb(255,255,255)" stroke="none" stroke-width="1"/><path id="edvcw1xn7is38" d="M639.063000,262.492000C639.720000,262.492000,640.252000,261.960000,640.252000,261.304000C640.252000,260.648000,639.720000,260.116000,639.063000,260.116000C638.407000,260.116000,637.875000,260.648000,637.875000,261.304000C637.875000,261.960000,638.407000,262.492000,639.063000,262.492000Z" fill="rgb(255,255,255)" stroke="none" stroke-width="1"/><path id="edvcw1xn7is39" d="M644.354000,262.492000C645.011000,262.492000,645.543000,261.960000,645.543000,261.304000C645.543000,260.648000,645.011000,260.116000,644.354000,260.116000C643.698000,260.116000,643.166000,260.648000,643.166000,261.304000C643.166000,261.960000,643.698000,262.492000,644.354000,262.492000Z" fill="rgb(255,255,255)" stroke="none" stroke-width="1"/><path id="edvcw1xn7is40" d="M649.646000,262.492000C650.302000,262.492000,650.834000,261.960000,650.834000,261.304000C650.834000,260.648000,650.302000,260.116000,649.646000,260.116000C648.989000,260.116000,648.457000,260.648000,648.457000,261.304000C648.457000,261.960000,648.989000,262.492000,649.646000,262.492000Z" fill="rgb(255,255,255)" stroke="none" stroke-width="1"/><path id="edvcw1xn7is41" d="M654.937000,262.492000C655.593000,262.492000,656.125000,261.960000,656.125000,261.304000C656.125000,260.648000,655.593000,260.116000,654.937000,260.116000C654.281000,260.116000,653.749000,260.648000,653.749000,261.304000C653.749000,261.960000,654.281000,262.492000,654.937000,262.492000Z" fill="rgb(255,255,255)" stroke="none" stroke-width="1"/><path id="edvcw1xn7is42" d="M660.228000,262.492000C660.884000,262.492000,661.417000,261.960000,661.417000,261.304000C661.417000,260.648000,660.884000,260.116000,660.228000,260.116000C659.572000,260.116000,659.040000,260.648000,659.040000,261.304000C659.040000,261.960000,659.572000,262.492000,660.228000,262.492000Z" fill="rgb(255,255,255)" stroke="none" stroke-width="1"/><path id="edvcw1xn7is43" d="M665.519000,262.492000C666.176000,262.492000,666.708000,261.960000,666.708000,261.304000C666.708000,260.648000,666.176000,260.116000,665.519000,260.116000C664.863000,260.116000,664.331000,260.648000,664.331000,261.304000C664.331000,261.960000,664.863000,262.492000,665.519000,262.492000Z" fill="rgb(255,255,255)" stroke="none" stroke-width="1"/><path id="edvcw1xn7is44" d="M670.810000,262.492000C671.467000,262.492000,671.999000,261.960000,671.999000,261.304000C671.999000,260.648000,671.467000,260.116000,670.810000,260.116000C670.154000,260.116000,669.622000,260.648000,669.622000,261.304000C669.622000,261.960000,670.154000,262.492000,670.810000,262.492000Z" fill="rgb(255,255,255)" stroke="none" stroke-width="1"/><path id="edvcw1xn7is45" d="M634.937000,266.763000C635.594000,266.763000,636.126000,266.231000,636.126000,265.575000C636.126000,264.919000,635.594000,264.387000,634.937000,264.387000C634.281000,264.387000,633.749000,264.919000,633.749000,265.575000C633.749000,266.231000,634.281000,266.763000,634.937000,266.763000Z" fill="rgb(255,255,255)" stroke="none" stroke-width="1"/><path id="edvcw1xn7is46" d="M640.229000,266.763000C640.885000,266.763000,641.417000,266.231000,641.417000,265.575000C641.417000,264.919000,640.885000,264.387000,640.229000,264.387000C639.572000,264.387000,639.040000,264.919000,639.040000,265.575000C639.040000,266.231000,639.572000,266.763000,640.229000,266.763000Z" fill="rgb(255,255,255)" stroke="none" stroke-width="1"/><path id="edvcw1xn7is47" d="M645.520000,266.763000C646.176000,266.763000,646.708000,266.231000,646.708000,265.575000C646.708000,264.919000,646.176000,264.387000,645.520000,264.387000C644.864000,264.387000,644.332000,264.919000,644.332000,265.575000C644.332000,266.231000,644.864000,266.763000,645.520000,266.763000Z" fill="rgb(255,255,255)" stroke="none" stroke-width="1"/><path id="edvcw1xn7is48" d="M650.811000,266.763000C651.467000,266.763000,651.999000,266.231000,651.999000,265.575000C651.999000,264.919000,651.467000,264.387000,650.811000,264.387000C650.155000,264.387000,649.623000,264.919000,649.623000,265.575000C649.623000,266.231000,650.155000,266.763000,650.811000,266.763000Z" fill="rgb(255,255,255)" stroke="none" stroke-width="1"/><path id="edvcw1xn7is49" d="M656.102000,266.763000C656.759000,266.763000,657.291000,266.231000,657.291000,265.575000C657.291000,264.919000,656.759000,264.387000,656.102000,264.387000C655.446000,264.387000,654.914000,264.919000,654.914000,265.575000C654.914000,266.231000,655.446000,266.763000,656.102000,266.763000Z" fill="rgb(255,255,255)" stroke="none" stroke-width="1"/><path id="edvcw1xn7is50" d="M661.394000,266.763000C662.050000,266.763000,662.582000,266.231000,662.582000,265.575000C662.582000,264.919000,662.050000,264.387000,661.394000,264.387000C660.737000,264.387000,660.205000,264.919000,660.205000,265.575000C660.205000,266.231000,660.737000,266.763000,661.394000,266.763000Z" fill="rgb(255,255,255)" stroke="none" stroke-width="1"/><path id="edvcw1xn7is51" d="M666.685000,266.763000C667.341000,266.763000,667.873000,266.231000,667.873000,265.575000C667.873000,264.919000,667.341000,264.387000,666.685000,264.387000C666.028000,264.387000,665.496000,264.919000,665.496000,265.575000C665.496000,266.231000,666.028000,266.763000,666.685000,266.763000Z" fill="rgb(255,255,255)" stroke="none" stroke-width="1"/><path id="edvcw1xn7is52" d="M671.976000,266.763000C672.632000,266.763000,673.164000,266.231000,673.164000,265.575000C673.164000,264.919000,672.632000,264.387000,671.976000,264.387000C671.320000,264.387000,670.787000,264.919000,670.787000,265.575000C670.787000,266.231000,671.320000,266.763000,671.976000,266.763000Z" fill="rgb(255,255,255)" stroke="none" stroke-width="1"/><path id="edvcw1xn7is53" d="M635.520000,271.228000C636.176000,271.228000,636.708000,270.697000,636.708000,270.040000C636.708000,269.384000,636.176000,268.853000,635.520000,268.853000C634.864000,268.853000,634.332000,269.384000,634.332000,270.040000C634.332000,270.697000,634.864000,271.228000,635.520000,271.228000Z" fill="rgb(255,255,255)" stroke="none" stroke-width="1"/><path id="edvcw1xn7is54" d="M640.811000,271.228000C641.468000,271.228000,642,270.697000,642,270.040000C642,269.384000,641.468000,268.853000,640.811000,268.853000C640.155000,268.853000,639.623000,269.384000,639.623000,270.040000C639.623000,270.697000,640.155000,271.228000,640.811000,271.228000Z" fill="rgb(255,255,255)" stroke="none" stroke-width="1"/><path id="edvcw1xn7is55" d="M646.102000,271.228000C646.759000,271.228000,647.291000,270.697000,647.291000,270.040000C647.291000,269.384000,646.759000,268.853000,646.102000,268.853000C645.446000,268.853000,644.914000,269.384000,644.914000,270.040000C644.914000,270.697000,645.446000,271.228000,646.102000,271.228000Z" fill="rgb(255,255,255)" stroke="none" stroke-width="1"/><path id="edvcw1xn7is56" d="M651.394000,271.228000C652.050000,271.228000,652.582000,270.697000,652.582000,270.040000C652.582000,269.384000,652.050000,268.853000,651.394000,268.853000C650.737000,268.853000,650.205000,269.384000,650.205000,270.040000C650.205000,270.697000,650.737000,271.228000,651.394000,271.228000Z" fill="rgb(255,255,255)" stroke="none" stroke-width="1"/><path id="edvcw1xn7is57" d="M656.685000,271.228000C657.341000,271.228000,657.873000,270.697000,657.873000,270.040000C657.873000,269.384000,657.341000,268.853000,656.685000,268.853000C656.028000,268.853000,655.496000,269.384000,655.496000,270.040000C655.496000,270.697000,656.028000,271.228000,656.685000,271.228000Z" fill="rgb(255,255,255)" stroke="none" stroke-width="1"/><path id="edvcw1xn7is58" d="M661.976000,271.228000C662.633000,271.228000,663.165000,270.697000,663.165000,270.040000C663.165000,269.384000,662.633000,268.853000,661.976000,268.853000C661.320000,268.853000,660.788000,269.384000,660.788000,270.040000C660.788000,270.697000,661.320000,271.228000,661.976000,271.228000Z" fill="rgb(255,255,255)" stroke="none" stroke-width="1"/><path id="edvcw1xn7is59" d="M667.267000,271.228000C667.924000,271.228000,668.456000,270.697000,668.456000,270.040000C668.456000,269.384000,667.924000,268.853000,667.267000,268.853000C666.611000,268.853000,666.079000,269.384000,666.079000,270.040000C666.079000,270.697000,666.611000,271.228000,667.267000,271.228000Z" fill="rgb(255,255,255)" stroke="none" stroke-width="1"/><path id="edvcw1xn7is60" d="M672.559000,271.228000C673.215000,271.228000,673.747000,270.697000,673.747000,270.040000C673.747000,269.384000,673.215000,268.853000,672.559000,268.853000C671.902000,268.853000,671.370000,269.384000,671.370000,270.040000C671.370000,270.697000,671.902000,271.228000,672.559000,271.228000Z" fill="rgb(255,255,255)" stroke="none" stroke-width="1"/><path id="edvcw1xn7is61" d="M585.872000,57.098300L595.396000,86.831000C595.396000,86.831000,578.459000,116.508000,554.792000,116.508000C534.751000,116.508000,556.772000,86.831000,556.772000,86.831000C563.181000,86.831000,568.377000,81.637300,568.377000,75.230400L568.377000,57.098100L585.872000,57.098100L585.872000,57.098300Z" fill="rgb(241,177,4)" stroke="none" stroke-width="1"/><path id="edvcw1xn7is62" d="M568.376000,53.574900L568.376000,75.231000C568.376000,78.434500,567.078000,81.335200,564.978000,83.434400C562.878000,85.533700,559.976000,86.831600,556.771000,86.831600C556.771000,86.831600,556.719000,86.902500,556.619000,87.036700C547.764000,86.988800,540.604000,81.047600,540.604000,73.728000C540.604000,67.205800,546.287000,61.780300,553.792000,60.639600C554.786000,56.046100,558.951000,52.601000,563.938000,52.601000C565.526000,52.601000,567.032000,52.950000,568.376000,53.574900Z" fill="rgb(87,50,64)" stroke="none" stroke-width="1"/><path id="edvcw1xn7is63" d="M592.451000,43.906800C592.242000,48.732200,588.623000,50.379100,583.659000,50.379100C579.954000,50.379100,576.664000,47.854200,575.232000,44.564400C572.759000,46.466200,569.184000,47.332700,565.463000,46.636800C559.259000,45.475000,555.001000,40.406100,555.956000,35.314200C556.909000,30.222200,562.713000,27.037900,568.918000,28.199600C572.982000,28.960700,576.210000,31.395500,577.685000,34.416900C579.119000,33.613700,581.081000,33.264700,583.659000,33.506300C588.604000,33.970200,592.722000,37.685700,592.451000,43.906800Z" fill="rgb(87,50,64)" stroke="none" stroke-width="1"/><path id="edvcw1xn7is64" d="M617.310000,74.222600C617.310000,81.847000,610.283000,88.027900,601.613000,88.027900C592.944000,88.027900,585.917000,81.847000,585.917000,74.222600C585.917000,71.251000,586.985000,68.499900,588.801000,66.247200L584.816000,53.803100C586.525000,52.127500,588.949000,51.082600,591.636000,51.082600C596.817000,51.082600,601.017000,54.968700,601.017000,59.763500C601.017000,59.987800,601.007000,60.210200,600.990000,60.430600C601.197000,60.423000,601.404000,60.419100,601.613000,60.419100C610.283000,60.419100,617.310000,66.600000,617.310000,74.222600Z" fill="rgb(87,50,64)" stroke="none" stroke-width="1"/><path id="edvcw1xn7is65" d="M594.381000,52.163900L594.381000,52.923100C594.381000,55.591800,592.215000,57.756200,589.545000,57.756200L584.752000,57.756200C584.327000,60.561000,582.422000,62.965100,579.712000,63.990800L572.028000,66.899100C569.297000,67.932400,566.271000,66.385300,565.513000,63.565200L564.404000,59.449100C563.984000,57.888500,563.771000,56.280000,563.771000,54.663900L563.771000,47.827400C563.771000,42.831300,567.824000,38.780400,572.820000,38.780400L574.683000,38.780400C574.539000,39.476300,574.472000,40.224000,574.472000,41.011900C574.472000,45.843100,578.693000,50.379100,583.659000,50.379100C583.979000,50.379100,584.296000,50.371400,584.605000,50.356100C584.656000,48.674700,586.035000,47.328900,587.731000,47.328900L589.545000,47.328900C592.215000,47.328900,594.381000,49.493300,594.381000,52.163900Z" fill="rgb(241,177,4)" stroke="none" stroke-width="1"/><path id="edvcw1xn7is66" d="M586.672000,52.767900C586.672000,50.905900,588.182000,49.396500,590.044000,49.396500" fill="none" stroke="rgb(87,50,64)" stroke-width="1" stroke-linecap="round" stroke-miterlimit="10"/><path id="edvcw1xn7is67" d="M573.709000,58.075600C573.709000,58.075600,571.962000,59.762700,569.089000,59.260000" fill="none" stroke="rgb(87,50,64)" stroke-width="1" stroke-linecap="round" stroke-miterlimit="10"/><path id="edvcw1xn7is68" d="M563.603000,46.663000C564.705000,46.103200,566.106000,46.130800,567.377000,46.699500C569.766000,47.768500,569.034000,56.321100,569.034000,56.321100" fill="none" stroke="rgb(87,50,64)" stroke-width="1" stroke-linecap="round" stroke-miterlimit="10"/><path id="edvcw1xn7is69" d="M565.099000,63.772600C565.858000,66.591000,568.884000,68.139000,571.615000,67.105300L579.711000,64.403300C582.799000,63.234000,584.817000,61.382500,584.817000,58.081300" fill="none" stroke="rgb(87,50,64)" stroke-width="1" stroke-linecap="round" stroke-miterlimit="10"/><path id="edvcw1xn7is70" d="M565.646000,52.568800C566.103000,52.568800,566.473000,51.977400,566.473000,51.247900C566.473000,50.518300,566.103000,49.926900,565.646000,49.926900C565.189000,49.926900,564.818000,50.518300,564.818000,51.247900C564.818000,51.977400,565.189000,52.568800,565.646000,52.568800Z" fill="rgb(87,50,64)" stroke="none" stroke-width="1"/><path id="edvcw1xn7is71" d="M572.714000,46.717700C574.073000,45.986300,576.263000,46.024100,577.743000,46.962200" fill="none" stroke="rgb(87,50,64)" stroke-width="1" stroke-linecap="round" stroke-miterlimit="10"/><path id="edvcw1xn7is72" d="M574.917000,52.568800C575.374000,52.568800,575.745000,51.977400,575.745000,51.247900C575.745000,50.518300,575.374000,49.926900,574.917000,49.926900C574.460000,49.926900,574.090000,50.518300,574.090000,51.247900C574.090000,51.977400,574.460000,52.568800,574.917000,52.568800Z" fill="rgb(87,50,64)" stroke="none" stroke-width="1"/><path id="edvcw1xn7is73" d="M326.517000,385.739000L326.517000,247.469000L366.722000,247.469000L326.517000,385.739000ZM416.492000,199.289000L290.991000,180.413000C263.882000,177.052000,245.934000,201.197000,251.268000,227.975000L271.489000,408.152000C275.155000,407.679000,279.397000,407.430000,283.342000,407.430000C296.623000,407.430000,308.725000,410.267000,317.374000,414.834000L322.449000,399.728000L322.450000,399.725000C322.450000,399.725000,322.569000,403.099000,326.517000,406.371000C328.788000,408.252000,332.328000,410.102000,337.842000,411.254000C349.021000,413.591000,364.259000,405.629000,377.771000,413.509000C378.120000,413.712000,378.456000,413.923000,378.780000,414.142000L441.648000,241.470000C449.029000,222.575000,436.633000,201.787000,416.492000,199.289000Z" fill="rgb(87,50,64)" stroke="none" stroke-width="1"/><path id="edvcw1xn7is74" d="M259.081000,422.173000C256.719000,424.427000,258.218000,428.596000,261.390000,428.596000L319.449000,428.596000C323.136000,428.596000,326.198000,425.667000,326.652000,421.843000C319.241000,413.345000,302.521000,407.430000,283.343000,407.430000C279.385000,407.430000,275.130000,407.682000,271.456000,408.157000L259.081000,422.173000Z" fill="rgb(178,221,218)" stroke="none" stroke-width="1"/><path id="edvcw1xn7is75" d="M257.110000,424.989000C257.251000,426.760000,258.580000,428.389000,260.563000,428.389000L318.621000,428.389000C322.308000,428.389000,326.134000,424.884000,326.032000,420.603000" fill="none" stroke="rgb(87,50,64)" stroke-width="1" stroke-linecap="round" stroke-miterlimit="10"/><path id="edvcw1xn7is76" d="M387.700000,428.389000L339.482000,428.389000L317.578000,414.221000L322.451000,399.724000C322.451000,399.724000,322.745000,408.099000,337.842000,411.255000C349.021000,413.591000,364.259000,405.629000,377.770000,413.508000C386.528000,418.614000,387.700000,428.389000,387.700000,428.389000Z" fill="rgb(178,221,218)" stroke="none" stroke-width="1"/><path id="edvcw1xn7is77" d="M387.700000,428.389000L339.482000,428.389000L317.785000,414.221000" fill="none" stroke="rgb(87,50,64)" stroke-width="1" stroke-linecap="round" stroke-miterlimit="10"/><path id="edvcw1xn7is78" d="M337.867000,43.590500L354.073000,37.267800L349.076000,23.659900L323.419000,25.151500L322.460000,38.189900L337.867000,43.590500Z" fill="rgb(255,255,255)" stroke="rgb(87,50,64)" stroke-width="1" stroke-linecap="round" stroke-miterlimit="10"/><path id="edvcw1xn7is79" d="M349.061000,16.458500L348.406000,10.918800C348.177000,8.780370,346.722000,6.970390,344.681000,6.290190C337.203000,3.798860,319.303000,-2.631820,313.003000,1.815960C305.846000,6.868210,318.095000,15.213700,318.095000,15.213700C318.095000,15.213700,329.743000,18.220800,332.864000,17.939700C335.986000,17.659000,349.061000,16.458500,349.061000,16.458500Z" fill="rgb(255,110,0)" stroke="none" stroke-width="1"/><g id="edvcw1xn7is80_to" transform="translate(335.578111,20.128953)"><path id="edvcw1xn7is80" d="M343.037000,24.807200L342.364000,29.360200C342.001000,31.810500,340.007000,33.693500,337.539000,33.915700L323.982000,35.135600C321.491000,35.359700,319.289000,33.522900,319.065000,31.032700L317.821000,17.225200C317.380000,12.320000,321,7.985760,325.907000,7.544240L331.201000,7.067830C333.850000,6.829530,336.336000,8.371880,337.298000,10.849600L338.788000,14.688700C339.346000,16.125200,340.787000,17.019300,342.323000,16.881300C342.163000,15.107800,343.472000,13.540500,345.246000,13.380800L346.169000,13.297800C349.246000,13.021000,351.965000,15.289700,352.242000,18.365200C352.519000,21.440700,350.249000,24.158200,347.172000,24.435000L343.037000,24.807200Z" transform="translate(-335.024765,-21.098881)" fill="rgb(255,255,255)" stroke="rgb(87,50,64)" stroke-width="1" stroke-linecap="round" stroke-miterlimit="10"/></g><path id="edvcw1xn7is81" d="M347.893000,16.337000C346.339000,16.476800,345.192000,17.849600,345.332000,19.402900" fill="none" stroke="rgb(87,50,64)" stroke-width="1" stroke-linecap="round" stroke-miterlimit="10"/><path id="edvcw1xn7is82" d="M326.344000,27.323200C328.227000,27.994400,330.248000,27.151000,330.859000,25.439800" fill="none" stroke="rgb(87,50,64)" stroke-width="1" stroke-linecap="round" stroke-miterlimit="10"/><path id="edvcw1xn7is83" d="M322.699000,16.319900L323.370000,23.777600C323.442000,24.571100,324.230000,25.093900,324.990000,24.851400L326.551000,24.422300" fill="none" stroke="rgb(87,50,64)" stroke-width="1" stroke-linecap="round" stroke-miterlimit="10"/><path id="edvcw1xn7is84" d="M333.691000,16.735500L329.129000,16.580100C328.637000,16.563400,328.252000,16.151200,328.269000,15.659600L328.294000,14.940500C328.310000,14.449000,328.723000,14.064000,329.214000,14.080900L333.776000,14.236400C334.268000,14.253000,334.653000,14.665200,334.636000,15.156800L334.612000,15.875900C334.595000,16.367500,334.183000,16.752200,333.691000,16.735500Z" fill="rgb(255,110,0)" stroke="none" stroke-width="1"/><path id="edvcw1xn7is85" d="M322.193000,14.687300L317.680000,15.378400C317.194000,15.453000,316.860000,15.907300,316.935000,16.393500L317.044000,17.104800C317.118000,17.591000,317.573000,17.924800,318.059000,17.850200L322.571000,17.159000C323.058000,17.084500,323.392000,16.630100,323.317000,16.143900L323.208000,15.432600C323.134000,14.946500,322.679000,14.612900,322.193000,14.687300Z" fill="rgb(255,110,0)" stroke="none" stroke-width="1"/><path id="edvcw1xn7is86" d="M330.962000,21.126700C331.415000,21.085900,331.733000,20.501500,331.671000,19.821400C331.610000,19.141300,331.193000,18.623000,330.740000,18.663800C330.287000,18.704600,329.969000,19.289000,330.031000,19.969100C330.092000,20.649200,330.509000,21.167500,330.962000,21.126700Z" fill="rgb(87,50,64)" stroke="none" stroke-width="1"/><path id="edvcw1xn7is87" d="M320.249000,22.091100C320.702000,22.050400,321.019000,21.466000,320.958000,20.785800C320.897000,20.105700,320.480000,19.587500,320.027000,19.628200C319.574000,19.669000,319.256000,20.253400,319.317000,20.933500C319.379000,21.613600,319.795000,22.131900,320.249000,22.091100Z" fill="rgb(87,50,64)" stroke="none" stroke-width="1"/><path id="edvcw1xn7is88" d="M244.342000,173.315000C233.193000,171.633000,226.044000,160.563000,229.100000,149.715000L247.764000,83.470800C251.264000,70.677700,260.990000,60.514900,273.620000,56.448700L323.036000,44.021800L337.699000,43.063200L356.664000,44.021800L405.483000,58.509600C417.864000,62.495400,427.469000,72.347600,431.134000,84.822400L446.237000,133.543000C451.707000,151.188000,438.513000,169.079000,420.033000,169.079000L416.448000,169.079000L416.492000,199.289000L244.342000,173.315000Z" fill="rgb(241,177,4)" stroke="none" stroke-width="1"/><path id="edvcw1xn7is89" d="M363.467000,45.896800L348.031000,51.169000L337.883000,43.964300L328.160000,50.961900L314.418000,46.194000L321.117000,38.525400C321.603000,37.888900,322.443000,37.637700,323.197000,37.908000L337.789000,42.620400L353.551000,36.788400C354.105000,36.575600,354.734000,36.721300,355.139000,37.154600L363.467000,45.896800Z" fill="rgb(178,221,218)" stroke="none" stroke-width="1"/><path id="edvcw1xn7is90" d="M384.688000,278.613000L384.688000,387.910000C384.688000,411.645000,398.982000,431.907000,419.103000,439.886000" fill="none" stroke="rgb(241,177,4)" stroke-width="1" stroke-miterlimit="10"/><path id="edvcw1xn7is91" d="M374.416000,278.613000L374.416000,387.910000C374.416000,412.601000,358.948000,433.533000,337.543000,440.790000" fill="none" stroke="rgb(241,177,4)" stroke-width="1" stroke-miterlimit="10"/><path id="edvcw1xn7is92" d="M374.416000,390.573000C374.416000,387.738000,376.715000,385.439000,379.552000,385.439000C382.389000,385.439000,384.688000,387.738000,384.688000,390.573000" fill="none" stroke="rgb(241,177,4)" stroke-width="1" stroke-miterlimit="10"/><path id="edvcw1xn7is93" d="M375.177000,278.362000C492.929000,278.362000,588.387000,252.188000,588.387000,219.901000C588.387000,187.613000,492.929000,161.439000,375.177000,161.439000C257.424000,161.439000,161.967000,187.613000,161.967000,219.901000C161.967000,252.188000,257.424000,278.362000,375.177000,278.362000Z" transform="matrix(1 0 0 1 -0.02900000000000 -0.13894252000000)" fill="rgb(255,255,255)" stroke="none" stroke-width="1"/><path id="edvcw1xn7is94" d="M535.296000,190.807000L452.507000,190.807000L430.330000,116.509000L513.119000,116.509000L535.296000,190.807000Z" transform="matrix(1 0 0 1 0 0.14800000000002)" fill="rgb(178,221,218)" stroke="none" stroke-width="1"/><path id="edvcw1xn7is95" d="M430.330000,116.509000L465.237000,89.321200L473.511000,116.509000L430.330000,116.509000Z" fill="rgb(87,50,64)" stroke="none" stroke-width="1"/><path id="edvcw1xn7is96" d="M459.787000,142.557000C462.736000,137.572000,468.820000,134.152000,475.848000,134.152000C482.875000,134.152000,488.959000,137.572000,491.908000,142.557000" fill="none" stroke="rgb(255,255,255)" stroke-width="1" stroke-linecap="round" stroke-linejoin="round" stroke-miterlimit="10"/><path id="edvcw1xn7is97" d="M453.844000,146.904000L499.859000,146.904000" fill="none" stroke="rgb(255,255,255)" stroke-width="1" stroke-linecap="round" stroke-linejoin="round" stroke-miterlimit="10"/><path id="edvcw1xn7is98" d="M455.292000,151.660000L501.307000,151.660000" fill="none" stroke="rgb(255,255,255)" stroke-width="1" stroke-linecap="round" stroke-linejoin="round" stroke-miterlimit="10"/><path id="edvcw1xn7is99" d="M627.858000,103.605000C627.858000,110.668000,625.713000,117.563000,621.704000,123.381000C611.510000,138.176000,591.068000,167.845000,579.200000,185.071000C573.499000,193.344000,564.093000,198.284000,554.044000,198.284000L469.580000,198.284000C464.407000,198.284000,459.277000,197.335000,454.446000,195.485000L443.291000,191.214000C439.542000,189.778000,437.066000,186.181000,437.066000,182.168000L437.066000,160.686000C437.066000,157.922000,439.308000,155.681000,442.074000,155.681000L444.465000,163.843000C445.152000,166.190000,447.300000,167.807000,449.746000,167.821000L461.610000,167.883000C462.514000,167.888000,462.795000,166.663000,461.979000,166.274000L458.281000,164.513000C458.281000,164.513000,453.821000,161.923000,453.959000,157.808000L471.434000,157.808000C472.821000,157.808000,474.166000,158.289000,475.239000,159.168000L482.481000,163.432000L542.179000,163.432000C547.948000,163.432000,553.332000,160.538000,556.512000,155.726000L597.279000,94.050200C600.258000,89.542600,605.302000,86.830800,610.707000,86.830800L611.076000,86.830800C620.345000,86.830800,627.858000,94.340700,627.858000,103.605000Z" fill="rgb(241,177,4)" stroke="none" stroke-width="1"/><path id="edvcw1xn7is100" d="M450.875000,188.279000L442.881000,185.218000C439.132000,183.782000,436.656000,180.473000,437.121000,171.457000" transform="matrix(1 0 0 1 0 2)" fill="none" stroke="rgb(87,50,64)" stroke-width="1" stroke-linecap="round" stroke-miterlimit="10"/><path id="edvcw1xn7is101" d="M451.068000,182.283000L443.074000,179.222000C439.325000,177.786000,436.856000,173.761000,437.065000,165.239000" fill="none" stroke="rgb(87,50,64)" stroke-width="1" stroke-linecap="round" stroke-miterlimit="10"/><path id="edvcw1xn7is102" d="M451.204000,175.380000L442.877000,172.192000C439.127000,170.756000,437.065000,167.365000,437.065000,163.352000" fill="none" stroke="rgb(87,50,64)" stroke-width="1" stroke-linecap="round" stroke-miterlimit="10"/><path id="edvcw1xn7is103" d="M437.066000,173.897000L437.066000,160.686000C437.066000,157.922000,439.308000,155.680000,442.074000,155.680000" fill="none" stroke="rgb(87,50,64)" stroke-width="1" stroke-linecap="round" stroke-miterlimit="10"/><path id="edvcw1xn7is104" d="M383.006000,212.456000C404.388000,212.456000,421.721000,202.232000,421.721000,189.620000C421.721000,177.007000,404.388000,166.783000,383.006000,166.783000C361.624000,166.783000,344.290000,177.007000,344.290000,189.620000C344.290000,202.232000,361.624000,212.456000,383.006000,212.456000Z" fill="rgb(255,255,255)" stroke="rgb(178,221,218)" stroke-width="1" stroke-miterlimit="10"/><path id="edvcw1xn7is105" d="M409.930000,188.700000C403.831000,195.964000,386.986000,198.198000,373.593000,196.210000C362.878000,194.619000,357.521000,189.966000,361.628000,185.816000C364.913000,182.496000,374.525000,180.837000,383.096000,182.109000C389.953000,183.127000,393.382000,186.105000,390.754000,188.761000C388.651000,190.886000,382.500000,191.948000,377.014000,191.134000C372.625000,190.482000,370.431000,188.576000,372.113000,186.876000C373.459000,185.517000,377.396000,184.837000,380.907000,185.358000C383.715000,185.775000,385.120000,186.994000,384.043000,188.082000C383.182000,188.953000,380.662000,189.388000,378.415000,189.054000C376.618000,188.787000,375.719000,188.007000,376.408000,187.311000" fill="none" stroke="rgb(241,177,4)" stroke-width="1" stroke-linecap="round" stroke-miterlimit="10"/><path id="edvcw1xn7is106" d="M360.035000,184.629000C362.740000,180.822000,371.957000,177.631000,380.621000,177.502000" fill="none" stroke="rgb(241,177,4)" stroke-width="1" stroke-linecap="round" stroke-miterlimit="10"/><path id="edvcw1xn7is107" d="M405.720000,192.215000C400.062000,199.479000,385.468000,201.713000,373.042000,199.725000" fill="none" stroke="rgb(241,177,4)" stroke-width="1" stroke-linecap="round" stroke-miterlimit="10"/><path id="edvcw1xn7is108" d="M365.205000,199.636000C369.470000,198.712000,371.602000,196.009000,369.968000,193.598000C368.660000,191.670000,364.834000,190.705000,361.422000,191.445000C358.692000,192.036000,357.327000,193.766000,358.373000,195.309000C359.210000,196.543000,361.659000,197.160000,363.843000,196.687000C365.590000,196.308000,366.463000,195.201000,365.794000,194.214000" fill="none" stroke="rgb(241,177,4)" stroke-width="1" stroke-linecap="round" stroke-miterlimit="10"/><path id="edvcw1xn7is109" d="M402.038000,193.865000C405.339000,193.045000,406.989000,190.648000,405.724000,188.511000C404.712000,186.800000,402.372000,185.945000,399.731000,186.601000C397.619000,187.125000,396.479000,188.500000,397.166000,189.821000C397.752000,190.949000,398.881000,191.256000,400.571000,190.836000C401.923000,190.501000,402.893000,188.809000,401.874000,188.437000" fill="none" stroke="rgb(241,177,4)" stroke-width="1" stroke-linecap="round" stroke-miterlimit="10"/><g id="edvcw1xn7is110"><g id="edvcw1xn7is111"><g id="edvcw1xn7is112"><g id="edvcw1xn7is113_to" transform="translate(395.129272,157.805992)"><g id="edvcw1xn7is113" transform="translate(-392.129272,-153.805992)"><path id="edvcw1xn7is114" d="M381.426000,126.026000L398.134000,175.911000" transform="matrix(1 0 0 1 0.69454554999999 2.83750000000001)" fill="none" stroke="rgb(87,50,64)" stroke-width="1" stroke-linecap="round" stroke-miterlimit="10"/><path id="edvcw1xn7is115" d="M393.929000,177.258000L390.820000,170.033000C389.843000,167.762000,391.016000,165.143000,393.360000,164.358000L394.821000,163.937000C397.166000,163.152000,399.680000,164.538000,400.268000,166.938000L402.138000,174.578000" transform="matrix(1 0 0 1 0 -0.15886610499999)" fill="none" stroke="rgb(87,50,64)" stroke-width="1" stroke-linecap="round" stroke-miterlimit="10"/></g></g></g></g></g><path id="edvcw1xn7is116" d="M367.137000,186.137000C369.593000,186.137000,371.584000,184.147000,371.584000,181.692000C371.584000,179.237000,369.593000,177.247000,367.137000,177.247000C364.680000,177.247000,362.689000,179.237000,362.689000,181.692000C362.689000,184.147000,364.680000,186.137000,367.137000,186.137000Z" fill="rgb(255,110,0)" stroke="none" stroke-width="1"/><g id="edvcw1xn7is117_to" transform="translate(397.744000,176.307809)"><g id="edvcw1xn7is117" transform="translate(-397.297684,-175.829193)"><path id="edvcw1xn7is118" d="M401.932000,169.261000C402.694000,169.261000,403.964000,169.931000,403.143000,170.702000C402.700000,171.117000,399.970000,171.799000,396.056000,171.799000C392.143000,171.799000,389.434000,170.678000,388.970000,170.288000C388.196000,169.638000,388.715000,168.858000,389.513000,168.858000" fill="none" stroke="rgb(241,177,4)" stroke-width="1" stroke-linecap="round" stroke-miterlimit="10"/><path id="edvcw1xn7is119" d="M401.189000,171.340000C402.148000,171.116000,402.402000,171.646000,402.208000,172.110000C401.974000,172.670000,400.794000,173.855000,396.808000,174.451000C392.822000,175.047000,389.339000,174.420000,389.222000,173.825000C389.105000,173.232000,389.573000,172.796000,390.769000,172.590000" fill="none" stroke="rgb(241,177,4)" stroke-width="1" stroke-linecap="round" stroke-miterlimit="10"/><path id="edvcw1xn7is120" d="M401.154000,173.147000C402.283000,172.796000,404.582000,174.498000,402.969000,175.911000C401.356000,177.325000,385.795000,174.987000,386.633000,178.998000C387.314000,182.261000,408.403000,185.100000,407.989000,180.044000C407.774000,177.408000,401.734000,177.242000,402.264000,180.390000" fill="none" stroke="rgb(241,177,4)" stroke-width="1" stroke-linecap="round" stroke-miterlimit="10"/></g></g><path id="edvcw1xn7is121" d="M388.250000,195.303000C390.519000,195.303000,392.359000,193.464000,392.359000,191.196000C392.359000,188.927000,390.519000,187.089000,388.250000,187.089000C385.980000,187.089000,384.141000,188.927000,384.141000,191.196000C384.141000,193.464000,385.980000,195.303000,388.250000,195.303000Z" fill="rgb(255,110,0)" stroke="none" stroke-width="1"/><path id="edvcw1xn7is122" d="M380.148000,195.416000C381.465000,195.416000,382.533000,194.348000,382.533000,193.032000C382.533000,191.715000,381.465000,190.648000,380.148000,190.648000C378.831000,190.648000,377.763000,191.715000,377.763000,193.032000C377.763000,194.348000,378.831000,195.416000,380.148000,195.416000Z" fill="rgb(255,110,0)" stroke="none" stroke-width="1"/><path id="edvcw1xn7is123" d="M401.947000,200.198000C404.268000,200.198000,406.150000,198.317000,406.150000,195.997000C406.150000,193.677000,404.268000,191.796000,401.947000,191.796000C399.626000,191.796000,397.744000,193.677000,397.744000,195.997000C397.744000,198.317000,399.626000,200.198000,401.947000,200.198000Z" fill="rgb(255,110,0)" stroke="none" stroke-width="1"/><path id="edvcw1xn7is124" d="M344.962000,129.638000L276.530000,180.925000C271.280000,184.857000,264.895000,186.985000,258.336000,186.985000C249.735000,186.985000,242.150000,183.471000,236.710000,177.933000C229.502000,170.586000,226.073000,159.681000,229.073000,148.685000L229.075000,148.685000C232.343000,136.714000,241.294000,127.113000,253.011000,123.010000L321.116000,99.155300C328.458000,96.584400,331.676000,95.330600,338.049000,94.931800C337.470000,95.002800,336.895000,95.123600,336.325000,95.296100C329.282000,97.424100,325.853000,106.483000,328.665000,115.785000C331.152000,124.011000,339.114000,131.185000,344.962000,129.638000Z" fill="rgb(241,177,4)" stroke="none" stroke-width="1"/><path id="edvcw1xn7is125" d="M253.011000,123.009000L321.115000,97.914600C329.803000,94.870900,340.462000,95.047300,345.851000,95.208000L348.126000,127.266000L276.530000,180.925000" fill="none" stroke="rgb(87,50,64)" stroke-width="1" stroke-linecap="round" stroke-miterlimit="10"/><path id="edvcw1xn7is126" d="M354.169000,108.082000C356.981000,117.384000,354.367000,123.025000,347.129000,128.569000C341.290000,133.042000,331.477000,125.086000,328.666000,115.784000C325.854000,106.482000,329.283000,97.423000,336.326000,95.296200C343.368000,93.169300,351.357000,98.779200,354.169000,108.082000Z" fill="rgb(87,50,64)" stroke="none" stroke-width="1"/><g id="edvcw1xn7is127"><g id="edvcw1xn7is128_tr" transform="translate(358.474304,116.853577) rotate(-10)"><path id="edvcw1xn7is128" d="M363.549000,125.127000C364.092000,125.127000,364.601000,125.429000,364.852000,125.922000C365.216000,126.628000,364.950000,127.496000,364.255000,127.878000L361.610000,129.329000C361.188000,129.559000,361.041000,130.094000,361.284000,130.508000C362.238000,132.126000,363.945000,133.027000,365.698000,133.027000C366.566000,133.027000,367.445000,132.807000,368.249000,132.343000L381.293000,125.803000L385.547000,138.533000L386.913000,137.720000C388.668000,136.673000,389.561000,134.630000,389.134000,132.632000L384.943000,113.033000C384.126000,109.381000,381.519000,106.386000,378.015000,105.069000L357.107000,97.214900C353.528000,95.838400,349.717000,95.146300,345.879000,95.175000L336.517000,95.295800C329.474000,97.423800,325.853000,106.482000,328.665000,115.784000C329.892000,119.843000,332.835000,123.455000,335.817000,126.079000L340.957000,122.013000C342.597000,124.103000,344.546000,125.054000,346.978000,125.305000L363.549000,125.127000Z" transform="translate(-358.474304,-116.853577)" fill="rgb(255,255,255)" stroke="rgb(87,50,64)" stroke-width="1" stroke-linecap="round" stroke-miterlimit="10"/></g><path id="edvcw1xn7is129" d="M377.835000,113.104000L381.294000,125.803000" transform="matrix(1 0 0 1 -0.01249999999993 -0.75561433000000)" fill="none" stroke="rgb(87,50,64)" stroke-width="1" stroke-linecap="round" stroke-miterlimit="10"/><path id="edvcw1xn7is130" d="M376.329000,128.077000L372.870000,115.379000" fill="none" stroke="rgb(87,50,64)" stroke-width="1" stroke-linecap="round" stroke-miterlimit="10"/><path id="edvcw1xn7is131" d="M371.985000,130.352000L368.526000,117.653000" fill="none" stroke="rgb(87,50,64)" stroke-width="1" stroke-linecap="round" stroke-miterlimit="10"/></g><path id="edvcw1xn7is132" d="M437.197000,260.057000C451.714000,260.057000,463.483000,250.827000,463.483000,239.442000C463.483000,228.056000,451.714000,218.826000,437.197000,218.826000C422.679000,218.826000,410.910000,228.056000,410.910000,239.442000C410.910000,250.827000,422.679000,260.057000,437.197000,260.057000Z" fill="rgb(178,221,218)" stroke="none" stroke-width="1"/><path id="edvcw1xn7is133" d="M458.187000,247.202000L420.145000,247.202000C419.346000,247.202000,418.698000,246.554000,418.698000,245.755000L418.698000,238.502000L458.187000,238.502000L458.187000,247.202000Z" fill="rgb(255,255,255)" stroke="none" stroke-width="1"/><path id="edvcw1xn7is134" d="M458.187000,238.502000L418.698000,238.502000C418.698000,238.502000,423.366000,228.464000,437.730000,225.746000L458.187000,238.502000Z" fill="rgb(255,110,0)" stroke="none" stroke-width="1"/><path id="edvcw1xn7is135" d="M434.304000,228.497000C435.228000,228.497000,435.978000,227.747000,435.978000,226.823000C435.978000,225.899000,435.228000,225.150000,434.304000,225.150000C433.379000,225.150000,432.629000,225.899000,432.629000,226.823000C432.629000,227.747000,433.379000,228.497000,434.304000,228.497000Z" fill="rgb(252,212,208)" stroke="none" stroke-width="1"/><path id="edvcw1xn7is136" d="M420.862000,228.897000C422.614000,227.798000,424.956000,228.089000,426.390000,229.686000C426.613000,229.935000,426.801000,230.197000,426.955000,230.479000C425.206000,231.581000,422.864000,231.290000,421.430000,229.693000C421.207000,229.445000,421.019000,229.176000,420.862000,228.897000Z" fill="rgb(241,177,4)" stroke="none" stroke-width="1"/><path id="edvcw1xn7is137" d="M427.410000,230.568000C429.001000,230.568000,430.291000,229.279000,430.291000,227.689000C430.291000,226.098000,429.001000,224.809000,427.410000,224.809000C425.819000,224.809000,424.529000,226.098000,424.529000,227.689000C424.529000,229.279000,425.819000,230.568000,427.410000,230.568000Z" fill="rgb(87,50,64)" stroke="none" stroke-width="1"/><path id="edvcw1xn7is138" d="M433.280000,224.082000C433.606000,226.124000,432.421000,228.164000,430.390000,228.858000C430.073000,228.966000,429.758000,229.036000,429.439000,229.067000C429.109000,227.027000,430.294000,224.987000,432.325000,224.293000C432.641000,224.185000,432.962000,224.117000,433.280000,224.082000Z" fill="rgb(241,177,4)" stroke="none" stroke-width="1"/><path id="edvcw1xn7is139" d="M422.706000,235.286000C424.099000,235.286000,425.227000,234.158000,425.227000,232.766000C425.227000,231.374000,424.099000,230.246000,422.706000,230.246000C421.314000,230.246000,420.185000,231.374000,420.185000,232.766000C420.185000,234.158000,421.314000,235.286000,422.706000,235.286000Z" fill="rgb(87,50,64)" stroke="none" stroke-width="1"/><path id="edvcw1xn7is140" d="M431.105000,231.135000C432.103000,231.135000,432.912000,230.326000,432.912000,229.328000C432.912000,228.330000,432.103000,227.521000,431.105000,227.521000C430.106000,227.521000,429.297000,228.330000,429.297000,229.328000C429.297000,230.326000,430.106000,231.135000,431.105000,231.135000Z" fill="rgb(87,50,64)" stroke="none" stroke-width="1"/><path id="edvcw1xn7is141" d="M428.483000,232.375000C429.481000,232.375000,430.291000,231.566000,430.291000,230.568000C430.291000,229.570000,429.481000,228.761000,428.483000,228.761000C427.484000,228.761000,426.675000,229.570000,426.675000,230.568000C426.675000,231.566000,427.484000,232.375000,428.483000,232.375000Z" fill="rgb(252,212,208)" stroke="none" stroke-width="1"/><path id="edvcw1xn7is142" d="M426.955000,235.943000C427.756000,235.943000,428.406000,235.293000,428.406000,234.492000C428.406000,233.691000,427.756000,233.042000,426.955000,233.042000C426.153000,233.042000,425.503000,233.691000,425.503000,234.492000C425.503000,235.293000,426.153000,235.943000,426.955000,235.943000Z" fill="rgb(252,212,208)" stroke="none" stroke-width="1"/><path id="edvcw1xn7is143" d="M435.118000,233.826000C436.022000,233.826000,436.756000,233.093000,436.756000,232.189000C436.756000,231.285000,436.022000,230.552000,435.118000,230.552000C434.213000,230.552000,433.480000,231.285000,433.480000,232.189000C433.480000,233.093000,434.213000,233.826000,435.118000,233.826000Z" fill="rgb(87,50,64)" stroke="none" stroke-width="1"/><path id="edvcw1xn7is144" d="M324.371000,152.717000C324.371000,157.036000,320.867000,160.536000,316.546000,160.536000C312.225000,160.536000,308.722000,157.036000,308.722000,152.717000C308.722000,148.397000,312.225000,144.897000,316.546000,144.897000C320.867000,144.897000,324.371000,148.397000,324.371000,152.717000Z" fill="none" stroke="rgb(87,50,64)" stroke-width="1" stroke-linecap="round" stroke-miterlimit="10"/><path id="edvcw1xn7is145" d="M305.739000,190.470000C307.030000,187.447000,311.378000,185.223000,316.545000,185.223000C321.724000,185.223000,326.083000,187.457000,327.362000,190.492000L334.737000,212.803000C336.765000,218.934000,332.194000,225.253000,325.734000,225.253000L307.360000,225.253000C300.900000,225.253000,296.331000,218.934000,298.358000,212.803000L305.739000,190.470000Z" fill="rgb(255,110,0)" stroke="none" stroke-width="1"/><g id="edvcw1xn7is146_to" transform="translate(316.546967,188.984001)"><path id="edvcw1xn7is146" d="M325.734000,225.252000L307.359000,225.252000C300.899000,225.252000,296.330000,218.934000,298.357000,212.803000L308.722000,181.438000L308.722000,152.716000C308.722000,157.035000,312.225000,160.536000,316.546000,160.536000C320.867000,160.536000,324.371000,157.035000,324.371000,152.716000L324.371000,181.438000L334.737000,212.803000C336.764000,218.934000,332.194000,225.252000,325.734000,225.252000Z" transform="translate(-316.546967,-188.984001)" fill="none" stroke="rgb(87,50,64)" stroke-width="1" stroke-linecap="round" stroke-miterlimit="10"/></g><path id="edvcw1xn7is147" d="M319.392000,215.638000C316.917000,219.969000,312.222000,220.424000,308.098000,218.070000C303.974000,215.715000,301.982000,211.442000,304.458000,207.110000L319.392000,215.638000Z" fill="rgb(255,255,255)" stroke="none" stroke-width="1"/><path id="edvcw1xn7is148" d="M319.374000,216.045000C317.453000,219.506000,312.045000,220.593000,307.891000,218.272000C303.745000,215.955000,301.996000,210.995000,304.051000,207.311000" fill="none" stroke="rgb(241,177,4)" stroke-width="1" stroke-linecap="round" stroke-miterlimit="10"/><path id="edvcw1xn7is149" d="M310.647000,216.828000C310.604000,217.067000,310.356000,217.212000,310.140000,217.125000C309.745000,216.967000,309.352000,216.776000,308.965000,216.555000C308.578000,216.334000,308.215000,216.093000,307.877000,215.833000C307.693000,215.691000,307.692000,215.404000,307.876000,215.246000L311.486000,212.145000L310.647000,216.828000Z" fill="rgb(241,177,4)" stroke="none" stroke-width="1"/><path id="edvcw1xn7is150" d="M317.773000,215.198000C317.414000,215.702000,317.012000,216.126000,316.576000,216.474000C316.405000,216.610000,316.163000,216.572000,316.050000,216.393000L313.440000,212.239000L317.670000,214.654000C317.856000,214.760000,317.904000,215.014000,317.773000,215.198000Z" fill="rgb(241,177,4)" stroke="none" stroke-width="1"/><path id="edvcw1xn7is151" d="M310.404000,210.505000L305.507000,210.372000C305.295000,210.367000,305.139000,210.177000,305.170000,209.960000C305.248000,209.409000,305.409000,208.847000,305.662000,208.282000C305.753000,208.076000,305.996000,207.988000,306.183000,208.095000L310.404000,210.505000Z" fill="rgb(241,177,4)" stroke="none" stroke-width="1"/><path id="edvcw1xn7is152" d="M314.911000,217.389000C313.959000,217.717000,312.926000,217.783000,311.876000,217.614000C311.681000,217.582000,311.551000,217.398000,311.584000,217.196000L312.369000,212.355000L315.115000,216.826000C315.240000,217.029000,315.140000,217.311000,314.911000,217.389000Z" fill="rgb(241,177,4)" stroke="none" stroke-width="1"/><path id="edvcw1xn7is153" d="M310.714000,211.410000L306.986000,214.508000C306.827000,214.640000,306.598000,214.619000,306.474000,214.463000C305.831000,213.652000,305.392000,212.743000,305.209000,211.775000C305.165000,211.539000,305.356000,211.315000,305.592000,211.319000L310.714000,211.410000Z" fill="rgb(241,177,4)" stroke="none" stroke-width="1"/><path id="edvcw1xn7is154" d="M317.275000,204.540000C321.331000,204.540000,324.619000,201.253000,324.619000,197.200000C324.619000,193.146000,321.331000,189.859000,317.275000,189.859000C313.220000,189.859000,309.932000,193.146000,309.932000,197.200000C309.932000,201.253000,313.220000,204.540000,317.275000,204.540000Z" fill="rgb(255,255,255)" stroke="none" stroke-width="1"/><path id="edvcw1xn7is155" d="M317.275000,204.623000C321.377000,204.623000,324.702000,201.299000,324.702000,197.199000C324.702000,193.099000,321.377000,189.776000,317.275000,189.776000C313.173000,189.776000,309.848000,193.099000,309.848000,197.199000C309.848000,201.299000,313.173000,204.623000,317.275000,204.623000Z" fill="none" stroke="rgb(241,177,4)" stroke-width="1" stroke-linecap="round" stroke-miterlimit="10"/><path id="edvcw1xn7is156" d="M318.974000,191.839000L317.581000,196.009000C317.513000,196.211000,317.127000,196.218000,317.046000,196.019000L315.372000,191.876000C315.260000,191.639000,315.443000,191.386000,315.768000,191.313000C316.208000,191.215000,316.665000,191.164000,317.134000,191.164000C317.634000,191.164000,318.122000,191.223000,318.590000,191.334000C318.875000,191.402000,319.038000,191.624000,318.974000,191.839000Z" fill="rgb(239,175,0)" stroke="none" stroke-width="1"/><path id="edvcw1xn7is157" d="M318.974000,202.830000L317.581000,198.660000C317.513000,198.458000,317.127000,198.451000,317.046000,198.650000L315.372000,202.793000C315.260000,203.030000,315.443000,203.283000,315.768000,203.356000C316.208000,203.454000,316.665000,203.505000,317.134000,203.505000C317.634000,203.505000,318.122000,203.446000,318.590000,203.335000C318.875000,203.267000,319.038000,203.045000,318.974000,202.830000Z" fill="rgb(239,175,0)" stroke="none" stroke-width="1"/><path id="edvcw1xn7is158" d="M323.583000,197.291000C323.583000,197.669000,323.552000,198.039000,323.493000,198.400000C323.447000,198.683000,323.057000,198.862000,322.696000,198.760000L318.509000,197.483000C318.270000,197.410000,318.285000,197.156000,318.532000,197.099000L322.737000,196.117000C323.105000,196.013000,323.502000,196.200000,323.536000,196.490000C323.567000,196.753000,323.583000,197.020000,323.583000,197.291000Z" fill="rgb(239,175,0)" stroke="none" stroke-width="1"/><path id="edvcw1xn7is159" d="M322.575000,200.080000C322.229000,200.795000,321.761000,201.436000,321.200000,201.976000C320.937000,202.229000,320.404000,202.189000,320.209000,201.905000L317.964000,198.489000C317.851000,198.317000,318.092000,198.135000,318.328000,198.214000L322.239000,199.529000C322.532000,199.616000,322.681000,199.860000,322.575000,200.080000Z" fill="rgb(239,175,0)" stroke="none" stroke-width="1"/><path id="edvcw1xn7is160" d="M322.630000,195.011000L318.617000,196.358000C318.386000,196.435000,318.147000,196.262000,318.248000,196.090000L320.408000,192.413000C320.587000,192.121000,321.122000,192.063000,321.396000,192.312000C322.054000,192.908000,322.593000,193.642000,322.969000,194.468000C323.068000,194.686000,322.919000,194.925000,322.630000,195.011000Z" fill="rgb(239,175,0)" stroke="none" stroke-width="1"/><path id="edvcw1xn7is161" d="M311.215000,197.291000C311.215000,197.669000,311.246000,198.039000,311.304000,198.400000C311.351000,198.683000,311.740000,198.862000,312.102000,198.760000L316.288000,197.483000C316.527000,197.410000,316.512000,197.156000,316.266000,197.099000L312.060000,196.117000C311.692000,196.013000,311.295000,196.200000,311.261000,196.490000C311.231000,196.753000,311.215000,197.020000,311.215000,197.291000Z" fill="rgb(239,175,0)" stroke="none" stroke-width="1"/><path id="edvcw1xn7is162" d="M312.056000,200.080000C312.401000,200.795000,312.869000,201.436000,313.430000,201.976000C313.693000,202.229000,314.226000,202.189000,314.422000,201.905000L316.667000,198.489000C316.780000,198.317000,316.539000,198.135000,316.303000,198.214000L312.391000,199.529000C312.098000,199.616000,311.950000,199.860000,312.056000,200.080000Z" fill="rgb(239,175,0)" stroke="none" stroke-width="1"/><path id="edvcw1xn7is163" d="M312.168000,195.011000L316.180000,196.358000C316.411000,196.435000,316.650000,196.262000,316.549000,196.090000L314.389000,192.413000C314.211000,192.121000,313.675000,192.063000,313.401000,192.312000C312.743000,192.908000,312.204000,193.642000,311.828000,194.468000C311.729000,194.686000,311.878000,194.925000,312.168000,195.011000Z" transform="matrix(1 0 0 1 0.17361960500000 0.05972742000000)" fill="rgb(239,175,0)" stroke="none" stroke-width="1"/><path id="edvcw1xn7is164" d="M252.219000,227.088000C256.309000,227.088000,259.624000,223.774000,259.624000,219.686000C259.624000,215.599000,256.309000,212.285000,252.219000,212.285000C248.130000,212.285000,244.815000,215.599000,244.815000,219.686000C244.815000,223.774000,248.130000,227.088000,252.219000,227.088000Z" fill="rgb(178,221,218)" stroke="none" stroke-width="1"/><path id="edvcw1xn7is165" d="M268.808000,229.584000C272.660000,229.584000,275.783000,226.462000,275.783000,222.611000C275.783000,218.760000,272.660000,215.638000,268.808000,215.638000C264.955000,215.638000,261.832000,218.760000,261.832000,222.611000C261.832000,226.462000,264.955000,229.584000,268.808000,229.584000Z" fill="rgb(241,177,4)" stroke="none" stroke-width="1"/><path id="edvcw1xn7is166" d="M279.932000,215.023000C279.932000,220.196000,271.390000,224.391000,260.855000,224.391000C250.320000,224.391000,241.782000,220.196000,241.782000,215.023000C241.782000,214.992000,241.782000,214.963000,241.784000,214.932000C241.883000,209.800000,250.383000,205.657000,260.856000,205.657000C271.329000,205.657000,279.830000,209.800000,279.930000,214.932000C279.932000,214.963000,279.932000,214.992000,279.932000,215.023000Z" fill="none" stroke="rgb(178,221,218)" stroke-width="1" stroke-miterlimit="10"/><path id="edvcw1xn7is167" d="M269.124000,238.859000C267.669000,240.076000,264.515000,240.922000,260.856000,240.922000C257.196000,240.922000,254.041000,240.076000,252.587000,238.859000L254.239000,234.883000L254.321000,234.686000C256.360000,235.429000,258.560000,235.834000,260.856000,235.834000C263.152000,235.834000,265.352000,235.429000,267.390000,234.686000L267.473000,234.883000L269.124000,238.859000Z" fill="rgb(255,255,255)" stroke="rgb(178,221,218)" stroke-width="1" stroke-miterlimit="10"/><g id="edvcw1xn7is168_to" transform="translate(262.582993,209.357002)"><path id="edvcw1xn7is168" d="M262.583000,216.157000C266.340000,216.157000,269.386000,213.113000,269.386000,209.357000C269.386000,205.602000,266.340000,202.557000,262.583000,202.557000C258.826000,202.557000,255.780000,205.602000,255.780000,209.357000C255.780000,213.113000,258.826000,216.157000,262.583000,216.157000Z" transform="translate(-262.582993,-209.357002)" fill="rgb(252,212,208)" stroke="none" stroke-width="1"/></g><path id="edvcw1xn7is169" d="M245.155000,189.030000C245.419000,188.868000,245.759000,188.970000,245.891000,189.245000L258.548000,215.546000C259.170000,216.837000,260.347000,217.762000,261.741000,218.097000C263.205000,218.448000,264.621000,219.608000,265.439000,221.309000C266.720000,223.971000,266.053000,226.947000,263.949000,227.958000C261.846000,228.970000,259.103000,227.633000,257.822000,224.972000C257.003000,223.270000,256.981000,221.441000,257.620000,220.078000C258.228000,218.781000,258.240000,217.284000,257.618000,215.993000L244.973000,189.717000C244.856000,189.475000,244.925000,189.170000,245.155000,189.030000Z" fill="rgb(87,50,64)" stroke="none" stroke-width="1"/><path id="edvcw1xn7is170" d="M279.932000,215.023000L279.932000,216.768000C279.932000,225.004000,274.708000,232.021000,267.390000,234.686000C265.352000,235.429000,263.152000,235.834000,260.856000,235.834000C258.560000,235.834000,256.360000,235.429000,254.321000,234.686000C247.004000,232.021000,241.781000,225.004000,241.781000,216.768000L241.781000,215.023000C241.781000,220.196000,250.320000,224.392000,260.856000,224.392000C271.391000,224.392000,279.932000,220.196000,279.932000,215.023000Z" fill="rgb(255,255,255)" stroke="rgb(178,221,218)" stroke-width="1" stroke-miterlimit="10"/><path id="edvcw1xn7is171" d="M489.789000,236.532000C500.370000,236.532000,508.948000,228.273000,508.948000,218.084000C508.948000,207.895000,500.370000,199.636000,489.789000,199.636000C479.208000,199.636000,470.630000,207.895000,470.630000,218.084000C470.630000,228.273000,479.208000,236.532000,489.789000,236.532000Z" fill="rgb(255,255,255)" stroke="rgb(178,221,218)" stroke-width="1" stroke-miterlimit="10"/><path id="edvcw1xn7is172" d="M479.697000,199.816000L479.697000,214.108000C479.697000,219.087000,483.735000,223.123000,488.715000,223.123000L490.863000,223.123000C495.843000,223.123000,499.881000,219.087000,499.881000,214.108000L499.881000,199.816000L479.697000,199.816000Z" fill="rgb(255,255,255)" stroke="rgb(178,221,218)" stroke-width="1" stroke-miterlimit="10"/><path id="edvcw1xn7is173" d="M489.789000,208.098000C495.363000,208.098000,499.881000,204.390000,499.881000,199.816000C499.881000,195.241000,495.363000,191.533000,489.789000,191.533000C484.215000,191.533000,479.697000,195.241000,479.697000,199.816000C479.697000,204.390000,484.215000,208.098000,489.789000,208.098000Z" fill="rgb(255,255,255)" stroke="rgb(178,221,218)" stroke-width="1" stroke-miterlimit="10"/><path id="edvcw1xn7is174" d="M503.405000,208.432000C505.363000,208.432000,506.951000,206.845000,506.951000,204.888000C506.951000,202.930000,505.363000,201.343000,503.405000,201.343000C501.447000,201.343000,499.859000,202.930000,499.859000,204.888000C499.859000,206.845000,501.447000,208.432000,503.405000,208.432000Z" fill="none" stroke="rgb(178,221,218)" stroke-width="1" stroke-miterlimit="10"/><path id="edvcw1xn7is175" d="M499.079000,201.936000C497.909000,205.240000,494.191000,207.655000,489.789000,207.655000C485.337000,207.655000,481.589000,205.189000,480.462000,201.831000C482.876000,199.554000,486.132000,198.156000,489.715000,198.156000C493.354000,198.156000,496.654000,199.595000,499.079000,201.936000Z" fill="rgb(87,50,64)" stroke="none" stroke-width="1"/><path id="edvcw1xn7is176" d="M540.636000,225.841000C540.667000,226.151000,540.427000,226.412000,540.121000,226.412000L510.853000,226.412000C509.416000,226.412000,508.068000,227.073000,507.160000,228.186000C506.206000,229.356000,504.543000,230.130000,502.649000,230.130000C499.687000,230.130000,497.288000,228.234000,497.288000,225.896000C497.288000,223.557000,499.687000,221.661000,502.649000,221.661000C504.543000,221.661000,506.206000,222.435000,507.160000,223.605000C508.068000,224.718000,509.416000,225.379000,510.853000,225.379000L540.093000,225.379000C540.363000,225.379000,540.608000,225.573000,540.636000,225.841000Z" fill="rgb(241,177,4)" stroke="none" stroke-width="1"/><g id="edvcw1xn7is177_to" transform="translate(212.565506,221.839005)"><path id="edvcw1xn7is177" d="M222.184000,230.246000L202.947000,230.246000L202.949000,218.237681C203.015000,214.866760,207.295000,212.145000,212.565000,212.145000C217.836000,212.145000,222.116000,214.866760,222.182000,218.237681L222.184000,230.246000Z" transform="translate(-212.565506,-221.839005)" fill="rgb(255,110,0)" stroke="none" stroke-width="1"/></g><path id="edvcw1xn7is178" d="M222.184000,195.231000L222.184000,233.341000L202.947000,233.341000L202.947000,195.231000C202.947000,199.563000,207.253000,203.073000,212.565000,203.073000C217.877000,203.073000,222.184000,199.563000,222.184000,195.231000Z" fill="none" stroke="rgb(87,50,64)" stroke-width="1" stroke-linecap="round" stroke-miterlimit="10"/><path id="edvcw1xn7is179" d="M222.184000,195.231000C222.184000,199.563000,217.877000,203.073000,212.565000,203.073000C207.253000,203.073000,202.947000,199.562000,202.947000,195.231000C202.947000,195.198000,202.947000,195.163000,202.949000,195.130000C203.015000,190.845000,207.295000,187.386000,212.565000,187.386000C217.836000,187.386000,222.116000,190.845000,222.182000,195.130000C222.184000,195.163000,222.184000,195.198000,222.184000,195.231000Z" fill="none" stroke="rgb(87,50,64)" stroke-width="1" stroke-linecap="round" stroke-miterlimit="10"/><path id="edvcw1xn7is180" d="M212.565000,201.873000L212.565000,179.410000C212.565000,175.508000,209.558000,172.264000,205.665000,171.967000L181.039000,170.092000" fill="none" stroke="rgb(255,110,0)" stroke-width="1" stroke-linecap="round" stroke-miterlimit="10"/><path id="edvcw1xn7is181" d="M194.598000,177.090000C196.248000,177.090000,197.585000,175.753000,197.585000,174.105000C197.585000,172.456000,196.248000,171.119000,194.598000,171.119000C192.949000,171.119000,191.611000,172.456000,191.611000,174.105000C191.611000,175.753000,192.949000,177.090000,194.598000,177.090000Z" fill="none" stroke="rgb(255,110,0)" stroke-width="1" stroke-miterlimit="10"/><path id="edvcw1xn7is182" d="M212.565000,204.223000L212.565000,212.090000" fill="none" stroke="rgb(255,110,0)" stroke-width="1" stroke-linecap="round" stroke-miterlimit="10"/><path id="edvcw1xn7is183" d="M217.597000,294.999000C204.282000,311.321000,185.939000,313.670000,184.824000,313.798000L169.592000,287.213000C168.611000,285.542000,166.820000,284.516000,164.883000,284.522000L149.859000,284.579000L150.009000,247.128000L174.300000,247.128000C185.054000,247.128000,194.944000,253.023000,200.055000,262.482000L217.597000,294.999000Z" fill="rgb(178,221,218)" stroke="none" stroke-width="1"/><path id="edvcw1xn7is184" d="M228.852000,316.139000C214.914000,326.524000,200.243000,330.395000,197.109000,331.135000L184.771000,313.804000C184.771000,313.804000,184.788000,313.802000,184.824000,313.798000C185.939000,313.670000,204.282000,311.322000,217.597000,294.999000C217.620000,294.970000,217.645000,294.941000,217.668000,294.913000L222.597000,304.268000L228.852000,316.139000Z" fill="rgb(241,177,4)" stroke="none" stroke-width="1"/><path id="edvcw1xn7is185" d="M234.054000,326.013000C230.039000,327.870000,224.897000,329.297000,219.899000,330.280000C218.355000,330.585000,217.628000,328.449000,219.034000,327.742000C225.856000,324.308000,231.140000,320.484000,231.140000,320.484000L234.054000,326.013000Z" fill="rgb(241,177,4)" stroke="none" stroke-width="1"/><path id="edvcw1xn7is186" d="M184.770000,314.632000C184.770000,314.632000,203.925000,311.832000,217.669000,294.912000" fill="none" stroke="rgb(255,255,255)" stroke-width="1" stroke-linecap="round" stroke-linejoin="round" stroke-miterlimit="10"/><path id="edvcw1xn7is187" d="M241.806000,337.266000L205.663000,343.029000L204.315000,341.196000L243.026000,335.012000C243.542000,334.952000,243.847000,334.515000,243.833000,334.074000C244.253000,335.510000,243.321000,337.025000,241.806000,337.266000Z" fill="rgb(255,255,255)" stroke="none" stroke-width="1"/><path id="edvcw1xn7is188" d="M243.026000,335.011000L204.314000,341.196000L196.938000,331.175000C199.670000,330.543000,214.641000,326.728000,228.852000,316.139000L231.140000,320.483000C231.140000,320.483000,225.857000,324.307000,219.033000,327.741000C217.628000,328.449000,218.355000,330.585000,219.899000,330.281000C224.897000,329.296000,230.041000,327.870000,234.055000,326.012000L234.098000,326.096000L243.482000,333.388000C244.128000,333.888000,243.837000,334.920000,243.026000,335.011000Z" fill="rgb(87,50,64)" stroke="none" stroke-width="1"/><path id="edvcw1xn7is189" d="M193.029000,285.068000L188.696000,313.805000C167.595000,319.293000,150.498000,313.805000,150.498000,313.805000L150.498000,288.221000C150.498000,286.209000,148.868000,284.580000,146.858000,284.580000L118.039000,284.580000C101.017000,284.580000,87.219500,270.787000,87.219500,253.774000L87.219500,247.129000L160.367000,247.129000C180.571000,247.129000,196.041000,265.096000,193.029000,285.068000Z" fill="rgb(178,221,218)" stroke="none" stroke-width="1"/><path id="edvcw1xn7is190" d="M170.332000,341.056000C177.864000,342.331000,184.387000,342.381000,184.387000,342.381000L183.455000,348.562000C179.122000,347.680000,174.131000,345.782000,169.522000,343.614000C168.099000,342.945000,168.780000,340.794000,170.332000,341.056000Z" fill="rgb(241,177,4)" stroke="none" stroke-width="1"/><path id="edvcw1xn7is191" d="M188.695000,313.804000L185.120000,337.527000C167.394000,337.638000,153.074000,331.843000,150.498000,330.734000L150.498000,313.804000C150.498000,313.804000,167.595000,319.293000,188.695000,313.804000Z" fill="rgb(241,177,4)" stroke="none" stroke-width="1"/><path id="edvcw1xn7is192" d="M87.218800,247.542000L87.218800,253.774000C87.218800,270.787000,101.016000,284.580000,118.038000,284.580000L146.857000,284.580000C148.868000,284.580000,150.497000,286.209000,150.497000,288.221000L150.497000,313.806000C150.497000,313.806000,167.594000,319.293000,188.695000,313.806000L193.029000,285.068000C196.041000,265.097000,180.570000,247.129000,160.366000,247.129000L154.597000,247.129000" fill="none" stroke="rgb(255,255,255)" stroke-width="1" stroke-linecap="round" stroke-linejoin="round" stroke-miterlimit="10"/><path id="edvcw1xn7is193" d="M186.631000,360.713000L186.627000,360.765000C186.516000,362.275000,184.897000,363.182000,183.551000,362.488000L150.498000,345.450000L150.498000,343.175000L185.346000,361.125000C185.849000,361.414000,186.422000,361.163000,186.631000,360.713000Z" fill="rgb(255,255,255)" stroke="none" stroke-width="1"/><path id="edvcw1xn7is194" d="M186.677000,360.086000L186.631000,360.713000C186.422000,361.163000,185.848000,361.415000,185.346000,361.125000L150.498000,343.175000L150.498000,330.734000C153.074000,331.843000,167.394000,337.638000,185.120000,337.527000L184.387000,342.381000C184.387000,342.381000,177.864000,342.331000,170.332000,341.056000C168.780000,340.794000,168.099000,342.945000,169.522000,343.614000C174.131000,345.782000,179.122000,347.680000,183.455000,348.562000L183.441000,348.654000L186.677000,360.086000Z" fill="rgb(87,50,64)" stroke="none" stroke-width="1"/><path id="edvcw1xn7is195" d="M171.794000,203.515000C174.886000,206.829000,191.063000,220.744000,217.396000,219.910000C217.396000,219.910000,218.079000,222.654000,216.195000,223.751000C215.040000,224.425000,209.615000,226.434000,209.454000,228.691000C209.363000,229.971000,215.494000,229.971000,217.965000,227.776000C220.435000,225.581000,220.802000,220.212000,226.045000,220.943000L223.868000,235.932000C222.199000,240.996000,214.626000,244.630000,209.324000,245.203000C195.104000,246.739000,171.789000,247.229000,153.040000,230.735000L171.794000,203.515000Z" fill="rgb(241,177,4)" stroke="none" stroke-width="1"/><path id="edvcw1xn7is196" d="M126.726000,175.164000C124.722000,178.613000,120.732000,180.965000,116.137000,180.965000C109.529000,180.965000,104.172000,176.104000,104.172000,170.107000C104.172000,164.367000,109.083000,159.666000,115.299000,159.277000C116.053000,155.299000,119.551000,152.289000,123.751000,152.289000C125.953000,152.289000,127.963000,153.117000,129.486000,154.478000L129.486000,151.581000C129.486000,145.069000,135.020000,139.929000,141.518000,140.406000L150.680000,141.089000C155.613000,141.457000,159.045000,146.150000,157.898000,150.960000L154.290000,164.952000L154.332000,164.952000C159.396000,164.952000,163.500000,169.054000,163.500000,174.115000C163.500000,179.177000,159.396000,183.279000,154.332000,183.279000C152.672000,183.279000,151.115000,182.838000,149.772000,182.067000L126.726000,175.164000Z" fill="rgb(87,50,64)" stroke="none" stroke-width="1"/><path id="edvcw1xn7is197" d="M149.710000,169.269000L149.710000,180.595000C145.833000,176.891000,140.810000,174.639000,135.486000,174.198000C137.110000,172.781000,138.138000,170.697000,138.138000,168.372000C138.138000,166.849000,137.699000,165.433000,136.938000,164.238000L132.948000,164.238000C130.702000,164.238000,128.880000,162.419000,128.880000,160.172000L128.880000,159.534000C128.880000,157.289000,130.702000,155.469000,132.948000,155.469000L134.036000,155.469000C135.699000,155.469000,137.047000,156.817000,137.047000,158.479000L137.047000,159.148000C137.047000,157.237000,138.532000,155.669000,140.438000,155.533000C144.218000,155.264000,150.268000,153.759000,153.870000,147.346000C154.171000,146.808000,154.986000,146.973000,155.047000,147.588000L156.449000,161.401000C156.864000,165.490000,153.762000,169.056000,149.710000,169.269000Z" fill="rgb(241,177,4)" stroke="none" stroke-width="1"/><path id="edvcw1xn7is198" d="M149.948000,169.672000L146.062000,169.672000C142.336000,169.672000,138.501000,167.677000,136.652000,164.442000" fill="none" stroke="rgb(87,50,64)" stroke-width="1" stroke-linecap="round" stroke-miterlimit="10"/><path id="edvcw1xn7is199" d="M135.101000,160.124000C135.101000,158.751000,133.988000,157.638000,132.615000,157.638000" fill="none" stroke="rgb(87,50,64)" stroke-width="1" stroke-linecap="round" stroke-miterlimit="10"/><path id="edvcw1xn7is200" d="M151.150000,163.631000C149.824000,163.986000,148.253000,163.199000,147.898000,161.873000L146.828000,162.693000" fill="none" stroke="rgb(87,50,64)" stroke-width="1" stroke-linecap="round" stroke-linejoin="round" stroke-miterlimit="10"/><path id="edvcw1xn7is201" d="M156.180000,154.392000C155.577000,153.002000,154.253000,152.435000,152.696000,153.090000C151.827000,153.456000,149.525000,156.772000,151.113000,160.123000" fill="none" stroke="rgb(87,50,64)" stroke-width="1" stroke-linecap="round" stroke-miterlimit="10"/><path id="edvcw1xn7is202" d="M153.585000,158.264000C153.976000,158.264000,154.294000,157.752000,154.294000,157.121000C154.294000,156.489000,153.976000,155.978000,153.585000,155.978000C153.193000,155.978000,152.875000,156.489000,152.875000,157.121000C152.875000,157.752000,153.193000,158.264000,153.585000,158.264000Z" fill="rgb(87,50,64)" stroke="none" stroke-width="1"/><path id="edvcw1xn7is203" d="M146.345000,158.264000C146.736000,158.264000,147.054000,157.752000,147.054000,157.121000C147.054000,156.489000,146.736000,155.978000,146.345000,155.978000C145.953000,155.978000,145.635000,156.489000,145.635000,157.121000C145.635000,157.752000,145.953000,158.264000,146.345000,158.264000Z" fill="rgb(87,50,64)" stroke="none" stroke-width="1"/><path id="edvcw1xn7is204" d="M171.794000,203.515000L150.409000,181.291000C145.998000,176.706000,139.909000,174.115000,133.545000,174.115000C124.775000,174.115000,116.741000,179.017000,112.733000,186.814000L81.727200,247.703000L154.597000,247.703000L153.040000,230.735000L171.794000,203.515000Z" fill="rgb(255,110,0)" stroke="none" stroke-width="1"/><path id="edvcw1xn7is205" d="M153.040000,230.735000C149.171000,227.776000,137.183000,219.452000,132.059000,210.122000" fill="none" stroke="rgb(87,50,64)" stroke-width="1" stroke-linecap="round" stroke-miterlimit="10"/></svg>