<svg width="731" height="442" viewBox="0 0 731 442" fill="none" xmlns="http://www.w3.org/2000/svg">
<path d="M730.329 190.981V393.49C730.329 419.122 709.542 439.901 683.898 439.901H553.584C531.138 439.901 512.412 423.981 508.091 402.821C508.029 401.516 507.82 400.226 507.47 398.948C503.937 386.094 486.051 374.68 459.397 366.635C434.312 359.062 401.46 354.471 365.5 354.471C329.54 354.471 296.688 359.062 271.603 366.635C244.952 374.678 227.067 386.092 223.532 398.944C223.18 400.224 222.969 401.516 222.909 402.823C218.588 423.983 199.862 439.902 177.416 439.902H47.1038C21.4601 439.902 0.671112 419.124 0.671112 393.492V190.981C0.671112 155.939 29.0928 127.53 64.1527 127.53H83.9177C92.1463 116.156 102.791 107.019 114.888 100.628C127.711 93.8524 142.164 90.1617 157.1 90.1617H194.024C213.514 69.4669 247.971 55.7173 287.226 55.7173C316.959 55.7173 343.939 63.6052 363.748 76.4225C383.964 63.6033 411.498 55.7173 441.842 55.7173C481.903 55.7173 517.07 69.4648 536.962 90.1598H573.902C588.837 90.1598 603.292 93.8505 616.112 100.626C628.211 107.019 638.858 116.156 647.084 127.53H666.849C701.909 127.53 730.329 155.937 730.329 190.981Z" fill="#FCD4D0"/>
<path d="M478.721 361.626C472.553 358.851 465.629 356.302 458.158 354.023C433.334 346.449 400.823 341.859 365.237 341.859C329.652 341.859 297.141 346.449 272.316 354.023C262.262 357.089 253.258 360.645 245.771 364.583" stroke="white" stroke-miterlimit="10" stroke-linecap="round" stroke-linejoin="round"/>
<path d="M81.6829 126.909C96.6184 126.909 110.539 134.466 118.67 146.989" stroke="white" stroke-miterlimit="10" stroke-linecap="round" stroke-linejoin="round"/>
<path d="M186.357 89.3212C201.292 89.3212 215.212 96.8782 223.344 109.401" stroke="white" stroke-miterlimit="10" stroke-linecap="round" stroke-linejoin="round"/>
<path d="M657.309 126.909C642.374 126.909 628.453 134.466 620.322 146.989" stroke="white" stroke-miterlimit="10" stroke-linecap="round" stroke-linejoin="round"/>
<path d="M681.547 275.406H579.419C555.919 275.406 536.868 294.448 536.868 317.938" stroke="white" stroke-miterlimit="10" stroke-linecap="round" stroke-linejoin="round"/>
<path d="M541.916 89.3212C526.98 89.3212 513.06 96.8782 504.929 109.401" stroke="white" stroke-miterlimit="10" stroke-linecap="round" stroke-linejoin="round"/>
<path d="M44.9219 283.263H154.29C177.79 283.263 196.841 302.305 196.841 325.795" stroke="white" stroke-miterlimit="10" stroke-linecap="round" stroke-linejoin="round"/>
<path d="M626.306 107.011L602.177 186.983C602.177 186.983 612.21 195.877 617.333 207.993C630.66 239.524 607.502 274.432 573.26 274.432H510.512C514.082 224.488 491.219 190.886 491.219 190.886H527.082V163.285L523.256 154.486C518.831 144.306 519.822 132.584 525.897 123.292L546.914 91.1375C548.669 88.4516 551.663 86.8316 554.874 86.8316H610.137C620.747 86.8316 628.625 96.6627 626.306 107.011Z" fill="#FF6E00"/>
<path d="M455.617 423.261L466.451 411.12C466.451 411.12 492.257 324.376 495.826 274.433C499.395 224.49 476.57 190.955 476.57 190.955H454.749C431.596 190.955 413.282 210.547 414.855 233.637C418.723 290.412 445.922 403.52 445.722 410.572C445.311 425.115 439.134 431.427 439.134 431.427C439.134 431.427 448.889 430.802 455.617 423.261Z" fill="#F1B104"/>
<path d="M439.134 431.426C439.134 431.426 445.311 425.115 445.722 410.571C445.922 403.519 439.616 290.411 435.747 233.636C434.174 210.547 452.488 190.954 475.641 190.954H491.257C491.257 190.954 514.081 224.489 510.512 274.432C506.944 324.375 481.137 411.119 481.137 411.119L470.304 423.261C465.669 428.455 459.036 431.426 452.072 431.426H439.134V431.426Z" fill="#F1B104"/>
<path d="M444.895 410.571C445.095 403.519 439.616 290.411 435.747 233.636C434.174 210.547 452.488 190.954 475.641 190.954" stroke="white" stroke-miterlimit="10" stroke-linecap="round" stroke-linejoin="round"/>
<path d="M471.316 440.207L479.673 428.53C480.53 427.334 481.912 426.624 483.383 426.624C485.903 426.624 487.945 428.665 487.945 431.183V440.207H489.108V422.212C489.108 417.188 485.9 412.724 481.137 411.119L470.264 423.305C465.654 428.471 459.057 431.426 452.131 431.426H439.133L429.533 437.663C428.672 438.223 428.152 439.18 428.152 440.207H471.316Z" fill="#FF6E00"/>
<path d="M672.272 274.579H625.627V249.337H670.957L677.065 267.968C678.133 271.228 675.704 274.579 672.272 274.579Z" fill="#F1B104"/>
<path d="M626.943 274.579H624.313C620.881 274.579 618.452 271.228 619.52 267.968L625.628 249.337L631.735 267.968C632.803 271.228 630.374 274.579 626.943 274.579Z" fill="#573240"/>
<path d="M625.627 249.337H648.784L644.855 243.168C644.366 242.438 643.545 242 642.666 242H640.236" stroke="#573240" stroke-miterlimit="10" stroke-linecap="round"/>
<path d="M640.338 245.512C641.309 245.512 642.095 244.726 642.095 243.756C642.095 242.786 641.309 242 640.338 242C639.368 242 638.582 242.786 638.582 243.756C638.582 244.726 639.368 245.512 640.338 245.512Z" stroke="#573240" stroke-miterlimit="10" stroke-linecap="round"/>
<path d="M670.918 249.337H647.761L651.69 243.168C652.18 242.438 653.001 242 653.88 242H656.309" stroke="#573240" stroke-miterlimit="10" stroke-linecap="round"/>
<path d="M656.207 245.512C657.177 245.512 657.963 244.726 657.963 243.756C657.963 242.786 657.177 242 656.207 242C655.236 242 654.45 242.786 654.45 243.756C654.45 244.726 655.236 245.512 656.207 245.512Z" stroke="#573240" stroke-miterlimit="10" stroke-linecap="round"/>
<path d="M630.859 254.144C631.515 254.144 632.047 253.612 632.047 252.956C632.047 252.3 631.515 251.768 630.859 251.768C630.202 251.768 629.67 252.3 629.67 252.956C629.67 253.612 630.202 254.144 630.859 254.144Z" fill="white"/>
<path d="M636.15 254.144C636.806 254.144 637.338 253.612 637.338 252.956C637.338 252.3 636.806 251.768 636.15 251.768C635.493 251.768 634.961 252.3 634.961 252.956C634.961 253.612 635.493 254.144 636.15 254.144Z" fill="white"/>
<path d="M641.441 254.144C642.097 254.144 642.629 253.612 642.629 252.956C642.629 252.3 642.097 251.768 641.441 251.768C640.785 251.768 640.253 252.3 640.253 252.956C640.253 253.612 640.785 254.144 641.441 254.144Z" fill="white"/>
<path d="M646.732 254.144C647.389 254.144 647.921 253.612 647.921 252.956C647.921 252.3 647.389 251.768 646.732 251.768C646.076 251.768 645.544 252.3 645.544 252.956C645.544 253.612 646.076 254.144 646.732 254.144Z" fill="white"/>
<path d="M652.023 254.144C652.68 254.144 653.212 253.612 653.212 252.956C653.212 252.3 652.68 251.768 652.023 251.768C651.367 251.768 650.835 252.3 650.835 252.956C650.835 253.612 651.367 254.144 652.023 254.144Z" fill="white"/>
<path d="M657.315 254.144C657.971 254.144 658.503 253.612 658.503 252.956C658.503 252.3 657.971 251.768 657.315 251.768C656.658 251.768 656.126 252.3 656.126 252.956C656.126 253.612 656.658 254.144 657.315 254.144Z" fill="white"/>
<path d="M662.606 254.144C663.262 254.144 663.794 253.612 663.794 252.956C663.794 252.3 663.262 251.768 662.606 251.768C661.95 251.768 661.417 252.3 661.417 252.956C661.417 253.612 661.95 254.144 662.606 254.144Z" fill="white"/>
<path d="M667.897 254.144C668.553 254.144 669.085 253.612 669.085 252.956C669.085 252.3 668.553 251.768 667.897 251.768C667.241 251.768 666.709 252.3 666.709 252.956C666.709 253.612 667.241 254.144 667.897 254.144Z" fill="white"/>
<path d="M632.218 258.221C632.875 258.221 633.407 257.689 633.407 257.033C633.407 256.377 632.875 255.845 632.218 255.845C631.562 255.845 631.03 256.377 631.03 257.033C631.03 257.689 631.562 258.221 632.218 258.221Z" fill="white"/>
<path d="M637.509 258.221C638.166 258.221 638.698 257.689 638.698 257.033C638.698 256.377 638.166 255.845 637.509 255.845C636.853 255.845 636.321 256.377 636.321 257.033C636.321 257.689 636.853 258.221 637.509 258.221Z" fill="white"/>
<path d="M642.801 258.221C643.457 258.221 643.989 257.689 643.989 257.033C643.989 256.377 643.457 255.845 642.801 255.845C642.144 255.845 641.612 256.377 641.612 257.033C641.612 257.689 642.144 258.221 642.801 258.221Z" fill="white"/>
<path d="M648.092 258.221C648.748 258.221 649.28 257.689 649.28 257.033C649.28 256.377 648.748 255.845 648.092 255.845C647.435 255.845 646.903 256.377 646.903 257.033C646.903 257.689 647.435 258.221 648.092 258.221Z" fill="white"/>
<path d="M653.383 258.221C654.039 258.221 654.571 257.689 654.571 257.033C654.571 256.377 654.039 255.845 653.383 255.845C652.727 255.845 652.195 256.377 652.195 257.033C652.195 257.689 652.727 258.221 653.383 258.221Z" fill="white"/>
<path d="M658.674 258.221C659.331 258.221 659.863 257.689 659.863 257.033C659.863 256.377 659.331 255.845 658.674 255.845C658.018 255.845 657.486 256.377 657.486 257.033C657.486 257.689 658.018 258.221 658.674 258.221Z" fill="white"/>
<path d="M663.966 258.221C664.622 258.221 665.154 257.689 665.154 257.033C665.154 256.377 664.622 255.845 663.966 255.845C663.309 255.845 662.777 256.377 662.777 257.033C662.777 257.689 663.309 258.221 663.966 258.221Z" fill="white"/>
<path d="M669.257 258.221C669.913 258.221 670.445 257.689 670.445 257.033C670.445 256.377 669.913 255.845 669.257 255.845C668.6 255.845 668.068 256.377 668.068 257.033C668.068 257.689 668.6 258.221 669.257 258.221Z" fill="white"/>
<path d="M633.772 262.492C634.428 262.492 634.961 261.96 634.961 261.304C634.961 260.648 634.428 260.116 633.772 260.116C633.116 260.116 632.583 260.648 632.583 261.304C632.583 261.96 633.116 262.492 633.772 262.492Z" fill="white"/>
<path d="M639.063 262.492C639.72 262.492 640.252 261.96 640.252 261.304C640.252 260.648 639.72 260.116 639.063 260.116C638.407 260.116 637.875 260.648 637.875 261.304C637.875 261.96 638.407 262.492 639.063 262.492Z" fill="white"/>
<path d="M644.354 262.492C645.011 262.492 645.543 261.96 645.543 261.304C645.543 260.648 645.011 260.116 644.354 260.116C643.698 260.116 643.166 260.648 643.166 261.304C643.166 261.96 643.698 262.492 644.354 262.492Z" fill="white"/>
<path d="M649.646 262.492C650.302 262.492 650.834 261.96 650.834 261.304C650.834 260.648 650.302 260.116 649.646 260.116C648.989 260.116 648.457 260.648 648.457 261.304C648.457 261.96 648.989 262.492 649.646 262.492Z" fill="white"/>
<path d="M654.937 262.492C655.593 262.492 656.125 261.96 656.125 261.304C656.125 260.648 655.593 260.116 654.937 260.116C654.281 260.116 653.749 260.648 653.749 261.304C653.749 261.96 654.281 262.492 654.937 262.492Z" fill="white"/>
<path d="M660.228 262.492C660.884 262.492 661.417 261.96 661.417 261.304C661.417 260.648 660.884 260.116 660.228 260.116C659.572 260.116 659.04 260.648 659.04 261.304C659.04 261.96 659.572 262.492 660.228 262.492Z" fill="white"/>
<path d="M665.519 262.492C666.176 262.492 666.708 261.96 666.708 261.304C666.708 260.648 666.176 260.116 665.519 260.116C664.863 260.116 664.331 260.648 664.331 261.304C664.331 261.96 664.863 262.492 665.519 262.492Z" fill="white"/>
<path d="M670.81 262.492C671.467 262.492 671.999 261.96 671.999 261.304C671.999 260.648 671.467 260.116 670.81 260.116C670.154 260.116 669.622 260.648 669.622 261.304C669.622 261.96 670.154 262.492 670.81 262.492Z" fill="white"/>
<path d="M634.937 266.763C635.594 266.763 636.126 266.231 636.126 265.575C636.126 264.919 635.594 264.387 634.937 264.387C634.281 264.387 633.749 264.919 633.749 265.575C633.749 266.231 634.281 266.763 634.937 266.763Z" fill="white"/>
<path d="M640.229 266.763C640.885 266.763 641.417 266.231 641.417 265.575C641.417 264.919 640.885 264.387 640.229 264.387C639.572 264.387 639.04 264.919 639.04 265.575C639.04 266.231 639.572 266.763 640.229 266.763Z" fill="white"/>
<path d="M645.52 266.763C646.176 266.763 646.708 266.231 646.708 265.575C646.708 264.919 646.176 264.387 645.52 264.387C644.864 264.387 644.332 264.919 644.332 265.575C644.332 266.231 644.864 266.763 645.52 266.763Z" fill="white"/>
<path d="M650.811 266.763C651.467 266.763 651.999 266.231 651.999 265.575C651.999 264.919 651.467 264.387 650.811 264.387C650.155 264.387 649.623 264.919 649.623 265.575C649.623 266.231 650.155 266.763 650.811 266.763Z" fill="white"/>
<path d="M656.102 266.763C656.759 266.763 657.291 266.231 657.291 265.575C657.291 264.919 656.759 264.387 656.102 264.387C655.446 264.387 654.914 264.919 654.914 265.575C654.914 266.231 655.446 266.763 656.102 266.763Z" fill="white"/>
<path d="M661.394 266.763C662.05 266.763 662.582 266.231 662.582 265.575C662.582 264.919 662.05 264.387 661.394 264.387C660.737 264.387 660.205 264.919 660.205 265.575C660.205 266.231 660.737 266.763 661.394 266.763Z" fill="white"/>
<path d="M666.685 266.763C667.341 266.763 667.873 266.231 667.873 265.575C667.873 264.919 667.341 264.387 666.685 264.387C666.028 264.387 665.496 264.919 665.496 265.575C665.496 266.231 666.028 266.763 666.685 266.763Z" fill="white"/>
<path d="M671.976 266.763C672.632 266.763 673.164 266.231 673.164 265.575C673.164 264.919 672.632 264.387 671.976 264.387C671.32 264.387 670.787 264.919 670.787 265.575C670.787 266.231 671.32 266.763 671.976 266.763Z" fill="white"/>
<path d="M635.52 271.228C636.176 271.228 636.708 270.697 636.708 270.04C636.708 269.384 636.176 268.853 635.52 268.853C634.864 268.853 634.332 269.384 634.332 270.04C634.332 270.697 634.864 271.228 635.52 271.228Z" fill="white"/>
<path d="M640.811 271.228C641.468 271.228 642 270.697 642 270.04C642 269.384 641.468 268.853 640.811 268.853C640.155 268.853 639.623 269.384 639.623 270.04C639.623 270.697 640.155 271.228 640.811 271.228Z" fill="white"/>
<path d="M646.102 271.228C646.759 271.228 647.291 270.697 647.291 270.04C647.291 269.384 646.759 268.853 646.102 268.853C645.446 268.853 644.914 269.384 644.914 270.04C644.914 270.697 645.446 271.228 646.102 271.228Z" fill="white"/>
<path d="M651.394 271.228C652.05 271.228 652.582 270.697 652.582 270.04C652.582 269.384 652.05 268.853 651.394 268.853C650.737 268.853 650.205 269.384 650.205 270.04C650.205 270.697 650.737 271.228 651.394 271.228Z" fill="white"/>
<path d="M656.685 271.228C657.341 271.228 657.873 270.697 657.873 270.04C657.873 269.384 657.341 268.853 656.685 268.853C656.028 268.853 655.496 269.384 655.496 270.04C655.496 270.697 656.028 271.228 656.685 271.228Z" fill="white"/>
<path d="M661.976 271.228C662.633 271.228 663.165 270.697 663.165 270.04C663.165 269.384 662.633 268.853 661.976 268.853C661.32 268.853 660.788 269.384 660.788 270.04C660.788 270.697 661.32 271.228 661.976 271.228Z" fill="white"/>
<path d="M667.267 271.228C667.924 271.228 668.456 270.697 668.456 270.04C668.456 269.384 667.924 268.853 667.267 268.853C666.611 268.853 666.079 269.384 666.079 270.04C666.079 270.697 666.611 271.228 667.267 271.228Z" fill="white"/>
<path d="M672.559 271.228C673.215 271.228 673.747 270.697 673.747 270.04C673.747 269.384 673.215 268.853 672.559 268.853C671.902 268.853 671.37 269.384 671.37 270.04C671.37 270.697 671.902 271.228 672.559 271.228Z" fill="white"/>
<path d="M585.872 57.0983L595.396 86.831C595.396 86.831 578.459 116.508 554.792 116.508C534.751 116.508 556.772 86.831 556.772 86.831C563.181 86.831 568.377 81.6373 568.377 75.2304V57.0981H585.872V57.0983Z" fill="#F1B104"/>
<path d="M568.376 53.5749V75.231C568.376 78.4345 567.078 81.3352 564.978 83.4344C562.878 85.5337 559.976 86.8316 556.771 86.8316C556.771 86.8316 556.719 86.9025 556.619 87.0367C547.764 86.9888 540.604 81.0476 540.604 73.728C540.604 67.2058 546.287 61.7803 553.792 60.6396C554.786 56.0461 558.951 52.601 563.938 52.601C565.526 52.601 567.032 52.95 568.376 53.5749Z" fill="#573240"/>
<path d="M592.451 43.9068C592.242 48.7322 588.623 50.3791 583.659 50.3791C579.954 50.3791 576.664 47.8542 575.232 44.5644C572.759 46.4662 569.184 47.3327 565.463 46.6368C559.259 45.475 555.001 40.4061 555.956 35.3142C556.909 30.2222 562.713 27.0379 568.918 28.1996C572.982 28.9607 576.21 31.3955 577.685 34.4169C579.119 33.6137 581.081 33.2647 583.659 33.5063C588.604 33.9702 592.722 37.6857 592.451 43.9068Z" fill="#573240"/>
<path d="M617.31 74.2226C617.31 81.847 610.283 88.0279 601.613 88.0279C592.944 88.0279 585.917 81.847 585.917 74.2226C585.917 71.251 586.985 68.4999 588.801 66.2472L584.816 53.8031C586.525 52.1275 588.949 51.0826 591.636 51.0826C596.817 51.0826 601.017 54.9687 601.017 59.7635C601.017 59.9878 601.007 60.2102 600.99 60.4306C601.197 60.423 601.404 60.4191 601.613 60.4191C610.283 60.4191 617.31 66.6 617.31 74.2226Z" fill="#573240"/>
<path d="M594.381 52.1639V52.9231C594.381 55.5918 592.215 57.7562 589.545 57.7562H584.752C584.327 60.561 582.422 62.9651 579.712 63.9908L572.028 66.8991C569.297 67.9324 566.271 66.3853 565.513 63.5652L564.404 59.4491C563.984 57.8885 563.771 56.28 563.771 54.6639V47.8274C563.771 42.8313 567.824 38.7804 572.82 38.7804H574.683C574.539 39.4763 574.472 40.224 574.472 41.0119C574.472 45.8431 578.693 50.3791 583.659 50.3791C583.979 50.3791 584.296 50.3714 584.605 50.3561C584.656 48.6747 586.035 47.3289 587.731 47.3289H589.545C592.215 47.3289 594.381 49.4933 594.381 52.1639Z" fill="#F1B104"/>
<path d="M586.672 52.7679C586.672 50.9059 588.182 49.3965 590.044 49.3965" stroke="#573240" stroke-miterlimit="10" stroke-linecap="round"/>
<path d="M573.709 58.0756C573.709 58.0756 571.962 59.7627 569.089 59.26" stroke="#573240" stroke-miterlimit="10" stroke-linecap="round"/>
<path d="M563.603 46.663C564.705 46.1032 566.106 46.1308 567.377 46.6995C569.766 47.7685 569.034 56.3211 569.034 56.3211" stroke="#573240" stroke-miterlimit="10" stroke-linecap="round"/>
<path d="M565.099 63.7726C565.858 66.591 568.884 68.139 571.615 67.1053L579.711 64.4033C582.799 63.234 584.817 61.3825 584.817 58.0813" stroke="#573240" stroke-miterlimit="10" stroke-linecap="round"/>
<path d="M565.646 52.5688C566.103 52.5688 566.473 51.9774 566.473 51.2479C566.473 50.5183 566.103 49.9269 565.646 49.9269C565.189 49.9269 564.818 50.5183 564.818 51.2479C564.818 51.9774 565.189 52.5688 565.646 52.5688Z" fill="#573240"/>
<path d="M572.714 46.7177C574.073 45.9863 576.263 46.0241 577.743 46.9622" stroke="#573240" stroke-miterlimit="10" stroke-linecap="round"/>
<path d="M574.917 52.5688C575.374 52.5688 575.745 51.9774 575.745 51.2479C575.745 50.5183 575.374 49.9269 574.917 49.9269C574.46 49.9269 574.09 50.5183 574.09 51.2479C574.09 51.9774 574.46 52.5688 574.917 52.5688Z" fill="#573240"/>
<path d="M326.517 385.739V247.469H366.722L326.517 385.739ZM416.492 199.289L290.991 180.413C263.882 177.052 245.934 201.197 251.268 227.975L271.489 408.152C275.155 407.679 279.397 407.43 283.342 407.43C296.623 407.43 308.725 410.267 317.374 414.834L322.449 399.728L322.45 399.725C322.45 399.725 322.569 403.099 326.517 406.371C328.788 408.252 332.328 410.102 337.842 411.254C349.021 413.591 364.259 405.629 377.771 413.509C378.12 413.712 378.456 413.923 378.78 414.142L441.648 241.47C449.029 222.575 436.633 201.787 416.492 199.289Z" fill="#573240"/>
<path d="M259.081 422.173C256.719 424.427 258.218 428.596 261.39 428.596H319.449C323.136 428.596 326.198 425.667 326.652 421.843C319.241 413.345 302.521 407.43 283.343 407.43C279.385 407.43 275.13 407.682 271.456 408.157L259.081 422.173Z" fill="#B2DDDA"/>
<path d="M257.11 424.989C257.251 426.76 258.58 428.389 260.563 428.389H318.621C322.308 428.389 326.134 424.884 326.032 420.603" stroke="#573240" stroke-miterlimit="10" stroke-linecap="round"/>
<path d="M387.7 428.389H339.482L317.578 414.221L322.451 399.724C322.451 399.724 322.745 408.099 337.842 411.255C349.021 413.591 364.259 405.629 377.77 413.508C386.528 418.614 387.7 428.389 387.7 428.389Z" fill="#B2DDDA"/>
<path d="M387.7 428.389H339.482L317.785 414.221" stroke="#573240" stroke-miterlimit="10" stroke-linecap="round"/>
<path d="M337.867 43.5905L354.073 37.2678L349.076 23.6599L323.419 25.1515L322.46 38.1899L337.867 43.5905Z" fill="white" stroke="#573240" stroke-miterlimit="10" stroke-linecap="round"/>
<path d="M349.061 16.4585L348.406 10.9188C348.177 8.78037 346.722 6.97039 344.681 6.29019C337.203 3.79886 319.303 -2.63182 313.003 1.81596C305.846 6.86821 318.095 15.2137 318.095 15.2137C318.095 15.2137 329.743 18.2208 332.864 17.9397C335.986 17.659 349.061 16.4585 349.061 16.4585Z" fill="#FF6E00"/>
<path d="M343.037 24.8072L342.364 29.3602C342.001 31.8105 340.007 33.6935 337.539 33.9157L323.982 35.1356C321.491 35.3597 319.289 33.5229 319.065 31.0327L317.821 17.2252C317.38 12.32 321 7.98576 325.907 7.54424L331.201 7.06783C333.85 6.82953 336.336 8.37188 337.298 10.8496L338.788 14.6887C339.346 16.1252 340.787 17.0193 342.323 16.8813C342.163 15.1078 343.472 13.5405 345.246 13.3808L346.169 13.2978C349.246 13.021 351.965 15.2897 352.242 18.3652C352.519 21.4407 350.249 24.1582 347.172 24.435L343.037 24.8072Z" fill="white" stroke="#573240" stroke-miterlimit="10" stroke-linecap="round"/>
<path d="M347.893 16.337C346.339 16.4768 345.192 17.8496 345.332 19.4029" stroke="#573240" stroke-miterlimit="10" stroke-linecap="round"/>
<path d="M326.344 27.3232C328.227 27.9944 330.248 27.151 330.859 25.4398" stroke="#573240" stroke-miterlimit="10" stroke-linecap="round"/>
<path d="M322.699 16.3199L323.37 23.7776C323.442 24.5711 324.23 25.0939 324.99 24.8514L326.551 24.4223" stroke="#573240" stroke-miterlimit="10" stroke-linecap="round"/>
<path d="M333.691 16.7355L329.129 16.5801C328.637 16.5634 328.252 16.1512 328.269 15.6596L328.294 14.9405C328.31 14.449 328.723 14.064 329.214 14.0809L333.776 14.2364C334.268 14.253 334.653 14.6652 334.636 15.1568L334.612 15.8759C334.595 16.3675 334.183 16.7522 333.691 16.7355Z" fill="#FF6E00"/>
<path d="M322.193 14.6873L317.68 15.3784C317.194 15.453 316.86 15.9073 316.935 16.3935L317.044 17.1048C317.118 17.591 317.573 17.9248 318.059 17.8502L322.571 17.159C323.058 17.0845 323.392 16.6301 323.317 16.1439L323.208 15.4326C323.134 14.9465 322.679 14.6129 322.193 14.6873Z" fill="#FF6E00"/>
<path d="M330.962 21.1267C331.415 21.0859 331.733 20.5015 331.671 19.8214C331.61 19.1413 331.193 18.623 330.74 18.6638C330.287 18.7046 329.969 19.289 330.031 19.9691C330.092 20.6492 330.509 21.1675 330.962 21.1267Z" fill="#573240"/>
<path d="M320.249 22.0911C320.702 22.0504 321.019 21.466 320.958 20.7858C320.897 20.1057 320.48 19.5875 320.027 19.6282C319.574 19.669 319.256 20.2534 319.317 20.9335C319.379 21.6136 319.795 22.1319 320.249 22.0911Z" fill="#573240"/>
<path d="M244.342 173.315C233.193 171.633 226.044 160.563 229.1 149.715L247.764 83.4708C251.264 70.6777 260.99 60.5149 273.62 56.4487L323.036 44.0218L337.699 43.0632L356.664 44.0218L405.483 58.5096C417.864 62.4954 427.469 72.3476 431.134 84.8224L446.237 133.543C451.707 151.188 438.513 169.079 420.033 169.079H416.448L416.492 199.289L244.342 173.315Z" fill="#F1B104"/>
<path d="M363.467 45.8968L348.031 51.169L337.883 43.9643L328.16 50.9619L314.418 46.194L321.117 38.5254C321.603 37.8889 322.443 37.6377 323.197 37.908L337.789 42.6204L353.551 36.7884C354.105 36.5756 354.734 36.7213 355.139 37.1546L363.467 45.8968Z" fill="#B2DDDA"/>
<path d="M384.688 278.613V387.91C384.688 411.645 398.982 431.907 419.103 439.886" stroke="#F1B104" stroke-miterlimit="10"/>
<path d="M374.416 278.613V387.91C374.416 412.601 358.948 433.533 337.543 440.79" stroke="#F1B104" stroke-miterlimit="10"/>
<path d="M374.416 390.573C374.416 387.738 376.715 385.439 379.552 385.439C382.389 385.439 384.688 387.738 384.688 390.573" stroke="#F1B104" stroke-miterlimit="10"/>
<path d="M375.177 278.362C492.929 278.362 588.387 252.188 588.387 219.901C588.387 187.613 492.929 161.439 375.177 161.439C257.424 161.439 161.967 187.613 161.967 219.901C161.967 252.188 257.424 278.362 375.177 278.362Z" fill="white"/>
<path d="M535.296 190.807H452.507L430.33 116.509H513.119L535.296 190.807Z" fill="#B2DDDA"/>
<path d="M430.33 116.509L465.237 89.3212L473.511 116.509H430.33Z" fill="#573240"/>
<path d="M459.787 142.557C462.736 137.572 468.82 134.152 475.848 134.152C482.875 134.152 488.959 137.572 491.908 142.557" stroke="white" stroke-miterlimit="10" stroke-linecap="round" stroke-linejoin="round"/>
<path d="M453.844 146.904H499.859" stroke="white" stroke-miterlimit="10" stroke-linecap="round" stroke-linejoin="round"/>
<path d="M455.292 151.66H501.307" stroke="white" stroke-miterlimit="10" stroke-linecap="round" stroke-linejoin="round"/>
<path d="M627.858 103.605C627.858 110.668 625.713 117.563 621.704 123.381C611.51 138.176 591.068 167.845 579.2 185.071C573.499 193.344 564.093 198.284 554.044 198.284H469.58C464.407 198.284 459.277 197.335 454.446 195.485L443.291 191.214C439.542 189.778 437.066 186.181 437.066 182.168V160.686C437.066 157.922 439.308 155.681 442.074 155.681L444.465 163.843C445.152 166.19 447.3 167.807 449.746 167.821L461.61 167.883C462.514 167.888 462.795 166.663 461.979 166.274L458.281 164.513C458.281 164.513 453.821 161.923 453.959 157.808H471.434C472.821 157.808 474.166 158.289 475.239 159.168L482.481 163.432H542.179C547.948 163.432 553.332 160.538 556.512 155.726L597.279 94.0502C600.258 89.5426 605.302 86.8308 610.707 86.8308H611.076C620.345 86.8308 627.858 94.3407 627.858 103.605Z" fill="#F1B104"/>
<path d="M450.875 188.279L442.881 185.218C439.132 183.782 436.656 180.473 437.121 171.457" stroke="#573240" stroke-miterlimit="10" stroke-linecap="round"/>
<path d="M451.068 182.283L443.074 179.222C439.325 177.786 436.856 173.761 437.065 165.239" stroke="#573240" stroke-miterlimit="10" stroke-linecap="round"/>
<path d="M451.204 175.38L442.877 172.192C439.127 170.756 437.065 167.365 437.065 163.352" stroke="#573240" stroke-miterlimit="10" stroke-linecap="round"/>
<path d="M437.066 173.897V160.686C437.066 157.922 439.308 155.68 442.074 155.68" stroke="#573240" stroke-miterlimit="10" stroke-linecap="round"/>
<path d="M383.006 212.456C404.388 212.456 421.721 202.232 421.721 189.62C421.721 177.007 404.388 166.783 383.006 166.783C361.624 166.783 344.29 177.007 344.29 189.62C344.29 202.232 361.624 212.456 383.006 212.456Z" fill="white" stroke="#B2DDDA" stroke-miterlimit="10"/>
<path d="M409.93 188.7C403.831 195.964 386.986 198.198 373.593 196.21C362.878 194.619 357.521 189.966 361.628 185.816C364.913 182.496 374.525 180.837 383.096 182.109C389.953 183.127 393.382 186.105 390.754 188.761C388.651 190.886 382.5 191.948 377.014 191.134C372.625 190.482 370.431 188.576 372.113 186.876C373.459 185.517 377.396 184.837 380.907 185.358C383.715 185.775 385.12 186.994 384.043 188.082C383.182 188.953 380.662 189.388 378.415 189.054C376.618 188.787 375.719 188.007 376.408 187.311" stroke="#F1B104" stroke-miterlimit="10" stroke-linecap="round"/>
<path d="M360.035 184.629C362.74 180.822 371.957 177.631 380.621 177.502" stroke="#F1B104" stroke-miterlimit="10" stroke-linecap="round"/>
<path d="M405.72 192.215C400.062 199.479 385.468 201.713 373.042 199.725" stroke="#F1B104" stroke-miterlimit="10" stroke-linecap="round"/>
<path d="M365.205 199.636C369.47 198.712 371.602 196.009 369.968 193.598C368.66 191.67 364.834 190.705 361.422 191.445C358.692 192.036 357.327 193.766 358.373 195.309C359.21 196.543 361.659 197.16 363.843 196.687C365.59 196.308 366.463 195.201 365.794 194.214" stroke="#F1B104" stroke-miterlimit="10" stroke-linecap="round"/>
<path d="M402.038 193.865C405.339 193.045 406.989 190.648 405.724 188.511C404.712 186.8 402.372 185.945 399.731 186.601C397.619 187.125 396.479 188.5 397.166 189.821C397.752 190.949 398.881 191.256 400.571 190.836C401.923 190.501 402.893 188.809 401.874 188.437" stroke="#F1B104" stroke-miterlimit="10" stroke-linecap="round"/>
<path d="M381.426 126.026L398.134 175.911" stroke="#573240" stroke-miterlimit="10" stroke-linecap="round"/>
<path d="M393.929 177.258L390.82 170.033C389.843 167.762 391.016 165.143 393.36 164.358L394.821 163.937C397.166 163.152 399.68 164.538 400.268 166.938L402.138 174.578" stroke="#573240" stroke-miterlimit="10" stroke-linecap="round"/>
<path d="M367.137 186.137C369.593 186.137 371.584 184.147 371.584 181.692C371.584 179.237 369.593 177.247 367.137 177.247C364.68 177.247 362.689 179.237 362.689 181.692C362.689 184.147 364.68 186.137 367.137 186.137Z" fill="#FF6E00"/>
<path d="M401.932 169.261C402.694 169.261 403.964 169.931 403.143 170.702C402.7 171.117 399.97 171.799 396.056 171.799C392.143 171.799 389.434 170.678 388.97 170.288C388.196 169.638 388.715 168.858 389.513 168.858" stroke="#F1B104" stroke-miterlimit="10" stroke-linecap="round"/>
<path d="M401.189 171.34C402.148 171.116 402.402 171.646 402.208 172.11C401.974 172.67 400.794 173.855 396.808 174.451C392.822 175.047 389.339 174.42 389.222 173.825C389.105 173.232 389.573 172.796 390.769 172.59" stroke="#F1B104" stroke-miterlimit="10" stroke-linecap="round"/>
<path d="M401.154 173.147C402.283 172.796 404.582 174.498 402.969 175.911C401.356 177.325 385.795 174.987 386.633 178.998C387.314 182.261 408.403 185.1 407.989 180.044C407.774 177.408 401.734 177.242 402.264 180.39" stroke="#F1B104" stroke-miterlimit="10" stroke-linecap="round"/>
<path d="M388.25 195.303C390.519 195.303 392.359 193.464 392.359 191.196C392.359 188.927 390.519 187.089 388.25 187.089C385.98 187.089 384.141 188.927 384.141 191.196C384.141 193.464 385.98 195.303 388.25 195.303Z" fill="#FF6E00"/>
<path d="M380.148 195.416C381.465 195.416 382.533 194.348 382.533 193.032C382.533 191.715 381.465 190.648 380.148 190.648C378.831 190.648 377.763 191.715 377.763 193.032C377.763 194.348 378.831 195.416 380.148 195.416Z" fill="#FF6E00"/>
<path d="M401.947 200.198C404.268 200.198 406.15 198.317 406.15 195.997C406.15 193.677 404.268 191.796 401.947 191.796C399.626 191.796 397.744 193.677 397.744 195.997C397.744 198.317 399.626 200.198 401.947 200.198Z" fill="#FF6E00"/>
<path d="M344.962 129.638L276.53 180.925C271.28 184.857 264.895 186.985 258.336 186.985C249.735 186.985 242.15 183.471 236.71 177.933C229.502 170.586 226.073 159.681 229.073 148.685H229.075C232.343 136.714 241.294 127.113 253.011 123.01L321.116 99.1553C328.458 96.5844 331.676 95.3306 338.049 94.9318C337.47 95.0028 336.895 95.1236 336.325 95.2961C329.282 97.4241 325.853 106.483 328.665 115.785C331.152 124.011 339.114 131.185 344.962 129.638Z" fill="#F1B104"/>
<path d="M253.011 123.009L321.115 97.9146C329.803 94.8709 340.462 95.0473 345.851 95.208L348.126 127.266L276.53 180.925" stroke="#573240" stroke-miterlimit="10" stroke-linecap="round"/>
<path d="M354.169 108.082C356.981 117.384 354.367 123.025 347.129 128.569C341.29 133.042 331.477 125.086 328.666 115.784C325.854 106.482 329.283 97.423 336.326 95.2962C343.368 93.1693 351.357 98.7792 354.169 108.082Z" fill="#573240"/>
<path d="M363.549 125.127C364.092 125.127 364.601 125.429 364.852 125.922C365.216 126.628 364.95 127.496 364.255 127.878L361.61 129.329C361.188 129.559 361.041 130.094 361.284 130.508C362.238 132.126 363.945 133.027 365.698 133.027C366.566 133.027 367.445 132.807 368.249 132.343L381.293 125.803L385.547 138.533L386.913 137.72C388.668 136.673 389.561 134.63 389.134 132.632L384.943 113.033C384.126 109.381 381.519 106.386 378.015 105.069L357.107 97.2149C353.528 95.8384 349.717 95.1463 345.879 95.175L336.517 95.2958C329.474 97.4238 325.853 106.482 328.665 115.784C329.892 119.843 332.835 123.455 335.817 126.079L340.957 122.013C342.597 124.103 344.546 125.054 346.978 125.305L363.549 125.127Z" fill="white" stroke="#573240" stroke-miterlimit="10" stroke-linecap="round"/>
<path d="M377.835 113.104L381.294 125.803" stroke="#573240" stroke-miterlimit="10" stroke-linecap="round"/>
<path d="M376.329 128.077L372.87 115.379" stroke="#573240" stroke-miterlimit="10" stroke-linecap="round"/>
<path d="M371.985 130.352L368.526 117.653" stroke="#573240" stroke-miterlimit="10" stroke-linecap="round"/>
<path d="M437.197 260.057C451.714 260.057 463.483 250.827 463.483 239.442C463.483 228.056 451.714 218.826 437.197 218.826C422.679 218.826 410.91 228.056 410.91 239.442C410.91 250.827 422.679 260.057 437.197 260.057Z" fill="#B2DDDA"/>
<path d="M458.187 247.202H420.145C419.346 247.202 418.698 246.554 418.698 245.755V238.502H458.187V247.202Z" fill="white"/>
<path d="M458.187 238.502H418.698C418.698 238.502 423.366 228.464 437.73 225.746L458.187 238.502Z" fill="#FF6E00"/>
<path d="M434.304 228.497C435.228 228.497 435.978 227.747 435.978 226.823C435.978 225.899 435.228 225.15 434.304 225.15C433.379 225.15 432.629 225.899 432.629 226.823C432.629 227.747 433.379 228.497 434.304 228.497Z" fill="#FCD4D0"/>
<path d="M420.862 228.897C422.614 227.798 424.956 228.089 426.39 229.686C426.613 229.935 426.801 230.197 426.955 230.479C425.206 231.581 422.864 231.29 421.43 229.693C421.207 229.445 421.019 229.176 420.862 228.897Z" fill="#F1B104"/>
<path d="M427.41 230.568C429.001 230.568 430.291 229.279 430.291 227.689C430.291 226.098 429.001 224.809 427.41 224.809C425.819 224.809 424.529 226.098 424.529 227.689C424.529 229.279 425.819 230.568 427.41 230.568Z" fill="#573240"/>
<path d="M433.28 224.082C433.606 226.124 432.421 228.164 430.39 228.858C430.073 228.966 429.758 229.036 429.439 229.067C429.109 227.027 430.294 224.987 432.325 224.293C432.641 224.185 432.962 224.117 433.28 224.082Z" fill="#F1B104"/>
<path d="M422.706 235.286C424.099 235.286 425.227 234.158 425.227 232.766C425.227 231.374 424.099 230.246 422.706 230.246C421.314 230.246 420.185 231.374 420.185 232.766C420.185 234.158 421.314 235.286 422.706 235.286Z" fill="#573240"/>
<path d="M431.105 231.135C432.103 231.135 432.912 230.326 432.912 229.328C432.912 228.33 432.103 227.521 431.105 227.521C430.106 227.521 429.297 228.33 429.297 229.328C429.297 230.326 430.106 231.135 431.105 231.135Z" fill="#573240"/>
<path d="M428.483 232.375C429.481 232.375 430.291 231.566 430.291 230.568C430.291 229.57 429.481 228.761 428.483 228.761C427.484 228.761 426.675 229.57 426.675 230.568C426.675 231.566 427.484 232.375 428.483 232.375Z" fill="#FCD4D0"/>
<path d="M426.955 235.943C427.756 235.943 428.406 235.293 428.406 234.492C428.406 233.691 427.756 233.042 426.955 233.042C426.153 233.042 425.503 233.691 425.503 234.492C425.503 235.293 426.153 235.943 426.955 235.943Z" fill="#FCD4D0"/>
<path d="M435.118 233.826C436.022 233.826 436.756 233.093 436.756 232.189C436.756 231.285 436.022 230.552 435.118 230.552C434.213 230.552 433.48 231.285 433.48 232.189C433.48 233.093 434.213 233.826 435.118 233.826Z" fill="#573240"/>
<path d="M324.371 152.717C324.371 157.036 320.867 160.536 316.546 160.536C312.225 160.536 308.722 157.036 308.722 152.717C308.722 148.397 312.225 144.897 316.546 144.897C320.867 144.897 324.371 148.397 324.371 152.717Z" stroke="#573240" stroke-miterlimit="10" stroke-linecap="round"/>
<path d="M305.739 190.47C307.03 187.447 311.378 185.223 316.545 185.223C321.724 185.223 326.083 187.457 327.362 190.492L334.737 212.803C336.765 218.934 332.194 225.253 325.734 225.253H307.36C300.9 225.253 296.331 218.934 298.358 212.803L305.739 190.47Z" fill="#FF6E00"/>
<path d="M325.734 225.252H307.359C300.899 225.252 296.33 218.934 298.357 212.803L308.722 181.438V152.716C308.722 157.035 312.225 160.536 316.546 160.536C320.867 160.536 324.371 157.035 324.371 152.716V181.438L334.737 212.803C336.764 218.934 332.194 225.252 325.734 225.252Z" stroke="#573240" stroke-miterlimit="10" stroke-linecap="round"/>
<path d="M319.392 215.638C316.917 219.969 312.222 220.424 308.098 218.07C303.974 215.715 301.982 211.442 304.458 207.11L319.392 215.638Z" fill="white"/>
<path d="M319.374 216.045C317.453 219.506 312.045 220.593 307.891 218.272C303.745 215.955 301.996 210.995 304.051 207.311" stroke="#F1B104" stroke-miterlimit="10" stroke-linecap="round"/>
<path d="M310.647 216.828C310.604 217.067 310.356 217.212 310.14 217.125C309.745 216.967 309.352 216.776 308.965 216.555C308.578 216.334 308.215 216.093 307.877 215.833C307.693 215.691 307.692 215.404 307.876 215.246L311.486 212.145L310.647 216.828Z" fill="#F1B104"/>
<path d="M317.773 215.198C317.414 215.702 317.012 216.126 316.576 216.474C316.405 216.61 316.163 216.572 316.05 216.393L313.44 212.239L317.67 214.654C317.856 214.76 317.904 215.014 317.773 215.198Z" fill="#F1B104"/>
<path d="M310.404 210.505L305.507 210.372C305.295 210.367 305.139 210.177 305.17 209.96C305.248 209.409 305.409 208.847 305.662 208.282C305.753 208.076 305.996 207.988 306.183 208.095L310.404 210.505Z" fill="#F1B104"/>
<path d="M314.911 217.389C313.959 217.717 312.926 217.783 311.876 217.614C311.681 217.582 311.551 217.398 311.584 217.196L312.369 212.355L315.115 216.826C315.24 217.029 315.14 217.311 314.911 217.389Z" fill="#F1B104"/>
<path d="M310.714 211.41L306.986 214.508C306.827 214.64 306.598 214.619 306.474 214.463C305.831 213.652 305.392 212.743 305.209 211.775C305.165 211.539 305.356 211.315 305.592 211.319L310.714 211.41Z" fill="#F1B104"/>
<path d="M317.275 204.54C321.331 204.54 324.619 201.253 324.619 197.2C324.619 193.146 321.331 189.859 317.275 189.859C313.22 189.859 309.932 193.146 309.932 197.2C309.932 201.253 313.22 204.54 317.275 204.54Z" fill="white"/>
<path d="M317.275 204.623C321.377 204.623 324.702 201.299 324.702 197.199C324.702 193.099 321.377 189.776 317.275 189.776C313.173 189.776 309.848 193.099 309.848 197.199C309.848 201.299 313.173 204.623 317.275 204.623Z" stroke="#F1B104" stroke-miterlimit="10" stroke-linecap="round"/>
<path d="M318.974 191.839L317.581 196.009C317.513 196.211 317.127 196.218 317.046 196.019L315.372 191.876C315.26 191.639 315.443 191.386 315.768 191.313C316.208 191.215 316.665 191.164 317.134 191.164C317.634 191.164 318.122 191.223 318.59 191.334C318.875 191.402 319.038 191.624 318.974 191.839Z" fill="#EFAF00"/>
<path d="M318.974 202.83L317.581 198.66C317.513 198.458 317.127 198.451 317.046 198.65L315.372 202.793C315.26 203.03 315.443 203.283 315.768 203.356C316.208 203.454 316.665 203.505 317.134 203.505C317.634 203.505 318.122 203.446 318.59 203.335C318.875 203.267 319.038 203.045 318.974 202.83Z" fill="#EFAF00"/>
<path d="M323.583 197.291C323.583 197.669 323.552 198.039 323.493 198.4C323.447 198.683 323.057 198.862 322.696 198.76L318.509 197.483C318.27 197.41 318.285 197.156 318.532 197.099L322.737 196.117C323.105 196.013 323.502 196.2 323.536 196.49C323.567 196.753 323.583 197.02 323.583 197.291Z" fill="#EFAF00"/>
<path d="M322.575 200.08C322.229 200.795 321.761 201.436 321.2 201.976C320.937 202.229 320.404 202.189 320.209 201.905L317.964 198.489C317.851 198.317 318.092 198.135 318.328 198.214L322.239 199.529C322.532 199.616 322.681 199.86 322.575 200.08Z" fill="#EFAF00"/>
<path d="M322.63 195.011L318.617 196.358C318.386 196.435 318.147 196.262 318.248 196.09L320.408 192.413C320.587 192.121 321.122 192.063 321.396 192.312C322.054 192.908 322.593 193.642 322.969 194.468C323.068 194.686 322.919 194.925 322.63 195.011Z" fill="#EFAF00"/>
<path d="M311.215 197.291C311.215 197.669 311.246 198.039 311.304 198.4C311.351 198.683 311.74 198.862 312.102 198.76L316.288 197.483C316.527 197.41 316.512 197.156 316.266 197.099L312.06 196.117C311.692 196.013 311.295 196.2 311.261 196.49C311.231 196.753 311.215 197.02 311.215 197.291Z" fill="#EFAF00"/>
<path d="M312.056 200.08C312.401 200.795 312.869 201.436 313.43 201.976C313.693 202.229 314.226 202.189 314.422 201.905L316.667 198.489C316.78 198.317 316.539 198.135 316.303 198.214L312.391 199.529C312.098 199.616 311.95 199.86 312.056 200.08Z" fill="#EFAF00"/>
<path d="M312.168 195.011L316.18 196.358C316.411 196.435 316.65 196.262 316.549 196.09L314.389 192.413C314.211 192.121 313.675 192.063 313.401 192.312C312.743 192.908 312.204 193.642 311.828 194.468C311.729 194.686 311.878 194.925 312.168 195.011Z" fill="#EFAF00"/>
<path d="M252.219 227.088C256.309 227.088 259.624 223.774 259.624 219.686C259.624 215.599 256.309 212.285 252.219 212.285C248.13 212.285 244.815 215.599 244.815 219.686C244.815 223.774 248.13 227.088 252.219 227.088Z" fill="#B2DDDA"/>
<path d="M268.808 229.584C272.66 229.584 275.783 226.462 275.783 222.611C275.783 218.76 272.66 215.638 268.808 215.638C264.955 215.638 261.832 218.76 261.832 222.611C261.832 226.462 264.955 229.584 268.808 229.584Z" fill="#F1B104"/>
<path d="M279.932 215.023C279.932 220.196 271.39 224.391 260.855 224.391C250.32 224.391 241.782 220.196 241.782 215.023C241.782 214.992 241.782 214.963 241.784 214.932C241.883 209.8 250.383 205.657 260.856 205.657C271.329 205.657 279.83 209.8 279.93 214.932C279.932 214.963 279.932 214.992 279.932 215.023Z" stroke="#B2DDDA" stroke-miterlimit="10"/>
<path d="M269.124 238.859C267.669 240.076 264.515 240.922 260.856 240.922C257.196 240.922 254.041 240.076 252.587 238.859L254.239 234.883L254.321 234.686C256.36 235.429 258.56 235.834 260.856 235.834C263.152 235.834 265.352 235.429 267.39 234.686L267.473 234.883L269.124 238.859Z" fill="white" stroke="#B2DDDA" stroke-miterlimit="10"/>
<path d="M262.583 216.157C266.34 216.157 269.386 213.113 269.386 209.357C269.386 205.602 266.34 202.557 262.583 202.557C258.826 202.557 255.78 205.602 255.78 209.357C255.78 213.113 258.826 216.157 262.583 216.157Z" fill="#FCD4D0"/>
<path d="M245.155 189.03C245.419 188.868 245.759 188.97 245.891 189.245L258.548 215.546C259.17 216.837 260.347 217.762 261.741 218.097C263.205 218.448 264.621 219.608 265.439 221.309C266.72 223.971 266.053 226.947 263.949 227.958C261.846 228.97 259.103 227.633 257.822 224.972C257.003 223.27 256.981 221.441 257.62 220.078C258.228 218.781 258.24 217.284 257.618 215.993L244.973 189.717C244.856 189.475 244.925 189.17 245.155 189.03Z" fill="#573240"/>
<path d="M279.932 215.023V216.768C279.932 225.004 274.708 232.021 267.39 234.686C265.352 235.429 263.152 235.834 260.856 235.834C258.56 235.834 256.36 235.429 254.321 234.686C247.004 232.021 241.781 225.004 241.781 216.768V215.023C241.781 220.196 250.32 224.392 260.856 224.392C271.391 224.392 279.932 220.196 279.932 215.023Z" fill="white" stroke="#B2DDDA" stroke-miterlimit="10"/>
<path d="M489.789 236.532C500.37 236.532 508.948 228.273 508.948 218.084C508.948 207.895 500.37 199.636 489.789 199.636C479.208 199.636 470.63 207.895 470.63 218.084C470.63 228.273 479.208 236.532 489.789 236.532Z" fill="white" stroke="#B2DDDA" stroke-miterlimit="10"/>
<path d="M479.697 199.816V214.108C479.697 219.087 483.735 223.123 488.715 223.123H490.863C495.843 223.123 499.881 219.087 499.881 214.108V199.816H479.697Z" fill="white" stroke="#B2DDDA" stroke-miterlimit="10"/>
<path d="M489.789 208.098C495.363 208.098 499.881 204.39 499.881 199.816C499.881 195.241 495.363 191.533 489.789 191.533C484.215 191.533 479.697 195.241 479.697 199.816C479.697 204.39 484.215 208.098 489.789 208.098Z" fill="white" stroke="#B2DDDA" stroke-miterlimit="10"/>
<path d="M503.405 208.432C505.363 208.432 506.951 206.845 506.951 204.888C506.951 202.93 505.363 201.343 503.405 201.343C501.447 201.343 499.859 202.93 499.859 204.888C499.859 206.845 501.447 208.432 503.405 208.432Z" stroke="#B2DDDA" stroke-miterlimit="10"/>
<path d="M499.079 201.936C497.909 205.24 494.191 207.655 489.789 207.655C485.337 207.655 481.589 205.189 480.462 201.831C482.876 199.554 486.132 198.156 489.715 198.156C493.354 198.156 496.654 199.595 499.079 201.936Z" fill="#573240"/>
<path d="M540.636 225.841C540.667 226.151 540.427 226.412 540.121 226.412H510.853C509.416 226.412 508.068 227.073 507.16 228.186C506.206 229.356 504.543 230.13 502.649 230.13C499.687 230.13 497.288 228.234 497.288 225.896C497.288 223.557 499.687 221.661 502.649 221.661C504.543 221.661 506.206 222.435 507.16 223.605C508.068 224.718 509.416 225.379 510.853 225.379H540.093C540.363 225.379 540.608 225.573 540.636 225.841Z" fill="#F1B104"/>
<path d="M222.184 233.341H202.947L202.949 218.08C203.015 213.796 207.295 210.337 212.565 210.337C217.836 210.337 222.116 213.796 222.182 218.08L222.184 233.341Z" fill="#FF6E00"/>
<path d="M222.184 195.231V233.341H202.947V195.231C202.947 199.563 207.253 203.073 212.565 203.073C217.877 203.073 222.184 199.563 222.184 195.231Z" stroke="#573240" stroke-miterlimit="10" stroke-linecap="round"/>
<path d="M222.184 195.231C222.184 199.563 217.877 203.073 212.565 203.073C207.253 203.073 202.947 199.562 202.947 195.231C202.947 195.198 202.947 195.163 202.949 195.13C203.015 190.845 207.295 187.386 212.565 187.386C217.836 187.386 222.116 190.845 222.182 195.13C222.184 195.163 222.184 195.198 222.184 195.231Z" stroke="#573240" stroke-miterlimit="10" stroke-linecap="round"/>
<path d="M212.565 201.873V179.41C212.565 175.508 209.558 172.264 205.665 171.967L181.039 170.092" stroke="#FF6E00" stroke-miterlimit="10" stroke-linecap="round"/>
<path d="M194.598 177.09C196.248 177.09 197.585 175.753 197.585 174.105C197.585 172.456 196.248 171.119 194.598 171.119C192.949 171.119 191.611 172.456 191.611 174.105C191.611 175.753 192.949 177.09 194.598 177.09Z" stroke="#FF6E00" stroke-miterlimit="10"/>
<path d="M212.565 204.223V212.09" stroke="#FF6E00" stroke-miterlimit="10" stroke-linecap="round"/>
<path d="M217.597 294.999C204.282 311.321 185.939 313.67 184.824 313.798L169.592 287.213C168.611 285.542 166.82 284.516 164.883 284.522L149.859 284.579L150.009 247.128H174.3C185.054 247.128 194.944 253.023 200.055 262.482L217.597 294.999Z" fill="#B2DDDA"/>
<path d="M228.852 316.139C214.914 326.524 200.243 330.395 197.109 331.135L184.771 313.804C184.771 313.804 184.788 313.802 184.824 313.798C185.939 313.67 204.282 311.322 217.597 294.999C217.62 294.97 217.645 294.941 217.668 294.913L222.597 304.268L228.852 316.139Z" fill="#F1B104"/>
<path d="M234.054 326.013C230.039 327.87 224.897 329.297 219.899 330.28C218.355 330.585 217.628 328.449 219.034 327.742C225.856 324.308 231.14 320.484 231.14 320.484L234.054 326.013Z" fill="#F1B104"/>
<path d="M184.77 314.632C184.77 314.632 203.925 311.832 217.669 294.912" stroke="white" stroke-miterlimit="10" stroke-linecap="round" stroke-linejoin="round"/>
<path d="M241.806 337.266L205.663 343.029L204.315 341.196L243.026 335.012C243.542 334.952 243.847 334.515 243.833 334.074C244.253 335.51 243.321 337.025 241.806 337.266Z" fill="white"/>
<path d="M243.026 335.011L204.314 341.196L196.938 331.175C199.67 330.543 214.641 326.728 228.852 316.139L231.14 320.483C231.14 320.483 225.857 324.307 219.033 327.741C217.628 328.449 218.355 330.585 219.899 330.281C224.897 329.296 230.041 327.87 234.055 326.012L234.098 326.096L243.482 333.388C244.128 333.888 243.837 334.92 243.026 335.011Z" fill="#573240"/>
<path d="M193.029 285.068L188.696 313.805C167.595 319.293 150.498 313.805 150.498 313.805V288.221C150.498 286.209 148.868 284.58 146.858 284.58H118.039C101.017 284.58 87.2195 270.787 87.2195 253.774V247.129H160.367C180.571 247.129 196.041 265.096 193.029 285.068Z" fill="#B2DDDA"/>
<path d="M170.332 341.056C177.864 342.331 184.387 342.381 184.387 342.381L183.455 348.562C179.122 347.68 174.131 345.782 169.522 343.614C168.099 342.945 168.78 340.794 170.332 341.056Z" fill="#F1B104"/>
<path d="M188.695 313.804L185.12 337.527C167.394 337.638 153.074 331.843 150.498 330.734V313.804C150.498 313.804 167.595 319.293 188.695 313.804Z" fill="#F1B104"/>
<path d="M87.2188 247.542V253.774C87.2188 270.787 101.016 284.58 118.038 284.58H146.857C148.868 284.58 150.497 286.209 150.497 288.221V313.806C150.497 313.806 167.594 319.293 188.695 313.806L193.029 285.068C196.041 265.097 180.57 247.129 160.366 247.129H154.597" stroke="white" stroke-miterlimit="10" stroke-linecap="round" stroke-linejoin="round"/>
<path d="M186.631 360.713L186.627 360.765C186.516 362.275 184.897 363.182 183.551 362.488L150.498 345.45V343.175L185.346 361.125C185.849 361.414 186.422 361.163 186.631 360.713Z" fill="white"/>
<path d="M186.677 360.086L186.631 360.713C186.422 361.163 185.848 361.415 185.346 361.125L150.498 343.175V330.734C153.074 331.843 167.394 337.638 185.12 337.527L184.387 342.381C184.387 342.381 177.864 342.331 170.332 341.056C168.78 340.794 168.099 342.945 169.522 343.614C174.131 345.782 179.122 347.68 183.455 348.562L183.441 348.654L186.677 360.086Z" fill="#573240"/>
<path d="M171.794 203.515C174.886 206.829 191.063 220.744 217.396 219.91C217.396 219.91 218.079 222.654 216.195 223.751C215.04 224.425 209.615 226.434 209.454 228.691C209.363 229.971 215.494 229.971 217.965 227.776C220.435 225.581 220.802 220.212 226.045 220.943L223.868 235.932C222.199 240.996 214.626 244.63 209.324 245.203C195.104 246.739 171.789 247.229 153.04 230.735L171.794 203.515Z" fill="#F1B104"/>
<path d="M126.726 175.164C124.722 178.613 120.732 180.965 116.137 180.965C109.529 180.965 104.172 176.104 104.172 170.107C104.172 164.367 109.083 159.666 115.299 159.277C116.053 155.299 119.551 152.289 123.751 152.289C125.953 152.289 127.963 153.117 129.486 154.478V151.581C129.486 145.069 135.02 139.929 141.518 140.406L150.68 141.089C155.613 141.457 159.045 146.15 157.898 150.96L154.29 164.952H154.332C159.396 164.952 163.5 169.054 163.5 174.115C163.5 179.177 159.396 183.279 154.332 183.279C152.672 183.279 151.115 182.838 149.772 182.067L126.726 175.164Z" fill="#573240"/>
<path d="M149.71 169.269V180.595C145.833 176.891 140.81 174.639 135.486 174.198C137.11 172.781 138.138 170.697 138.138 168.372C138.138 166.849 137.699 165.433 136.938 164.238H132.948C130.702 164.238 128.88 162.419 128.88 160.172V159.534C128.88 157.289 130.702 155.469 132.948 155.469H134.036C135.699 155.469 137.047 156.817 137.047 158.479V159.148C137.047 157.237 138.532 155.669 140.438 155.533C144.218 155.264 150.268 153.759 153.87 147.346C154.171 146.808 154.986 146.973 155.047 147.588L156.449 161.401C156.864 165.49 153.762 169.056 149.71 169.269Z" fill="#F1B104"/>
<path d="M149.948 169.672H146.062C142.336 169.672 138.501 167.677 136.652 164.442" stroke="#573240" stroke-miterlimit="10" stroke-linecap="round"/>
<path d="M135.101 160.124C135.101 158.751 133.988 157.638 132.615 157.638" stroke="#573240" stroke-miterlimit="10" stroke-linecap="round"/>
<path d="M151.15 163.631C149.824 163.986 148.253 163.199 147.898 161.873L146.828 162.693" stroke="#573240" stroke-miterlimit="10" stroke-linecap="round" stroke-linejoin="round"/>
<path d="M156.18 154.392C155.577 153.002 154.253 152.435 152.696 153.09C151.827 153.456 149.525 156.772 151.113 160.123" stroke="#573240" stroke-miterlimit="10" stroke-linecap="round"/>
<path d="M153.585 158.264C153.976 158.264 154.294 157.752 154.294 157.121C154.294 156.489 153.976 155.978 153.585 155.978C153.193 155.978 152.875 156.489 152.875 157.121C152.875 157.752 153.193 158.264 153.585 158.264Z" fill="#573240"/>
<path d="M146.345 158.264C146.736 158.264 147.054 157.752 147.054 157.121C147.054 156.489 146.736 155.978 146.345 155.978C145.953 155.978 145.635 156.489 145.635 157.121C145.635 157.752 145.953 158.264 146.345 158.264Z" fill="#573240"/>
<path d="M171.794 203.515L150.409 181.291C145.998 176.706 139.909 174.115 133.545 174.115C124.775 174.115 116.741 179.017 112.733 186.814L81.7272 247.703H154.597L153.04 230.735L171.794 203.515Z" fill="#FF6E00"/>
<path d="M153.04 230.735C149.171 227.776 137.183 219.452 132.059 210.122" stroke="#573240" stroke-miterlimit="10" stroke-linecap="round"/>
</svg>
