<svg width="959" height="671" viewBox="0 0 959 671" fill="none" xmlns="http://www.w3.org/2000/svg">
<path d="M844.329 316.981V519.49C844.329 545.122 823.542 565.901 797.898 565.901H667.584C645.138 565.901 626.412 549.981 622.091 528.821C622.029 527.516 621.82 526.226 621.47 524.948C617.937 512.094 600.051 500.68 573.397 492.635C548.312 485.062 515.46 480.471 479.5 480.471C443.54 480.471 410.688 485.062 385.603 492.635C358.952 500.678 341.067 512.092 337.532 524.944C337.18 526.224 336.969 527.516 336.909 528.823C332.588 549.983 313.862 565.902 291.416 565.902H161.104C135.46 565.902 114.671 545.124 114.671 519.492V316.981C114.671 281.939 143.093 253.53 178.153 253.53H197.918C206.146 242.156 216.791 233.019 228.888 226.628C241.711 219.852 256.164 216.162 271.1 216.162H308.024C327.514 195.467 361.971 181.717 401.226 181.717C430.959 181.717 457.939 189.605 477.748 202.422C497.964 189.603 525.498 181.717 555.842 181.717C595.903 181.717 631.07 195.465 650.962 216.16H687.902C702.837 216.16 717.292 219.85 730.112 226.626C742.211 233.019 752.858 242.156 761.084 253.53H780.849C815.909 253.53 844.329 281.937 844.329 316.981Z" fill="#FCD4D0"/>
<path d="M592.721 487.626C586.553 484.851 579.629 482.302 572.158 480.023C547.334 472.449 514.823 467.859 479.237 467.859C443.652 467.859 411.141 472.449 386.316 480.023C376.262 483.089 367.258 486.645 359.771 490.583" stroke="white" stroke-miterlimit="10" stroke-linecap="round" stroke-linejoin="round"/>
<path d="M195.683 252.909C210.618 252.909 224.539 260.466 232.67 272.989" stroke="white" stroke-miterlimit="10" stroke-linecap="round" stroke-linejoin="round"/>
<path d="M300.357 215.321C315.292 215.321 329.212 222.878 337.344 235.401" stroke="white" stroke-miterlimit="10" stroke-linecap="round" stroke-linejoin="round"/>
<path d="M771.309 252.909C756.374 252.909 742.453 260.466 734.322 272.989" stroke="white" stroke-miterlimit="10" stroke-linecap="round" stroke-linejoin="round"/>
<path d="M795.547 401.406H693.419C669.919 401.406 650.868 420.448 650.868 443.938" stroke="white" stroke-miterlimit="10" stroke-linecap="round" stroke-linejoin="round"/>
<path d="M655.916 215.321C640.98 215.321 627.06 222.878 618.929 235.401" stroke="white" stroke-miterlimit="10" stroke-linecap="round" stroke-linejoin="round"/>
<path d="M158.922 409.263H268.29C291.79 409.263 310.841 428.305 310.841 451.795" stroke="white" stroke-miterlimit="10" stroke-linecap="round" stroke-linejoin="round"/>
<path d="M740.306 233.011L716.177 312.983C716.177 312.983 726.21 321.877 731.333 333.993C744.66 365.524 721.502 400.432 687.26 400.432H624.512C628.082 350.488 605.219 316.886 605.219 316.886H641.082V289.285L637.256 280.486C632.831 270.306 633.822 258.584 639.897 249.292L660.914 217.138C662.669 214.452 665.663 212.832 668.874 212.832H724.137C734.747 212.832 742.625 222.663 740.306 233.011Z" fill="#FF6E00"/>
<path d="M569.617 549.261L580.451 537.12C580.451 537.12 606.257 450.376 609.826 400.433C613.395 350.49 590.57 316.955 590.57 316.955H568.749C545.596 316.955 527.282 336.547 528.855 359.637C532.723 416.412 559.922 529.52 559.722 536.572C559.311 551.115 553.134 557.427 553.134 557.427C553.134 557.427 562.889 556.802 569.617 549.261Z" fill="#F1B104"/>
<path d="M553.134 557.426C553.134 557.426 559.311 551.115 559.722 536.571C559.922 529.519 553.616 416.411 549.747 359.636C548.174 336.547 566.488 316.954 589.641 316.954H605.257C605.257 316.954 628.081 350.489 624.512 400.432C620.944 450.375 595.137 537.119 595.137 537.119L584.304 549.261C579.669 554.455 573.036 557.426 566.072 557.426H553.134V557.426Z" fill="#F1B104"/>
<path d="M558.895 536.571C559.095 529.519 553.616 416.411 549.747 359.636C548.174 336.547 566.488 316.954 589.641 316.954" stroke="white" stroke-miterlimit="10" stroke-linecap="round" stroke-linejoin="round"/>
<path d="M585.316 566.207L593.673 554.53C594.53 553.334 595.912 552.624 597.383 552.624C599.903 552.624 601.945 554.665 601.945 557.183V566.207H603.108V548.212C603.108 543.188 599.9 538.724 595.137 537.119L584.264 549.305C579.654 554.471 573.057 557.426 566.131 557.426H553.133L543.533 563.663C542.672 564.223 542.152 565.18 542.152 566.207H585.316Z" fill="#FF6E00"/>
<path d="M786.272 400.579H739.627V375.337H784.957L791.065 393.968C792.133 397.228 789.704 400.579 786.272 400.579Z" fill="#F1B104"/>
<path d="M740.943 400.579H738.313C734.881 400.579 732.452 397.228 733.52 393.968L739.628 375.337L745.735 393.968C746.803 397.228 744.374 400.579 740.943 400.579Z" fill="#573240"/>
<path d="M739.627 375.337H762.784L758.855 369.168C758.366 368.438 757.545 368 756.666 368H754.236" stroke="#573240" stroke-miterlimit="10" stroke-linecap="round"/>
<path d="M754.338 371.512C755.309 371.512 756.095 370.726 756.095 369.756C756.095 368.786 755.309 368 754.338 368C753.368 368 752.582 368.786 752.582 369.756C752.582 370.726 753.368 371.512 754.338 371.512Z" stroke="#573240" stroke-miterlimit="10" stroke-linecap="round"/>
<path d="M784.918 375.337H761.761L765.69 369.168C766.18 368.438 767.001 368 767.88 368H770.309" stroke="#573240" stroke-miterlimit="10" stroke-linecap="round"/>
<path d="M770.207 371.512C771.177 371.512 771.963 370.726 771.963 369.756C771.963 368.786 771.177 368 770.207 368C769.236 368 768.45 368.786 768.45 369.756C768.45 370.726 769.236 371.512 770.207 371.512Z" stroke="#573240" stroke-miterlimit="10" stroke-linecap="round"/>
<path d="M744.859 380.144C745.515 380.144 746.047 379.612 746.047 378.956C746.047 378.3 745.515 377.768 744.859 377.768C744.202 377.768 743.67 378.3 743.67 378.956C743.67 379.612 744.202 380.144 744.859 380.144Z" fill="white"/>
<path d="M750.15 380.144C750.806 380.144 751.338 379.612 751.338 378.956C751.338 378.3 750.806 377.768 750.15 377.768C749.493 377.768 748.961 378.3 748.961 378.956C748.961 379.612 749.493 380.144 750.15 380.144Z" fill="white"/>
<path d="M755.441 380.144C756.097 380.144 756.629 379.612 756.629 378.956C756.629 378.3 756.097 377.768 755.441 377.768C754.785 377.768 754.253 378.3 754.253 378.956C754.253 379.612 754.785 380.144 755.441 380.144Z" fill="white"/>
<path d="M760.732 380.144C761.389 380.144 761.921 379.612 761.921 378.956C761.921 378.3 761.389 377.768 760.732 377.768C760.076 377.768 759.544 378.3 759.544 378.956C759.544 379.612 760.076 380.144 760.732 380.144Z" fill="white"/>
<path d="M766.023 380.144C766.68 380.144 767.212 379.612 767.212 378.956C767.212 378.3 766.68 377.768 766.023 377.768C765.367 377.768 764.835 378.3 764.835 378.956C764.835 379.612 765.367 380.144 766.023 380.144Z" fill="white"/>
<path d="M771.315 380.144C771.971 380.144 772.503 379.612 772.503 378.956C772.503 378.3 771.971 377.768 771.315 377.768C770.658 377.768 770.126 378.3 770.126 378.956C770.126 379.612 770.658 380.144 771.315 380.144Z" fill="white"/>
<path d="M776.606 380.144C777.262 380.144 777.794 379.612 777.794 378.956C777.794 378.3 777.262 377.768 776.606 377.768C775.95 377.768 775.417 378.3 775.417 378.956C775.417 379.612 775.95 380.144 776.606 380.144Z" fill="white"/>
<path d="M781.897 380.144C782.553 380.144 783.085 379.612 783.085 378.956C783.085 378.3 782.553 377.768 781.897 377.768C781.241 377.768 780.709 378.3 780.709 378.956C780.709 379.612 781.241 380.144 781.897 380.144Z" fill="white"/>
<path d="M746.218 384.221C746.875 384.221 747.407 383.689 747.407 383.033C747.407 382.377 746.875 381.845 746.218 381.845C745.562 381.845 745.03 382.377 745.03 383.033C745.03 383.689 745.562 384.221 746.218 384.221Z" fill="white"/>
<path d="M751.509 384.221C752.166 384.221 752.698 383.689 752.698 383.033C752.698 382.377 752.166 381.845 751.509 381.845C750.853 381.845 750.321 382.377 750.321 383.033C750.321 383.689 750.853 384.221 751.509 384.221Z" fill="white"/>
<path d="M756.801 384.221C757.457 384.221 757.989 383.689 757.989 383.033C757.989 382.377 757.457 381.845 756.801 381.845C756.144 381.845 755.612 382.377 755.612 383.033C755.612 383.689 756.144 384.221 756.801 384.221Z" fill="white"/>
<path d="M762.092 384.221C762.748 384.221 763.28 383.689 763.28 383.033C763.28 382.377 762.748 381.845 762.092 381.845C761.435 381.845 760.903 382.377 760.903 383.033C760.903 383.689 761.435 384.221 762.092 384.221Z" fill="white"/>
<path d="M767.383 384.221C768.039 384.221 768.571 383.689 768.571 383.033C768.571 382.377 768.039 381.845 767.383 381.845C766.727 381.845 766.195 382.377 766.195 383.033C766.195 383.689 766.727 384.221 767.383 384.221Z" fill="white"/>
<path d="M772.674 384.221C773.331 384.221 773.863 383.689 773.863 383.033C773.863 382.377 773.331 381.845 772.674 381.845C772.018 381.845 771.486 382.377 771.486 383.033C771.486 383.689 772.018 384.221 772.674 384.221Z" fill="white"/>
<path d="M777.966 384.221C778.622 384.221 779.154 383.689 779.154 383.033C779.154 382.377 778.622 381.845 777.966 381.845C777.309 381.845 776.777 382.377 776.777 383.033C776.777 383.689 777.309 384.221 777.966 384.221Z" fill="white"/>
<path d="M783.257 384.221C783.913 384.221 784.445 383.689 784.445 383.033C784.445 382.377 783.913 381.845 783.257 381.845C782.6 381.845 782.068 382.377 782.068 383.033C782.068 383.689 782.6 384.221 783.257 384.221Z" fill="white"/>
<path d="M747.772 388.492C748.428 388.492 748.961 387.96 748.961 387.304C748.961 386.648 748.428 386.116 747.772 386.116C747.116 386.116 746.583 386.648 746.583 387.304C746.583 387.96 747.116 388.492 747.772 388.492Z" fill="white"/>
<path d="M753.063 388.492C753.72 388.492 754.252 387.96 754.252 387.304C754.252 386.648 753.72 386.116 753.063 386.116C752.407 386.116 751.875 386.648 751.875 387.304C751.875 387.96 752.407 388.492 753.063 388.492Z" fill="white"/>
<path d="M758.354 388.492C759.011 388.492 759.543 387.96 759.543 387.304C759.543 386.648 759.011 386.116 758.354 386.116C757.698 386.116 757.166 386.648 757.166 387.304C757.166 387.96 757.698 388.492 758.354 388.492Z" fill="white"/>
<path d="M763.646 388.492C764.302 388.492 764.834 387.96 764.834 387.304C764.834 386.648 764.302 386.116 763.646 386.116C762.989 386.116 762.457 386.648 762.457 387.304C762.457 387.96 762.989 388.492 763.646 388.492Z" fill="white"/>
<path d="M768.937 388.492C769.593 388.492 770.125 387.96 770.125 387.304C770.125 386.648 769.593 386.116 768.937 386.116C768.281 386.116 767.749 386.648 767.749 387.304C767.749 387.96 768.281 388.492 768.937 388.492Z" fill="white"/>
<path d="M774.228 388.492C774.884 388.492 775.417 387.96 775.417 387.304C775.417 386.648 774.884 386.116 774.228 386.116C773.572 386.116 773.04 386.648 773.04 387.304C773.04 387.96 773.572 388.492 774.228 388.492Z" fill="white"/>
<path d="M779.519 388.492C780.176 388.492 780.708 387.96 780.708 387.304C780.708 386.648 780.176 386.116 779.519 386.116C778.863 386.116 778.331 386.648 778.331 387.304C778.331 387.96 778.863 388.492 779.519 388.492Z" fill="white"/>
<path d="M784.81 388.492C785.467 388.492 785.999 387.96 785.999 387.304C785.999 386.648 785.467 386.116 784.81 386.116C784.154 386.116 783.622 386.648 783.622 387.304C783.622 387.96 784.154 388.492 784.81 388.492Z" fill="white"/>
<path d="M748.937 392.763C749.594 392.763 750.126 392.231 750.126 391.575C750.126 390.919 749.594 390.387 748.937 390.387C748.281 390.387 747.749 390.919 747.749 391.575C747.749 392.231 748.281 392.763 748.937 392.763Z" fill="white"/>
<path d="M754.229 392.763C754.885 392.763 755.417 392.231 755.417 391.575C755.417 390.919 754.885 390.387 754.229 390.387C753.572 390.387 753.04 390.919 753.04 391.575C753.04 392.231 753.572 392.763 754.229 392.763Z" fill="white"/>
<path d="M759.52 392.763C760.176 392.763 760.708 392.231 760.708 391.575C760.708 390.919 760.176 390.387 759.52 390.387C758.864 390.387 758.332 390.919 758.332 391.575C758.332 392.231 758.864 392.763 759.52 392.763Z" fill="white"/>
<path d="M764.811 392.763C765.467 392.763 765.999 392.231 765.999 391.575C765.999 390.919 765.467 390.387 764.811 390.387C764.155 390.387 763.623 390.919 763.623 391.575C763.623 392.231 764.155 392.763 764.811 392.763Z" fill="white"/>
<path d="M770.102 392.763C770.759 392.763 771.291 392.231 771.291 391.575C771.291 390.919 770.759 390.387 770.102 390.387C769.446 390.387 768.914 390.919 768.914 391.575C768.914 392.231 769.446 392.763 770.102 392.763Z" fill="white"/>
<path d="M775.394 392.763C776.05 392.763 776.582 392.231 776.582 391.575C776.582 390.919 776.05 390.387 775.394 390.387C774.737 390.387 774.205 390.919 774.205 391.575C774.205 392.231 774.737 392.763 775.394 392.763Z" fill="white"/>
<path d="M780.685 392.763C781.341 392.763 781.873 392.231 781.873 391.575C781.873 390.919 781.341 390.387 780.685 390.387C780.028 390.387 779.496 390.919 779.496 391.575C779.496 392.231 780.028 392.763 780.685 392.763Z" fill="white"/>
<path d="M785.976 392.763C786.632 392.763 787.164 392.231 787.164 391.575C787.164 390.919 786.632 390.387 785.976 390.387C785.32 390.387 784.787 390.919 784.787 391.575C784.787 392.231 785.32 392.763 785.976 392.763Z" fill="white"/>
<path d="M749.52 397.228C750.176 397.228 750.708 396.697 750.708 396.04C750.708 395.384 750.176 394.853 749.52 394.853C748.864 394.853 748.332 395.384 748.332 396.04C748.332 396.697 748.864 397.228 749.52 397.228Z" fill="white"/>
<path d="M754.811 397.228C755.468 397.228 756 396.697 756 396.04C756 395.384 755.468 394.853 754.811 394.853C754.155 394.853 753.623 395.384 753.623 396.04C753.623 396.697 754.155 397.228 754.811 397.228Z" fill="white"/>
<path d="M760.102 397.228C760.759 397.228 761.291 396.697 761.291 396.04C761.291 395.384 760.759 394.853 760.102 394.853C759.446 394.853 758.914 395.384 758.914 396.04C758.914 396.697 759.446 397.228 760.102 397.228Z" fill="white"/>
<path d="M765.394 397.228C766.05 397.228 766.582 396.697 766.582 396.04C766.582 395.384 766.05 394.853 765.394 394.853C764.737 394.853 764.205 395.384 764.205 396.04C764.205 396.697 764.737 397.228 765.394 397.228Z" fill="white"/>
<path d="M770.685 397.228C771.341 397.228 771.873 396.697 771.873 396.04C771.873 395.384 771.341 394.853 770.685 394.853C770.028 394.853 769.496 395.384 769.496 396.04C769.496 396.697 770.028 397.228 770.685 397.228Z" fill="white"/>
<path d="M775.976 397.228C776.633 397.228 777.165 396.697 777.165 396.04C777.165 395.384 776.633 394.853 775.976 394.853C775.32 394.853 774.788 395.384 774.788 396.04C774.788 396.697 775.32 397.228 775.976 397.228Z" fill="white"/>
<path d="M781.267 397.228C781.924 397.228 782.456 396.697 782.456 396.04C782.456 395.384 781.924 394.853 781.267 394.853C780.611 394.853 780.079 395.384 780.079 396.04C780.079 396.697 780.611 397.228 781.267 397.228Z" fill="white"/>
<path d="M786.559 397.228C787.215 397.228 787.747 396.697 787.747 396.04C787.747 395.384 787.215 394.853 786.559 394.853C785.902 394.853 785.37 395.384 785.37 396.04C785.37 396.697 785.902 397.228 786.559 397.228Z" fill="white"/>
<path d="M699.872 183.098L709.396 212.831C709.396 212.831 692.459 242.508 668.792 242.508C648.751 242.508 670.772 212.831 670.772 212.831C677.181 212.831 682.377 207.637 682.377 201.23V183.098H699.872V183.098Z" fill="#F1B104"/>
<path d="M682.376 179.575V201.231C682.376 204.435 681.078 207.335 678.978 209.434C676.878 211.534 673.976 212.832 670.771 212.832C670.771 212.832 670.719 212.903 670.619 213.037C661.764 212.989 654.604 207.048 654.604 199.728C654.604 193.206 660.287 187.78 667.792 186.64C668.786 182.046 672.951 178.601 677.938 178.601C679.526 178.601 681.032 178.95 682.376 179.575Z" fill="#573240"/>
<path d="M706.451 169.907C706.242 174.732 702.623 176.379 697.659 176.379C693.954 176.379 690.664 173.854 689.232 170.564C686.759 172.466 683.184 173.333 679.463 172.637C673.259 171.475 669.001 166.406 669.956 161.314C670.909 156.222 676.713 153.038 682.918 154.2C686.982 154.961 690.21 157.396 691.685 160.417C693.119 159.614 695.081 159.265 697.659 159.506C702.604 159.97 706.722 163.686 706.451 169.907Z" fill="#573240"/>
<path d="M731.31 200.223C731.31 207.847 724.283 214.028 715.613 214.028C706.944 214.028 699.917 207.847 699.917 200.223C699.917 197.251 700.985 194.5 702.801 192.247L698.816 179.803C700.525 178.127 702.949 177.083 705.636 177.083C710.817 177.083 715.017 180.969 715.017 185.763C715.017 185.988 715.007 186.21 714.99 186.431C715.197 186.423 715.404 186.419 715.613 186.419C724.283 186.419 731.31 192.6 731.31 200.223Z" fill="#573240"/>
<path d="M708.381 178.164V178.923C708.381 181.592 706.215 183.756 703.545 183.756H698.752C698.327 186.561 696.422 188.965 693.712 189.991L686.028 192.899C683.297 193.932 680.271 192.385 679.513 189.565L678.404 185.449C677.984 183.889 677.771 182.28 677.771 180.664V173.827C677.771 168.831 681.824 164.78 686.82 164.78H688.683C688.539 165.476 688.472 166.224 688.472 167.012C688.472 171.843 692.693 176.379 697.659 176.379C697.979 176.379 698.296 176.371 698.605 176.356C698.656 174.675 700.035 173.329 701.731 173.329H703.545C706.215 173.329 708.381 175.493 708.381 178.164Z" fill="#F1B104"/>
<path d="M700.672 178.768C700.672 176.906 702.182 175.397 704.044 175.397" stroke="#573240" stroke-miterlimit="10" stroke-linecap="round"/>
<path d="M687.709 184.076C687.709 184.076 685.962 185.763 683.089 185.26" stroke="#573240" stroke-miterlimit="10" stroke-linecap="round"/>
<path d="M677.603 172.663C678.705 172.103 680.106 172.131 681.377 172.699C683.766 173.768 683.034 182.321 683.034 182.321" stroke="#573240" stroke-miterlimit="10" stroke-linecap="round"/>
<path d="M679.099 189.773C679.858 192.591 682.884 194.139 685.615 193.105L693.711 190.403C696.799 189.234 698.817 187.382 698.817 184.081" stroke="#573240" stroke-miterlimit="10" stroke-linecap="round"/>
<path d="M679.646 178.569C680.103 178.569 680.473 177.977 680.473 177.248C680.473 176.518 680.103 175.927 679.646 175.927C679.189 175.927 678.818 176.518 678.818 177.248C678.818 177.977 679.189 178.569 679.646 178.569Z" fill="#573240"/>
<path d="M686.714 172.718C688.073 171.986 690.263 172.024 691.743 172.962" stroke="#573240" stroke-miterlimit="10" stroke-linecap="round"/>
<path d="M688.917 178.569C689.374 178.569 689.745 177.977 689.745 177.248C689.745 176.518 689.374 175.927 688.917 175.927C688.46 175.927 688.09 176.518 688.09 177.248C688.09 177.977 688.46 178.569 688.917 178.569Z" fill="#573240"/>
<path d="M440.517 511.739V373.469H480.722L440.517 511.739ZM530.492 325.289L404.991 306.413C377.882 303.052 359.934 327.197 365.268 353.975L385.489 534.152C389.155 533.679 393.397 533.43 397.342 533.43C410.623 533.43 422.725 536.267 431.374 540.834L436.449 525.728L436.45 525.725C436.45 525.725 436.569 529.099 440.517 532.371C442.788 534.252 446.328 536.102 451.842 537.254C463.021 539.591 478.259 531.629 491.771 539.509C492.12 539.712 492.456 539.923 492.78 540.142L555.648 367.47C563.029 348.575 550.633 327.787 530.492 325.289Z" fill="#573240"/>
<path d="M373.081 548.173C370.719 550.427 372.218 554.596 375.39 554.596H433.449C437.136 554.596 440.198 551.667 440.652 547.843C433.241 539.345 416.521 533.43 397.343 533.43C393.385 533.43 389.13 533.682 385.456 534.157L373.081 548.173Z" fill="#B2DDDA"/>
<path d="M371.11 550.989C371.251 552.76 372.58 554.389 374.563 554.389H432.621C436.308 554.389 440.134 550.884 440.032 546.603" stroke="#573240" stroke-miterlimit="10" stroke-linecap="round"/>
<path d="M501.7 554.389H453.482L431.578 540.221L436.451 525.724C436.451 525.724 436.745 534.099 451.842 537.255C463.021 539.591 478.259 531.629 491.77 539.508C500.528 544.614 501.7 554.389 501.7 554.389Z" fill="#B2DDDA"/>
<path d="M501.7 554.389H453.482L431.785 540.221" stroke="#573240" stroke-miterlimit="10" stroke-linecap="round"/>
<path d="M451.867 169.59L468.073 163.268L463.076 149.66L437.419 151.151L436.46 164.19L451.867 169.59Z" fill="white" stroke="#573240" stroke-miterlimit="10" stroke-linecap="round"/>
<path d="M463.061 142.459L462.406 136.919C462.177 134.78 460.722 132.97 458.681 132.29C451.203 129.799 433.303 123.368 427.003 127.816C419.846 132.868 432.095 141.214 432.095 141.214C432.095 141.214 443.743 144.221 446.864 143.94C449.986 143.659 463.061 142.459 463.061 142.459Z" fill="#FF6E00"/>
<path d="M457.037 150.807L456.364 155.36C456.001 157.81 454.007 159.694 451.539 159.916L437.982 161.136C435.491 161.36 433.289 159.523 433.065 157.033L431.821 143.225C431.38 138.32 435 133.986 439.907 133.544L445.201 133.068C447.85 132.83 450.336 134.372 451.298 136.85L452.788 140.689C453.346 142.125 454.787 143.019 456.323 142.881C456.163 141.108 457.472 139.54 459.246 139.381L460.169 139.298C463.246 139.021 465.965 141.29 466.242 144.365C466.519 147.441 464.249 150.158 461.172 150.435L457.037 150.807Z" fill="white" stroke="#573240" stroke-miterlimit="10" stroke-linecap="round"/>
<path d="M461.893 142.337C460.339 142.477 459.192 143.85 459.332 145.403" stroke="#573240" stroke-miterlimit="10" stroke-linecap="round"/>
<path d="M440.344 153.323C442.227 153.994 444.248 153.151 444.859 151.44" stroke="#573240" stroke-miterlimit="10" stroke-linecap="round"/>
<path d="M436.699 142.32L437.37 149.778C437.442 150.571 438.23 151.094 438.99 150.851L440.551 150.422" stroke="#573240" stroke-miterlimit="10" stroke-linecap="round"/>
<path d="M447.691 142.736L443.129 142.58C442.637 142.563 442.252 142.151 442.269 141.66L442.294 140.941C442.31 140.449 442.723 140.064 443.214 140.081L447.776 140.236C448.268 140.253 448.653 140.665 448.636 141.157L448.612 141.876C448.595 142.367 448.183 142.752 447.691 142.736Z" fill="#FF6E00"/>
<path d="M436.193 140.687L431.68 141.378C431.194 141.453 430.86 141.907 430.935 142.394L431.044 143.105C431.118 143.591 431.573 143.925 432.059 143.85L436.571 143.159C437.058 143.084 437.392 142.63 437.317 142.144L437.208 141.433C437.134 140.946 436.679 140.613 436.193 140.687Z" fill="#FF6E00"/>
<path d="M444.962 147.127C445.415 147.086 445.733 146.502 445.671 145.821C445.61 145.141 445.193 144.623 444.74 144.664C444.287 144.705 443.969 145.289 444.031 145.969C444.092 146.649 444.509 147.167 444.962 147.127Z" fill="#573240"/>
<path d="M434.249 148.091C434.702 148.05 435.019 147.466 434.958 146.786C434.897 146.106 434.48 145.587 434.027 145.628C433.574 145.669 433.256 146.253 433.317 146.934C433.379 147.614 433.795 148.132 434.249 148.091Z" fill="#573240"/>
<path d="M358.342 299.315C347.193 297.633 340.044 286.563 343.1 275.715L361.764 209.471C365.264 196.678 374.99 186.515 387.62 182.449L437.036 170.022L451.699 169.063L470.664 170.022L519.483 184.51C531.864 188.495 541.469 198.348 545.134 210.822L560.237 259.543C565.707 277.188 552.513 295.079 534.033 295.079H530.448L530.492 325.289L358.342 299.315Z" fill="#F1B104"/>
<path d="M477.467 171.897L462.031 177.169L451.883 169.964L442.16 176.962L428.418 172.194L435.117 164.525C435.603 163.889 436.443 163.638 437.197 163.908L451.789 168.62L467.551 162.788C468.105 162.576 468.734 162.721 469.139 163.155L477.467 171.897Z" fill="#B2DDDA"/>
<path d="M498.688 404.613V513.91C498.688 537.645 512.982 557.907 533.103 565.886" stroke="#F1B104" stroke-miterlimit="10"/>
<path d="M488.416 404.613V513.91C488.416 538.601 472.948 559.533 451.543 566.79" stroke="#F1B104" stroke-miterlimit="10"/>
<path d="M488.416 516.573C488.416 513.738 490.715 511.439 493.552 511.439C496.389 511.439 498.688 513.738 498.688 516.573" stroke="#F1B104" stroke-miterlimit="10"/>
<path d="M489.177 404.362C606.929 404.362 702.387 378.188 702.387 345.901C702.387 313.613 606.929 287.439 489.177 287.439C371.424 287.439 275.967 313.613 275.967 345.901C275.967 378.188 371.424 404.362 489.177 404.362Z" fill="white"/>
<path d="M649.296 316.807H566.507L544.33 242.509H627.119L649.296 316.807Z" fill="#B2DDDA"/>
<path d="M544.33 242.509L579.237 215.321L587.511 242.509H544.33Z" fill="#573240"/>
<path d="M573.787 268.557C576.736 263.572 582.82 260.152 589.848 260.152C596.875 260.152 602.959 263.572 605.908 268.557" stroke="white" stroke-miterlimit="10" stroke-linecap="round" stroke-linejoin="round"/>
<path d="M567.844 272.904H613.859" stroke="white" stroke-miterlimit="10" stroke-linecap="round" stroke-linejoin="round"/>
<path d="M569.292 277.66H615.307" stroke="white" stroke-miterlimit="10" stroke-linecap="round" stroke-linejoin="round"/>
<path d="M741.858 229.605C741.858 236.668 739.713 243.563 735.704 249.381C725.51 264.176 705.068 293.845 693.2 311.071C687.499 319.344 678.093 324.284 668.044 324.284H583.58C578.407 324.284 573.277 323.335 568.446 321.485L557.291 317.214C553.542 315.778 551.066 312.181 551.066 308.168V286.686C551.066 283.922 553.308 281.681 556.074 281.681L558.465 289.843C559.152 292.19 561.3 293.807 563.746 293.821L575.61 293.883C576.514 293.888 576.795 292.663 575.979 292.274L572.281 290.513C572.281 290.513 567.821 287.923 567.959 283.808H585.434C586.821 283.808 588.166 284.289 589.239 285.168L596.481 289.432H656.179C661.948 289.432 667.332 286.538 670.512 281.726L711.279 220.05C714.258 215.543 719.302 212.831 724.707 212.831H725.076C734.345 212.831 741.858 220.341 741.858 229.605Z" fill="#F1B104"/>
<path d="M564.875 314.279L556.881 311.218C553.132 309.782 550.656 306.473 551.121 297.457" stroke="#573240" stroke-miterlimit="10" stroke-linecap="round"/>
<path d="M565.068 308.283L557.074 305.222C553.325 303.786 550.856 299.761 551.065 291.239" stroke="#573240" stroke-miterlimit="10" stroke-linecap="round"/>
<path d="M565.204 301.38L556.877 298.192C553.127 296.756 551.065 293.365 551.065 289.352" stroke="#573240" stroke-miterlimit="10" stroke-linecap="round"/>
<path d="M551.066 299.897V286.686C551.066 283.922 553.308 281.68 556.074 281.68" stroke="#573240" stroke-miterlimit="10" stroke-linecap="round"/>
<path d="M497.006 338.456C518.388 338.456 535.721 328.232 535.721 315.62C535.721 303.007 518.388 292.783 497.006 292.783C475.624 292.783 458.29 303.007 458.29 315.62C458.29 328.232 475.624 338.456 497.006 338.456Z" fill="white" stroke="#B2DDDA" stroke-miterlimit="10"/>
<path d="M523.93 314.7C517.831 321.964 500.986 324.198 487.593 322.21C476.878 320.619 471.521 315.966 475.628 311.816C478.913 308.496 488.525 306.837 497.096 308.109C503.953 309.127 507.382 312.105 504.754 314.761C502.651 316.886 496.5 317.948 491.014 317.134C486.625 316.482 484.431 314.576 486.113 312.876C487.459 311.517 491.396 310.837 494.907 311.358C497.715 311.775 499.12 312.994 498.043 314.082C497.182 314.953 494.662 315.388 492.415 315.054C490.618 314.787 489.719 314.007 490.408 313.311" stroke="#F1B104" stroke-miterlimit="10" stroke-linecap="round"/>
<path d="M474.035 310.629C476.74 306.822 485.957 303.631 494.621 303.502" stroke="#F1B104" stroke-miterlimit="10" stroke-linecap="round"/>
<path d="M519.72 318.215C514.062 325.479 499.468 327.713 487.042 325.725" stroke="#F1B104" stroke-miterlimit="10" stroke-linecap="round"/>
<path d="M479.205 325.636C483.47 324.712 485.602 322.009 483.968 319.598C482.66 317.67 478.834 316.705 475.422 317.445C472.692 318.036 471.327 319.766 472.373 321.309C473.21 322.543 475.659 323.16 477.843 322.687C479.59 322.308 480.463 321.201 479.794 320.214" stroke="#F1B104" stroke-miterlimit="10" stroke-linecap="round"/>
<path d="M516.038 319.865C519.339 319.045 520.989 316.648 519.724 314.511C518.712 312.8 516.372 311.945 513.731 312.601C511.619 313.125 510.479 314.5 511.166 315.821C511.752 316.949 512.881 317.256 514.571 316.836C515.923 316.501 516.893 314.809 515.874 314.437" stroke="#F1B104" stroke-miterlimit="10" stroke-linecap="round"/>
<path d="M495.426 252.026L512.134 301.911" stroke="#573240" stroke-miterlimit="10" stroke-linecap="round"/>
<path d="M507.929 303.258L504.82 296.033C503.843 293.762 505.016 291.143 507.36 290.358L508.821 289.937C511.166 289.152 513.68 290.538 514.268 292.938L516.138 300.578" stroke="#573240" stroke-miterlimit="10" stroke-linecap="round"/>
<path d="M481.137 312.137C483.593 312.137 485.584 310.147 485.584 307.692C485.584 305.237 483.593 303.247 481.137 303.247C478.68 303.247 476.689 305.237 476.689 307.692C476.689 310.147 478.68 312.137 481.137 312.137Z" fill="#FF6E00"/>
<path d="M515.932 295.261C516.694 295.261 517.964 295.931 517.143 296.702C516.7 297.117 513.97 297.799 510.056 297.799C506.143 297.799 503.434 296.678 502.97 296.288C502.196 295.638 502.715 294.858 503.513 294.858" stroke="#F1B104" stroke-miterlimit="10" stroke-linecap="round"/>
<path d="M515.189 297.34C516.148 297.116 516.402 297.646 516.208 298.11C515.974 298.67 514.794 299.855 510.808 300.451C506.822 301.047 503.339 300.42 503.222 299.825C503.105 299.232 503.573 298.796 504.769 298.59" stroke="#F1B104" stroke-miterlimit="10" stroke-linecap="round"/>
<path d="M515.154 299.147C516.283 298.796 518.582 300.498 516.969 301.911C515.356 303.325 499.795 300.987 500.633 304.998C501.314 308.261 522.403 311.1 521.989 306.044C521.774 303.408 515.734 303.242 516.264 306.39" stroke="#F1B104" stroke-miterlimit="10" stroke-linecap="round"/>
<path d="M502.25 321.303C504.519 321.303 506.359 319.464 506.359 317.196C506.359 314.927 504.519 313.089 502.25 313.089C499.98 313.089 498.141 314.927 498.141 317.196C498.141 319.464 499.98 321.303 502.25 321.303Z" fill="#FF6E00"/>
<path d="M494.148 321.416C495.465 321.416 496.533 320.348 496.533 319.032C496.533 317.715 495.465 316.648 494.148 316.648C492.831 316.648 491.763 317.715 491.763 319.032C491.763 320.348 492.831 321.416 494.148 321.416Z" fill="#FF6E00"/>
<path d="M515.947 326.198C518.268 326.198 520.15 324.317 520.15 321.997C520.15 319.677 518.268 317.796 515.947 317.796C513.626 317.796 511.744 319.677 511.744 321.997C511.744 324.317 513.626 326.198 515.947 326.198Z" fill="#FF6E00"/>
<path d="M458.962 255.638L390.53 306.925C385.28 310.857 378.895 312.985 372.336 312.985C363.735 312.985 356.15 309.471 350.71 303.933C343.502 296.586 340.073 285.681 343.073 274.685H343.075C346.343 262.714 355.294 253.113 367.011 249.01L435.116 225.155C442.458 222.584 445.676 221.331 452.049 220.932C451.47 221.003 450.895 221.124 450.325 221.296C443.282 223.424 439.853 232.483 442.665 241.785C445.152 250.011 453.114 257.185 458.962 255.638Z" fill="#F1B104"/>
<path d="M367.011 249.009L435.115 223.915C443.803 220.871 454.462 221.047 459.851 221.208L462.126 253.266L390.53 306.925" stroke="#573240" stroke-miterlimit="10" stroke-linecap="round"/>
<path d="M468.169 234.082C470.981 243.384 468.367 249.025 461.129 254.569C455.29 259.042 445.477 251.086 442.666 241.784C439.854 232.482 443.283 223.423 450.326 221.296C457.368 219.169 465.357 224.779 468.169 234.082Z" fill="#573240"/>
<path d="M477.549 251.127C478.092 251.127 478.601 251.429 478.852 251.922C479.216 252.628 478.95 253.496 478.255 253.878L475.61 255.329C475.188 255.559 475.041 256.094 475.284 256.508C476.238 258.126 477.945 259.027 479.698 259.027C480.566 259.027 481.445 258.807 482.249 258.343L495.293 251.803L499.547 264.533L500.913 263.72C502.668 262.673 503.561 260.63 503.134 258.632L498.943 239.033C498.126 235.381 495.519 232.386 492.015 231.069L471.107 223.215C467.528 221.838 463.717 221.146 459.879 221.175L450.517 221.296C443.474 223.424 439.853 232.482 442.665 241.784C443.892 245.843 446.835 249.455 449.817 252.079L454.957 248.013C456.597 250.103 458.546 251.054 460.978 251.305L477.549 251.127Z" fill="white" stroke="#573240" stroke-miterlimit="10" stroke-linecap="round"/>
<path d="M491.835 239.104L495.294 251.803" stroke="#573240" stroke-miterlimit="10" stroke-linecap="round"/>
<path d="M490.329 254.077L486.87 241.379" stroke="#573240" stroke-miterlimit="10" stroke-linecap="round"/>
<path d="M485.985 256.352L482.526 243.653" stroke="#573240" stroke-miterlimit="10" stroke-linecap="round"/>
<path d="M551.197 386.057C565.714 386.057 577.483 376.827 577.483 365.442C577.483 354.056 565.714 344.826 551.197 344.826C536.679 344.826 524.91 354.056 524.91 365.442C524.91 376.827 536.679 386.057 551.197 386.057Z" fill="#B2DDDA"/>
<path d="M572.187 373.202H534.145C533.346 373.202 532.698 372.554 532.698 371.755V364.502H572.187V373.202Z" fill="white"/>
<path d="M572.187 364.502H532.698C532.698 364.502 537.366 354.464 551.73 351.746L572.187 364.502Z" fill="#FF6E00"/>
<path d="M548.304 354.497C549.228 354.497 549.978 353.747 549.978 352.823C549.978 351.899 549.228 351.15 548.304 351.15C547.379 351.15 546.629 351.899 546.629 352.823C546.629 353.747 547.379 354.497 548.304 354.497Z" fill="#FCD4D0"/>
<path d="M534.862 354.897C536.614 353.798 538.956 354.089 540.39 355.686C540.613 355.935 540.801 356.197 540.955 356.479C539.206 357.581 536.864 357.29 535.43 355.693C535.207 355.445 535.019 355.176 534.862 354.897Z" fill="#F1B104"/>
<path d="M541.41 356.568C543.001 356.568 544.291 355.279 544.291 353.689C544.291 352.098 543.001 350.809 541.41 350.809C539.819 350.809 538.529 352.098 538.529 353.689C538.529 355.279 539.819 356.568 541.41 356.568Z" fill="#573240"/>
<path d="M547.28 350.082C547.606 352.124 546.421 354.164 544.39 354.858C544.073 354.966 543.758 355.036 543.439 355.067C543.109 353.027 544.294 350.987 546.325 350.293C546.641 350.185 546.962 350.117 547.28 350.082Z" fill="#F1B104"/>
<path d="M536.706 361.286C538.099 361.286 539.227 360.158 539.227 358.766C539.227 357.374 538.099 356.246 536.706 356.246C535.314 356.246 534.185 357.374 534.185 358.766C534.185 360.158 535.314 361.286 536.706 361.286Z" fill="#573240"/>
<path d="M545.105 357.135C546.103 357.135 546.912 356.326 546.912 355.328C546.912 354.33 546.103 353.521 545.105 353.521C544.106 353.521 543.297 354.33 543.297 355.328C543.297 356.326 544.106 357.135 545.105 357.135Z" fill="#573240"/>
<path d="M542.483 358.375C543.481 358.375 544.291 357.566 544.291 356.568C544.291 355.57 543.481 354.761 542.483 354.761C541.484 354.761 540.675 355.57 540.675 356.568C540.675 357.566 541.484 358.375 542.483 358.375Z" fill="#FCD4D0"/>
<path d="M540.955 361.943C541.756 361.943 542.406 361.293 542.406 360.492C542.406 359.691 541.756 359.042 540.955 359.042C540.153 359.042 539.503 359.691 539.503 360.492C539.503 361.293 540.153 361.943 540.955 361.943Z" fill="#FCD4D0"/>
<path d="M549.118 359.826C550.022 359.826 550.756 359.093 550.756 358.189C550.756 357.285 550.022 356.552 549.118 356.552C548.213 356.552 547.48 357.285 547.48 358.189C547.48 359.093 548.213 359.826 549.118 359.826Z" fill="#573240"/>
<path d="M438.371 278.717C438.371 283.036 434.867 286.536 430.546 286.536C426.225 286.536 422.722 283.036 422.722 278.717C422.722 274.397 426.225 270.897 430.546 270.897C434.867 270.897 438.371 274.397 438.371 278.717Z" stroke="#573240" stroke-miterlimit="10" stroke-linecap="round"/>
<path d="M419.739 316.47C421.03 313.447 425.378 311.223 430.545 311.223C435.724 311.223 440.083 313.457 441.362 316.492L448.737 338.803C450.765 344.934 446.194 351.253 439.734 351.253H421.36C414.9 351.253 410.331 344.934 412.358 338.803L419.739 316.47Z" fill="#FF6E00"/>
<path d="M439.734 351.252H421.359C414.899 351.252 410.33 344.934 412.357 338.803L422.722 307.438V278.716C422.722 283.035 426.225 286.536 430.546 286.536C434.867 286.536 438.371 283.035 438.371 278.716V307.438L448.737 338.803C450.764 344.934 446.194 351.252 439.734 351.252Z" stroke="#573240" stroke-miterlimit="10" stroke-linecap="round"/>
<path d="M433.392 341.638C430.917 345.969 426.222 346.424 422.098 344.07C417.974 341.715 415.982 337.442 418.458 333.11L433.392 341.638Z" fill="white"/>
<path d="M433.374 342.045C431.453 345.506 426.045 346.593 421.891 344.272C417.745 341.955 415.996 336.995 418.051 333.311" stroke="#F1B104" stroke-miterlimit="10" stroke-linecap="round"/>
<path d="M424.647 342.828C424.604 343.067 424.356 343.212 424.14 343.125C423.745 342.967 423.352 342.776 422.965 342.555C422.578 342.334 422.215 342.093 421.877 341.833C421.693 341.691 421.692 341.404 421.876 341.246L425.486 338.145L424.647 342.828Z" fill="#F1B104"/>
<path d="M431.773 341.198C431.414 341.702 431.012 342.126 430.576 342.474C430.405 342.61 430.163 342.572 430.05 342.393L427.44 338.239L431.67 340.654C431.856 340.76 431.904 341.014 431.773 341.198Z" fill="#F1B104"/>
<path d="M424.404 336.505L419.507 336.372C419.295 336.367 419.139 336.177 419.17 335.96C419.248 335.409 419.409 334.847 419.662 334.282C419.753 334.076 419.996 333.988 420.183 334.095L424.404 336.505Z" fill="#F1B104"/>
<path d="M428.911 343.389C427.959 343.717 426.926 343.783 425.876 343.614C425.681 343.582 425.551 343.398 425.584 343.196L426.369 338.355L429.115 342.826C429.24 343.029 429.14 343.311 428.911 343.389Z" fill="#F1B104"/>
<path d="M424.714 337.41L420.986 340.508C420.827 340.64 420.598 340.619 420.474 340.463C419.831 339.652 419.392 338.743 419.209 337.775C419.165 337.539 419.356 337.315 419.592 337.319L424.714 337.41Z" fill="#F1B104"/>
<path d="M431.275 330.54C435.331 330.54 438.619 327.253 438.619 323.2C438.619 319.146 435.331 315.859 431.275 315.859C427.22 315.859 423.932 319.146 423.932 323.2C423.932 327.253 427.22 330.54 431.275 330.54Z" fill="white"/>
<path d="M431.275 330.623C435.377 330.623 438.702 327.299 438.702 323.199C438.702 319.099 435.377 315.776 431.275 315.776C427.173 315.776 423.848 319.099 423.848 323.199C423.848 327.299 427.173 330.623 431.275 330.623Z" stroke="#F1B104" stroke-miterlimit="10" stroke-linecap="round"/>
<path d="M432.974 317.839L431.581 322.009C431.513 322.211 431.127 322.218 431.046 322.019L429.372 317.876C429.26 317.639 429.443 317.386 429.768 317.313C430.208 317.215 430.665 317.164 431.134 317.164C431.634 317.164 432.122 317.223 432.59 317.334C432.875 317.402 433.038 317.624 432.974 317.839Z" fill="#EFAF00"/>
<path d="M432.974 328.83L431.581 324.66C431.513 324.458 431.127 324.451 431.046 324.65L429.372 328.793C429.26 329.03 429.443 329.283 429.768 329.356C430.208 329.454 430.665 329.505 431.134 329.505C431.634 329.505 432.122 329.446 432.59 329.335C432.875 329.267 433.038 329.045 432.974 328.83Z" fill="#EFAF00"/>
<path d="M437.583 323.291C437.583 323.669 437.552 324.039 437.493 324.4C437.447 324.683 437.057 324.862 436.696 324.76L432.509 323.483C432.27 323.41 432.285 323.156 432.532 323.099L436.737 322.117C437.105 322.013 437.502 322.2 437.536 322.49C437.567 322.753 437.583 323.02 437.583 323.291Z" fill="#EFAF00"/>
<path d="M436.575 326.08C436.229 326.795 435.761 327.436 435.2 327.976C434.937 328.229 434.404 328.189 434.209 327.905L431.964 324.489C431.851 324.317 432.092 324.135 432.328 324.214L436.239 325.529C436.532 325.616 436.681 325.86 436.575 326.08Z" fill="#EFAF00"/>
<path d="M436.63 321.011L432.617 322.358C432.386 322.435 432.147 322.262 432.248 322.09L434.408 318.413C434.587 318.121 435.122 318.063 435.396 318.312C436.054 318.908 436.593 319.642 436.969 320.468C437.068 320.686 436.919 320.925 436.63 321.011Z" fill="#EFAF00"/>
<path d="M425.215 323.291C425.215 323.669 425.246 324.039 425.304 324.4C425.351 324.683 425.74 324.862 426.102 324.76L430.288 323.483C430.527 323.41 430.512 323.156 430.266 323.099L426.06 322.117C425.692 322.013 425.295 322.2 425.261 322.49C425.231 322.753 425.215 323.02 425.215 323.291Z" fill="#EFAF00"/>
<path d="M426.056 326.08C426.401 326.795 426.869 327.436 427.43 327.976C427.693 328.229 428.226 328.189 428.422 327.905L430.667 324.489C430.78 324.317 430.539 324.135 430.303 324.214L426.391 325.529C426.098 325.616 425.95 325.86 426.056 326.08Z" fill="#EFAF00"/>
<path d="M426.168 321.011L430.18 322.358C430.411 322.435 430.65 322.262 430.549 322.09L428.389 318.413C428.211 318.121 427.675 318.063 427.401 318.312C426.743 318.908 426.204 319.642 425.828 320.468C425.729 320.686 425.878 320.925 426.168 321.011Z" fill="#EFAF00"/>
<path d="M366.219 353.088C370.309 353.088 373.624 349.774 373.624 345.686C373.624 341.599 370.309 338.285 366.219 338.285C362.13 338.285 358.815 341.599 358.815 345.686C358.815 349.774 362.13 353.088 366.219 353.088Z" fill="#B2DDDA"/>
<path d="M382.808 355.584C386.66 355.584 389.783 352.462 389.783 348.611C389.783 344.76 386.66 341.638 382.808 341.638C378.955 341.638 375.832 344.76 375.832 348.611C375.832 352.462 378.955 355.584 382.808 355.584Z" fill="#F1B104"/>
<path d="M393.932 341.023C393.932 346.196 385.39 350.391 374.855 350.391C364.32 350.391 355.782 346.196 355.782 341.023C355.782 340.992 355.782 340.963 355.784 340.932C355.883 335.8 364.383 331.657 374.856 331.657C385.329 331.657 393.83 335.8 393.93 340.932C393.932 340.963 393.932 340.992 393.932 341.023Z" stroke="#B2DDDA" stroke-miterlimit="10"/>
<path d="M383.124 364.859C381.669 366.076 378.515 366.922 374.856 366.922C371.196 366.922 368.041 366.076 366.587 364.859L368.239 360.883L368.321 360.686C370.36 361.429 372.56 361.834 374.856 361.834C377.152 361.834 379.352 361.429 381.39 360.686L381.473 360.883L383.124 364.859Z" fill="white" stroke="#B2DDDA" stroke-miterlimit="10"/>
<path d="M376.583 342.157C380.34 342.157 383.386 339.113 383.386 335.357C383.386 331.602 380.34 328.557 376.583 328.557C372.826 328.557 369.78 331.602 369.78 335.357C369.78 339.113 372.826 342.157 376.583 342.157Z" fill="#FCD4D0"/>
<path d="M359.155 315.03C359.419 314.868 359.759 314.97 359.891 315.245L372.548 341.546C373.17 342.837 374.347 343.762 375.741 344.097C377.205 344.448 378.621 345.608 379.439 347.309C380.72 349.971 380.053 352.947 377.949 353.958C375.846 354.97 373.103 353.633 371.822 350.972C371.003 349.27 370.981 347.441 371.62 346.078C372.228 344.781 372.24 343.284 371.618 341.993L358.973 315.717C358.856 315.475 358.925 315.17 359.155 315.03Z" fill="#573240"/>
<path d="M393.932 341.023V342.768C393.932 351.004 388.708 358.021 381.39 360.686C379.352 361.429 377.152 361.834 374.856 361.834C372.56 361.834 370.36 361.429 368.321 360.686C361.004 358.021 355.781 351.004 355.781 342.768V341.023C355.781 346.196 364.32 350.392 374.856 350.392C385.391 350.392 393.932 346.196 393.932 341.023Z" fill="white" stroke="#B2DDDA" stroke-miterlimit="10"/>
<path d="M603.789 362.532C614.37 362.532 622.948 354.273 622.948 344.084C622.948 333.895 614.37 325.636 603.789 325.636C593.208 325.636 584.63 333.895 584.63 344.084C584.63 354.273 593.208 362.532 603.789 362.532Z" fill="white" stroke="#B2DDDA" stroke-miterlimit="10"/>
<path d="M593.697 325.816V340.108C593.697 345.087 597.735 349.123 602.715 349.123H604.863C609.843 349.123 613.881 345.087 613.881 340.108V325.816H593.697Z" fill="white" stroke="#B2DDDA" stroke-miterlimit="10"/>
<path d="M603.789 334.098C609.363 334.098 613.881 330.39 613.881 325.816C613.881 321.241 609.363 317.533 603.789 317.533C598.215 317.533 593.697 321.241 593.697 325.816C593.697 330.39 598.215 334.098 603.789 334.098Z" fill="white" stroke="#B2DDDA" stroke-miterlimit="10"/>
<path d="M617.405 334.432C619.363 334.432 620.951 332.845 620.951 330.888C620.951 328.93 619.363 327.343 617.405 327.343C615.447 327.343 613.859 328.93 613.859 330.888C613.859 332.845 615.447 334.432 617.405 334.432Z" stroke="#B2DDDA" stroke-miterlimit="10"/>
<path d="M613.079 327.936C611.909 331.24 608.191 333.655 603.789 333.655C599.337 333.655 595.589 331.189 594.462 327.831C596.876 325.554 600.132 324.156 603.715 324.156C607.354 324.156 610.654 325.595 613.079 327.936Z" fill="#573240"/>
<path d="M654.636 351.841C654.667 352.151 654.427 352.412 654.121 352.412H624.853C623.416 352.412 622.068 353.073 621.16 354.186C620.206 355.356 618.543 356.13 616.649 356.13C613.687 356.13 611.288 354.234 611.288 351.896C611.288 349.557 613.687 347.661 616.649 347.661C618.543 347.661 620.206 348.435 621.16 349.605C622.068 350.718 623.416 351.379 624.853 351.379H654.093C654.363 351.379 654.608 351.573 654.636 351.841Z" fill="#F1B104"/>
<path d="M336.184 359.341H316.947L316.949 344.08C317.015 339.796 321.295 336.337 326.565 336.337C331.836 336.337 336.116 339.796 336.182 344.08L336.184 359.341Z" fill="#FF6E00"/>
<path d="M336.184 321.231V359.341H316.947V321.231C316.947 325.563 321.253 329.073 326.565 329.073C331.877 329.073 336.184 325.563 336.184 321.231Z" stroke="#573240" stroke-miterlimit="10" stroke-linecap="round"/>
<path d="M336.184 321.231C336.184 325.563 331.877 329.073 326.565 329.073C321.253 329.073 316.947 325.562 316.947 321.231C316.947 321.198 316.947 321.163 316.949 321.13C317.015 316.845 321.295 313.386 326.565 313.386C331.836 313.386 336.116 316.845 336.182 321.13C336.184 321.163 336.184 321.198 336.184 321.231Z" stroke="#573240" stroke-miterlimit="10" stroke-linecap="round"/>
<path d="M326.565 327.873V305.41C326.565 301.508 323.558 298.264 319.665 297.967L295.039 296.092" stroke="#FF6E00" stroke-miterlimit="10" stroke-linecap="round"/>
<path d="M308.598 303.09C310.248 303.09 311.585 301.753 311.585 300.105C311.585 298.456 310.248 297.119 308.598 297.119C306.949 297.119 305.611 298.456 305.611 300.105C305.611 301.753 306.949 303.09 308.598 303.09Z" stroke="#FF6E00" stroke-miterlimit="10"/>
<path d="M326.565 330.223V338.09" stroke="#FF6E00" stroke-miterlimit="10" stroke-linecap="round"/>
<path d="M331.597 420.999C318.282 437.321 299.939 439.67 298.824 439.798L283.592 413.213C282.611 411.542 280.82 410.516 278.883 410.522L263.859 410.579L264.009 373.128H288.3C299.054 373.128 308.944 379.023 314.055 388.482L331.597 420.999Z" fill="#B2DDDA"/>
<path d="M342.852 442.139C328.914 452.524 314.243 456.395 311.109 457.135L298.771 439.804C298.771 439.804 298.788 439.802 298.824 439.798C299.939 439.67 318.282 437.322 331.597 420.999C331.62 420.97 331.645 420.941 331.668 420.913L336.597 430.268L342.852 442.139Z" fill="#F1B104"/>
<path d="M348.054 452.013C344.039 453.87 338.897 455.297 333.899 456.28C332.355 456.585 331.628 454.449 333.034 453.742C339.856 450.308 345.14 446.484 345.14 446.484L348.054 452.013Z" fill="#F1B104"/>
<path d="M298.77 440.632C298.77 440.632 317.925 437.832 331.669 420.912" stroke="white" stroke-miterlimit="10" stroke-linecap="round" stroke-linejoin="round"/>
<path d="M355.806 463.266L319.663 469.029L318.315 467.196L357.026 461.012C357.542 460.952 357.847 460.515 357.833 460.074C358.253 461.51 357.321 463.025 355.806 463.266Z" fill="white"/>
<path d="M357.026 461.011L318.314 467.196L310.938 457.175C313.67 456.543 328.641 452.728 342.852 442.139L345.14 446.483C345.14 446.483 339.857 450.307 333.033 453.741C331.628 454.449 332.355 456.585 333.899 456.281C338.897 455.296 344.041 453.87 348.055 452.012L348.098 452.096L357.482 459.388C358.128 459.888 357.837 460.92 357.026 461.011Z" fill="#573240"/>
<path d="M307.029 411.068L302.696 439.805C281.595 445.293 264.498 439.805 264.498 439.805V414.221C264.498 412.209 262.868 410.58 260.858 410.58H232.039C215.017 410.58 201.22 396.787 201.22 379.774V373.129H274.367C294.571 373.129 310.041 391.096 307.029 411.068Z" fill="#B2DDDA"/>
<path d="M284.332 467.056C291.864 468.331 298.387 468.381 298.387 468.381L297.455 474.562C293.122 473.68 288.131 471.782 283.522 469.614C282.099 468.945 282.78 466.794 284.332 467.056Z" fill="#F1B104"/>
<path d="M302.695 439.804L299.12 463.527C281.394 463.638 267.074 457.843 264.498 456.734V439.804C264.498 439.804 281.595 445.293 302.695 439.804Z" fill="#F1B104"/>
<path d="M201.219 373.542V379.774C201.219 396.787 215.016 410.58 232.038 410.58H260.857C262.868 410.58 264.497 412.209 264.497 414.221V439.806C264.497 439.806 281.594 445.293 302.695 439.806L307.029 411.068C310.041 391.097 294.57 373.129 274.366 373.129H268.597" stroke="white" stroke-miterlimit="10" stroke-linecap="round" stroke-linejoin="round"/>
<path d="M300.631 486.713L300.627 486.765C300.516 488.275 298.897 489.182 297.551 488.488L264.498 471.45V469.175L299.346 487.125C299.849 487.414 300.422 487.163 300.631 486.713Z" fill="white"/>
<path d="M300.677 486.086L300.631 486.713C300.422 487.163 299.848 487.415 299.346 487.125L264.498 469.175V456.734C267.074 457.843 281.394 463.638 299.12 463.527L298.387 468.381C298.387 468.381 291.864 468.331 284.332 467.056C282.78 466.794 282.099 468.945 283.522 469.614C288.131 471.782 293.122 473.68 297.455 474.562L297.441 474.654L300.677 486.086Z" fill="#573240"/>
<path d="M285.794 329.515C288.886 332.829 305.063 346.744 331.396 345.91C331.396 345.91 332.079 348.654 330.195 349.751C329.04 350.425 323.615 352.434 323.454 354.691C323.363 355.971 329.494 355.971 331.965 353.776C334.435 351.581 334.802 346.212 340.045 346.943L337.868 361.932C336.199 366.996 328.626 370.63 323.324 371.203C309.104 372.739 285.789 373.229 267.04 356.735L285.794 329.515Z" fill="#F1B104"/>
<path d="M240.726 301.164C238.722 304.613 234.732 306.965 230.137 306.965C223.529 306.965 218.172 302.104 218.172 296.107C218.172 290.367 223.083 285.666 229.299 285.277C230.053 281.299 233.551 278.289 237.751 278.289C239.953 278.289 241.963 279.117 243.486 280.478V277.581C243.486 271.069 249.02 265.929 255.518 266.406L264.68 267.089C269.613 267.457 273.045 272.15 271.898 276.96L268.29 290.952H268.332C273.396 290.952 277.5 295.054 277.5 300.115C277.5 305.177 273.396 309.279 268.332 309.279C266.672 309.279 265.115 308.838 263.772 308.067L240.726 301.164Z" fill="#573240"/>
<path d="M263.71 295.269V306.595C259.833 302.891 254.81 300.639 249.486 300.198C251.11 298.781 252.138 296.697 252.138 294.372C252.138 292.849 251.699 291.433 250.938 290.238H246.948C244.702 290.238 242.88 288.419 242.88 286.172V285.534C242.88 283.289 244.702 281.469 246.948 281.469H248.036C249.699 281.469 251.047 282.817 251.047 284.479V285.148C251.047 283.237 252.532 281.669 254.438 281.533C258.218 281.264 264.268 279.759 267.87 273.346C268.171 272.808 268.986 272.973 269.047 273.588L270.449 287.401C270.864 291.49 267.762 295.056 263.71 295.269Z" fill="#F1B104"/>
<path d="M263.948 295.672H260.062C256.336 295.672 252.501 293.677 250.652 290.442" stroke="#573240" stroke-miterlimit="10" stroke-linecap="round"/>
<path d="M249.101 286.124C249.101 284.751 247.988 283.638 246.615 283.638" stroke="#573240" stroke-miterlimit="10" stroke-linecap="round"/>
<path d="M265.15 289.631C263.824 289.986 262.253 289.199 261.898 287.873L260.828 288.693" stroke="#573240" stroke-miterlimit="10" stroke-linecap="round" stroke-linejoin="round"/>
<path d="M270.18 280.392C269.577 279.002 268.253 278.435 266.696 279.09C265.827 279.456 263.525 282.772 265.113 286.123" stroke="#573240" stroke-miterlimit="10" stroke-linecap="round"/>
<path d="M267.585 284.264C267.976 284.264 268.294 283.752 268.294 283.121C268.294 282.489 267.976 281.978 267.585 281.978C267.193 281.978 266.875 282.489 266.875 283.121C266.875 283.752 267.193 284.264 267.585 284.264Z" fill="#573240"/>
<path d="M260.345 284.264C260.736 284.264 261.054 283.752 261.054 283.121C261.054 282.489 260.736 281.978 260.345 281.978C259.953 281.978 259.635 282.489 259.635 283.121C259.635 283.752 259.953 284.264 260.345 284.264Z" fill="#573240"/>
<path d="M285.794 329.515L264.409 307.291C259.998 302.706 253.909 300.115 247.545 300.115C238.775 300.115 230.741 305.017 226.733 312.814L195.727 373.703H268.597L267.04 356.735L285.794 329.515Z" fill="#FF6E00"/>
<path d="M267.04 356.735C263.171 353.776 251.183 345.452 246.059 336.122" stroke="#573240" stroke-miterlimit="10" stroke-linecap="round"/>
</svg>
